<svg xmlns="http://www.w3.org/2000/svg" xmlns:xlink="http://www.w3.org/1999/xlink" width="3710" height="3710" viewBox="0 0 3710 3710"><defs><style>.a{fill:none;}.b{fill:url(#a);}.c{fill:url(#b);}.d{fill:url(#c);}.e{fill:url(#d);}.f{fill:#ffd000;}.g,.h,.i{fill:#fff;}.g{opacity:0.15;}.h{opacity:0.65;}.j{fill:url(#e);}.k{fill:url(#f);}.l{fill:url(#g);}.m{fill:url(#h);}.n{fill:url(#i);}.o{fill:url(#j);}.p{fill:url(#k);}.q{fill:url(#l);}.r{fill:url(#m);}.s{fill:url(#n);}.t{fill:url(#o);}.u{fill:url(#p);}.v{fill:url(#q);}.w{fill:url(#r);}.x{fill:url(#s);}.y{fill:url(#t);}.z{fill:url(#u);}.aa{fill:url(#v);}.ab{clip-path:url(#w);}.ac{fill:url(#x);}.ad{fill:#fafafa;}.ae{fill:url(#y);}.af{fill:url(#z);}.ag{clip-path:url(#aa);}.ah{fill:url(#ab);}.ai{fill:url(#ac);}.aj{fill:url(#ad);}.ak{fill:url(#ae);}.al{fill:url(#af);}.am{fill:url(#ag);}.an{fill:url(#ah);}.ao{fill:url(#ai);}.ap{fill:url(#aj);}.aq{fill:url(#ak);}.ar{fill:url(#al);}.as{fill:url(#am);}.at{fill:url(#an);}.au{fill:url(#ao);}.av{fill:url(#ap);}.aw{fill:url(#aq);}.ax{fill:url(#ar);}.ay{fill:url(#as);}.az{fill:url(#at);}.ba{fill:url(#au);}.bb{fill:url(#av);}.bc{fill:url(#aw);}.bd{fill:url(#ax);}.be{fill:url(#ay);}</style><linearGradient id="a" x1="3992.35" y1="4519.18" x2="925.06" y2="709.8" gradientUnits="userSpaceOnUse"><stop offset="0" stop-color="#d9e1fc"/><stop offset="1" stop-color="#e7edfb"/></linearGradient><linearGradient id="b" x1="688.57" y1="1740.74" x2="3340.5" y2="1740.74" gradientTransform="translate(273.79 3755.28) rotate(-90)" gradientUnits="userSpaceOnUse"><stop offset="0"/><stop offset="1" stop-color="#1a1a1a"/></linearGradient><linearGradient id="c" x1="704.23" y1="1740.75" x2="3324.83" y2="1740.75" gradientTransform="matrix(1, 0, 0, 1, 0, 0)" xlink:href="#b"/><linearGradient id="d" x1="766.87" y1="1740.74" x2="3262.2" y2="1740.74" gradientTransform="translate(273.79 3755.28) rotate(-90)" gradientUnits="userSpaceOnUse"><stop offset="0" stop-color="#3fa6d8"/><stop offset="0.27" stop-color="#3697cc"/><stop offset="0.78" stop-color="#1f70ad"/><stop offset="1" stop-color="#135d9d"/></linearGradient><linearGradient id="e" x1="1766.31" y1="2380.89" x2="1766.31" y2="2309.42" gradientUnits="userSpaceOnUse"><stop offset="0" stop-color="#529a00"/><stop offset="0.19" stop-color="#52a201"/><stop offset="0.49" stop-color="#52b805"/><stop offset="0.86" stop-color="#52db0b"/><stop offset="1" stop-color="#52eb0e"/></linearGradient><linearGradient id="f" x1="2120.21" y1="2380.89" x2="2120.21" y2="2309.42" xlink:href="#e"/><radialGradient id="g" cx="2416.88" cy="2347.37" r="40.06" gradientTransform="translate(2367.73 -1021.46) rotate(45)" gradientUnits="userSpaceOnUse"><stop offset="0" stop-color="#529a00"/><stop offset="0.19" stop-color="#4a9f06"/><stop offset="0.49" stop-color="#34ab17"/><stop offset="0.85" stop-color="#11c032"/><stop offset="1" stop-color="#00ca3f"/></radialGradient><linearGradient id="h" x1="2669.95" y1="2375.83" x2="2702.42" y2="2375.83" gradientUnits="userSpaceOnUse"><stop offset="0" stop-color="#529a00"/><stop offset="0.05" stop-color="#52a201"/><stop offset="0.13" stop-color="#52b805"/><stop offset="0.23" stop-color="#52db0b"/><stop offset="0.27" stop-color="#52eb0e"/><stop offset="0.46" stop-color="#52dc19"/><stop offset="0.83" stop-color="#52b436"/><stop offset="1" stop-color="#529f45"/></linearGradient><linearGradient id="i" x1="2707.33" y1="2375.83" x2="2739.8" y2="2375.83" xlink:href="#h"/><linearGradient id="j" x1="2744.7" y1="2375.83" x2="2777.17" y2="2375.83" xlink:href="#h"/><radialGradient id="k" cx="2417" cy="2485.79" r="40.06" gradientTransform="translate(2465.64 -981.01) rotate(45)" xlink:href="#g"/><linearGradient id="l" x1="2670.07" y1="2514.25" x2="2702.54" y2="2514.25" xlink:href="#h"/><linearGradient id="m" x1="2707.45" y1="2514.25" x2="2739.92" y2="2514.25" xlink:href="#h"/><linearGradient id="n" x1="2744.82" y1="2514.25" x2="2777.29" y2="2514.25" xlink:href="#h"/><radialGradient id="o" cx="2839.17" cy="2347.37" r="40.06" gradientTransform="translate(2491.41 -1320.07) rotate(45)" xlink:href="#g"/><linearGradient id="p" x1="3092.25" y1="2375.83" x2="3124.71" y2="2375.83" xlink:href="#h"/><linearGradient id="q" x1="3129.62" y1="2375.83" x2="3162.09" y2="2375.83" xlink:href="#h"/><linearGradient id="r" x1="3166.99" y1="2375.83" x2="3199.46" y2="2375.83" xlink:href="#h"/><radialGradient id="s" cx="2839.29" cy="2485.79" r="40.06" gradientTransform="translate(2589.33 -1279.61) rotate(45)" xlink:href="#g"/><linearGradient id="t" x1="3092.37" y1="2514.25" x2="3124.83" y2="2514.25" xlink:href="#h"/><linearGradient id="u" x1="3129.74" y1="2514.25" x2="3162.21" y2="2514.25" xlink:href="#h"/><linearGradient id="v" x1="3167.11" y1="2514.25" x2="3199.58" y2="2514.25" xlink:href="#h"/><clipPath id="w"><path class="a" d="M1869.19,1439.7s-57.06-.78-69.58,17.88-64.48,134.68-64.48,134.68L1816,1634.4l17.44-49.77,28.37,104c-32.49,25.82-78.53,259.93-69.38,358.56l303.86,1s2.1-273.67-80.08-363.66l19.27-108.69,18.53,53,85.82-35.57-64.55-116.06a62.5,62.5,0,0,0-54.26-32.11l-21-.11s-8.89,77.7-65.35,76.19S1869.19,1439.7,1869.19,1439.7Z"/></clipPath><linearGradient id="x" x1="1735.13" y1="1743.93" x2="2139.83" y2="1743.93" gradientUnits="userSpaceOnUse"><stop offset="0" stop-color="#529a00"/><stop offset="0.08" stop-color="#52a602"/><stop offset="0.32" stop-color="#52c407"/><stop offset="0.56" stop-color="#52da0b"/><stop offset="0.79" stop-color="#52e70d"/><stop offset="1" stop-color="#52eb0e"/></linearGradient><linearGradient id="y" x1="271.12" y1="2189.79" x2="1094.91" y2="2189.79" gradientTransform="matrix(1, 0, 0, 1, 0, 0)" xlink:href="#b"/><linearGradient id="z" x1="308.94" y1="2184.81" x2="1057.08" y2="2184.81" gradientTransform="matrix(1, 0, 0, 1, 0, 0)" xlink:href="#d"/><clipPath id="aa"><path class="a" d="M615.3,1845.94s-57-.77-69.58,17.88-64.48,134.69-64.48,134.69l80.88,42.14,17.43-49.77,28.37,104c-32.49,25.82-78.53,259.93-69.38,358.56l303.87,1s2.09-273.67-80.09-363.67l19.28-108.69,18.53,53L886,1999.53l-64.56-116.07a62.46,62.46,0,0,0-54.25-32.1l-21.06-.11s-8.89,77.69-65.35,76.18S615.3,1845.94,615.3,1845.94Z"/></clipPath><linearGradient id="ab" x1="481.24" y1="2150.17" x2="885.95" y2="2150.17" xlink:href="#x"/><linearGradient id="ac" x1="680.29" y1="2969.28" x2="680.29" y2="2857.82" xlink:href="#x"/><linearGradient id="ad" x1="2428.22" y1="2415.79" x2="2621.77" y2="2415.79" gradientTransform="translate(-2031.73 629.47) rotate(-19.32)" xlink:href="#b"/><linearGradient id="ae" x1="-7708.36" y1="2082.94" x2="-7528.08" y2="2082.94" gradientTransform="matrix(-1, 0, 0, 1, -6310.53, 0)" xlink:href="#b"/><linearGradient id="af" x1="3505.4" y1="2677.89" x2="3756.95" y2="3245.87" gradientTransform="matrix(0.85, -0.32, -0.34, -0.89, -600.17, 6251.65)" gradientUnits="userSpaceOnUse"><stop offset="0" stop-color="#fcb9b8"/><stop offset="1" stop-color="#fd908c"/></linearGradient><linearGradient id="ag" x1="1976.17" y1="293.55" x2="2256.86" y2="927.34" gradientTransform="matrix(0.68, -0.74, -0.74, -0.68, 426.87, 4460.9)" xlink:href="#af"/><linearGradient id="ah" x1="-7268.3" y1="3111.02" x2="-7248.94" y2="3588.39" gradientTransform="matrix(-1, 0, 0, 1, -6310.53, 0)" xlink:href="#b"/><linearGradient id="ai" x1="-7656.59" y1="3859.72" x2="-7533.29" y2="2418.63" gradientTransform="matrix(-1, 0, 0, 1, -6310.53, 0)" xlink:href="#af"/><linearGradient id="aj" x1="-7598.68" y1="3073.09" x2="-7627.71" y2="3598.85" gradientTransform="matrix(-1, 0, 0, 1, -6310.53, 0)" xlink:href="#b"/><linearGradient id="ak" x1="-7408.56" y1="3881.16" x2="-7285.23" y2="2439.69" gradientTransform="matrix(-1, 0, 0, 1, -6310.53, 0)" xlink:href="#af"/><linearGradient id="al" x1="-7671.65" y1="2047.52" x2="-7671.65" y2="2747.71" gradientTransform="matrix(-1, 0, 0, 1, -6310.53, 0)" gradientUnits="userSpaceOnUse"><stop offset="0" stop-color="#3fa6d8"/><stop offset="0.04" stop-color="#3ba2d4"/><stop offset="0.46" stop-color="#1d7cb6"/><stop offset="0.79" stop-color="#0a65a3"/><stop offset="1" stop-color="#035d9c"/></linearGradient><linearGradient id="am" x1="-7670.11" y1="2439.23" x2="-7646.95" y2="2269.79" gradientTransform="matrix(-1, 0, 0, 1, -6310.53, 0)" xlink:href="#af"/><linearGradient id="an" x1="-16234.18" y1="4778.44" x2="-16079.07" y2="4956.77" gradientTransform="matrix(-0.97, 0.26, 0.26, 0.97, -15530.44, 1688.72)" xlink:href="#af"/><linearGradient id="ao" x1="-7799.99" y1="2473.84" x2="-7470.21" y2="1672.38" gradientTransform="matrix(-1, -0.02, -0.02, 1, -6214.61, -50.64)" xlink:href="#b"/><linearGradient id="ap" x1="-16195.43" y1="4744.73" x2="-16040.32" y2="4923.06" gradientTransform="matrix(-0.97, 0.26, 0.26, 0.97, -15530.44, 1688.72)" xlink:href="#af"/><linearGradient id="aq" x1="1592.41" y1="2420.7" x2="1587.86" y2="2424.75" gradientTransform="matrix(1, 0, 0, 1, 0, 0)" xlink:href="#af"/><linearGradient id="ar" x1="1599.55" y1="2412.57" x2="1598.4" y2="2413.6" gradientTransform="matrix(1, 0, 0, 1, 0, 0)" xlink:href="#af"/><linearGradient id="as" x1="1571.47" y1="2249.83" x2="1350.96" y2="2508.61" gradientTransform="matrix(1, 0, 0, 1, 0, 0)" xlink:href="#af"/><linearGradient id="at" x1="1598.73" y1="2414.08" x2="1591.92" y2="2420.15" gradientTransform="matrix(1, 0, 0, 1, 0, 0)" xlink:href="#af"/><linearGradient id="au" x1="1489.82" y1="2703.82" x2="1073.49" y2="3074.69" xlink:href="#x"/><linearGradient id="av" x1="936.9" y1="3484.94" x2="960.22" y2="3537.6" gradientTransform="matrix(1, 0, 0, 1, 0, 0)" xlink:href="#b"/><linearGradient id="aw" x1="1315.48" y1="3487.73" x2="1325.4" y2="3510.12" gradientTransform="matrix(1, 0, 0, 1, 0, 0)" xlink:href="#b"/><linearGradient id="ax" x1="-7730.07" y1="2112.28" x2="-7690.27" y2="2202.15" gradientTransform="matrix(-1, 0, 0, 1, -6310.53, 0)" xlink:href="#af"/><linearGradient id="ay" x1="-7614.73" y1="2134.6" x2="-7597.05" y2="2174.51" gradientTransform="matrix(-1, 0, 0, 1, -6310.53, 0)" gradientUnits="userSpaceOnUse"><stop offset="0" stop-color="#fcb9b8"/><stop offset="0.05" stop-color="#fcb6b1"/><stop offset="0.28" stop-color="#fcab96"/><stop offset="0.51" stop-color="#fda383"/><stop offset="0.75" stop-color="#fd9f78"/><stop offset="1" stop-color="#fd9d74"/></linearGradient></defs><path class="b" d="M3148.52,3016.9c-70.45,74.17-137.12,122-189.79,159.79-619.11,444.23-1351.7,314.74-1507.39,283.12-229.91-46.7-674.33-137-995.63-514.81C-30.4,2373.35,45.3,1472.73,422.35,878.22c69-108.74,433.29-712.31,1173.76-809.1,448.13-58.58,970.5,59.56,1348.79,376.49C3739,1110.87,3682.42,2454.82,3148.52,3016.9Z"/><rect class="c" x="1088.17" y="414.78" width="1852.72" height="2651.92" rx="95.94" transform="translate(3755.28 -273.79) rotate(90)"/><rect class="d" x="704.23" y="830.04" width="2620.6" height="1821.41" rx="82.98"/><rect class="e" x="1166.47" y="493.08" width="1696.12" height="2495.32" rx="31.14" transform="translate(3755.28 -273.79) rotate(90)"/><path class="f" d="M3262.19,1107.05s0-69,0-84.48c0,0-2489.43-.65-2495.32,0v84.48Z"/><rect class="g" x="1405.55" y="1140.48" width="1825.51" height="1416.79"/><path class="h" d="M1435.19,1288v123.45H1564V1288Zm125.51,118.2H1438.19v-113H1560.7Z"/><path class="h" d="M1435.19,1442.54V1566H1564V1442.54Zm125.51,118.2H1438.19v-113H1560.7Z"/><path class="h" d="M1435,1600.11v123.45h128.85V1600.11Zm125.5,118.2H1438v-113h122.5Z"/><path class="h" d="M1434.84,1756.77v123.45h128.85V1756.77ZM1560.35,1875H1437.84V1762h122.51Z"/><path class="h" d="M2419.19,2106.79v143.43h153.62V2106.79Zm150.22,139.1H2422.22V2111.37h147.19Z"/><path class="h" d="M2616,2106.92v143.43h153.62V2106.92ZM2766.19,2246H2619V2111.5h147.19Z"/><path class="h" d="M2821,2106.92v143.43h153.62V2106.92ZM2971.26,2246H2824.07V2111.5h147.19Z"/><path class="h" d="M1594.83,1288v947.86h685.91V1288Zm670.73,919.25h-657.2v-889h657.2Z"/><rect class="g" x="789.34" y="1140.48" width="571.7" height="1416.79"/><rect class="h" x="816.27" y="1167.31" width="258.92" height="26.86"/><rect class="h" x="861.32" y="1217.28" width="443.88" height="43.5"/><rect class="h" x="861.32" y="1291.85" width="443.88" height="43.5"/><rect class="h" x="861.32" y="1367.97" width="443.88" height="43.5"/><rect class="h" x="861.32" y="1442.54" width="443.88" height="43.5"/><rect class="h" x="816.27" y="1543.27" width="258.92" height="26.86"/><rect class="h" x="816.27" y="1914.57" width="258.92" height="26.86"/><rect class="h" x="861.32" y="1593.23" width="443.88" height="43.5"/><rect class="h" x="861.32" y="1667.8" width="443.88" height="43.5"/><rect class="h" x="861.32" y="1743.93" width="443.88" height="43.5"/><rect class="h" x="861.32" y="1818.5" width="443.88" height="43.5"/><rect class="h" x="816.27" y="2078.46" width="258.92" height="26.86"/><rect class="h" x="861.32" y="2128.42" width="443.88" height="43.5"/><rect class="h" x="861.32" y="2202.99" width="443.88" height="43.5"/><rect class="h" x="861.32" y="2279.12" width="443.88" height="43.5"/><rect class="h" x="861.32" y="2353.69" width="443.88" height="43.5"/><rect class="h" x="839.57" y="2001.22" width="335.57" height="9.92" rx="4.1"/><path class="h" d="M1196.89,1980.06v46.61h108.32v-46.61Zm102.8,41.69h-97.36V1985.5h97.36Z"/><circle class="h" cx="1007.36" cy="2006.18" r="12.28"/><rect class="h" x="839.57" y="1985.5" width="61.11" height="10.62"/><rect class="h" x="1113.52" y="1986.91" width="61.11" height="10.62"/><polygon class="h" points="1276.64 1167.31 1299.94 1167.31 1288.29 1188.28 1276.64 1167.31"/><polygon class="h" points="1276.64 1546.21 1299.94 1546.21 1288.29 1567.18 1276.64 1546.21"/><polygon class="h" points="1276.64 2081.41 1299.94 2081.41 1288.29 2102.37 1276.64 2081.41"/><polygon class="h" points="1276.64 1917.51 1299.94 1917.51 1288.29 1938.48 1276.64 1917.51"/><rect class="i" x="2367.63" y="1293.27" width="815.2" height="78.81"/><rect class="i" x="2367.49" y="1406.22" width="422.82" height="71.53"/><rect class="i" x="2367.63" y="1618.61" width="551.1" height="20.71"/><rect class="i" x="2367.63" y="1661.83" width="551.1" height="20.71"/><rect class="i" x="2367.63" y="1707.95" width="551.1" height="20.71"/><rect class="i" x="2367.63" y="1752.42" width="551.1" height="20.71"/><polygon class="f" points="2428.1 1919.68 2441.01 1922.05 2431.27 1930.85 2433 1943.87 2421.62 1937.33 2409.78 1942.99 2412.48 1930.15 2403.43 1920.64 2416.49 1919.24 2422.73 1907.7 2428.1 1919.68"/><polygon class="f" points="2474.7 1919.68 2487.61 1922.05 2477.88 1930.85 2479.61 1943.87 2468.23 1937.33 2456.39 1942.99 2459.09 1930.15 2450.04 1920.64 2463.09 1919.24 2469.34 1907.7 2474.7 1919.68"/><polygon class="f" points="2520.48 1919.68 2533.39 1922.05 2523.65 1930.85 2525.38 1943.87 2514 1937.33 2502.16 1942.99 2504.86 1930.15 2495.82 1920.64 2508.87 1919.24 2515.11 1907.7 2520.48 1919.68"/><polygon class="f" points="2567.08 1919.68 2579.99 1922.05 2570.26 1930.85 2571.99 1943.87 2560.61 1937.33 2548.77 1942.99 2551.47 1930.15 2542.42 1920.64 2555.47 1919.24 2561.72 1907.7 2567.08 1919.68"/><polygon class="i" points="2613.69 1919.68 2626.6 1922.05 2616.86 1930.85 2618.59 1943.87 2607.21 1937.33 2595.37 1942.99 2598.08 1930.15 2589.03 1920.64 2602.08 1919.24 2608.33 1907.7 2613.69 1919.68"/><rect class="i" x="2461.99" y="1806.07" width="99.22" height="83.89"/><rect class="i" x="2450.04" y="1964.53" width="129.95" height="25.89"/><rect class="i" x="2481.83" y="2002.85" width="67.16" height="29"/><rect class="i" x="2692.78" y="1799.86" width="76.81" height="48.16"/><rect class="i" x="2692.78" y="1860.44" width="76.81" height="36.38"/><rect class="i" x="2692.78" y="1907.59" width="76.81" height="36.38"/><rect class="i" x="2692.78" y="1954.05" width="76.81" height="36.38"/><rect class="i" x="2692.78" y="1999.16" width="76.81" height="36.38"/><rect class="i" x="2798.59" y="1806.07" width="289.99" height="27.96" rx="11.02"/><rect class="i" x="2798.59" y="1868.53" width="250.64" height="20.2" rx="7.4"/><rect class="i" x="2798.59" y="1916.46" width="302.42" height="18.64" rx="7.5"/><rect class="i" x="2798.59" y="1962.91" width="42.81" height="18.64" rx="2.82"/><rect class="i" x="2798.59" y="2008.03" width="195.4" height="18.64" rx="6.03"/><path class="f" d="M2394.39,1560.93a6.47,6.47,0,0,0-1.38-4.39,12.81,12.81,0,0,0-4.85-3c-2.31-1-4.45-1.9-6.4-2.87a22.56,22.56,0,0,1-5.07-3.36,13.23,13.23,0,0,1-3.25-4.43,14.65,14.65,0,0,1-1.14-6.09,13.07,13.07,0,0,1,4-9.85,17.37,17.37,0,0,1,10.76-4.52v-7.47h5.63v7.61a15.86,15.86,0,0,1,10.18,5.33,16.64,16.64,0,0,1,3.7,11.1h-12a9.68,9.68,0,0,0-1.41-5.66,4.66,4.66,0,0,0-4-2,4.57,4.57,0,0,0-3.63,1.47,5.94,5.94,0,0,0-1.29,4.06,5.68,5.68,0,0,0,1.49,4.15,14.53,14.53,0,0,0,4.77,2.94c2.2.94,4.27,1.9,6.22,2.91a23.78,23.78,0,0,1,5,3.41,13.94,13.94,0,0,1,3.33,4.46,14.29,14.29,0,0,1,1.2,6.13,13.33,13.33,0,0,1-3.84,9.87q-3.84,3.82-10.46,4.46v7.12h-5.63v-7.15q-7.71-.81-11.84-5.29t-4.12-11.81h11.93c0,2.69.59,4.74,1.79,6.14a6.26,6.26,0,0,0,5.07,2.11,5,5,0,0,0,3.79-1.44A5.44,5.44,0,0,0,2394.39,1560.93Z"/><path class="f" d="M2448.59,1574.59h-36v-7.79l16.57-17.41q6.12-7,6.13-11.08a7.72,7.72,0,0,0-1.46-5.07,5.64,5.64,0,0,0-8.63.59,9.46,9.46,0,0,0-1.7,5.79h-12a16.89,16.89,0,0,1,2.37-8.76,16.7,16.7,0,0,1,6.59-6.29,19.57,19.57,0,0,1,9.41-2.26q8.36,0,12.87,3.85t4.52,11.08a16,16,0,0,1-1.14,5.93,25.77,25.77,0,0,1-3.52,6.06,88.58,88.58,0,0,1-7.7,8.48l-6.65,7.68h20.28Z"/><path class="f" d="M2490.4,1553.53q0,10.44-4.69,16.11t-13.22,5.66q-8.61,0-13.32-5.7t-4.7-16.07v-9.42q0-10.44,4.69-16.1t13.25-5.67q8.58,0,13.28,5.7t4.71,16.11Zm-11.93-10.94c0-3.7-.49-6.47-1.45-8.3a4.86,4.86,0,0,0-4.61-2.74,4.73,4.73,0,0,0-4.47,2.54c-.94,1.7-1.44,4.28-1.51,7.72V1555c0,3.85.49,6.66,1.45,8.44a4.88,4.88,0,0,0,4.61,2.68,4.81,4.81,0,0,0,4.49-2.61c1-1.73,1.46-4.45,1.49-8.16Z"/><path class="f" d="M2504.17,1563a6.79,6.79,0,0,1,4.71,1.68,5.88,5.88,0,0,1,0,8.6,7.44,7.44,0,0,1-9.44,0,5.85,5.85,0,0,1,0-8.56A6.72,6.72,0,0,1,2504.17,1563Z"/><path class="f" d="M2542,1554.66a12.61,12.61,0,0,1-8.64,3.47q-7,0-11.11-4.74t-4.11-12.68a19.05,19.05,0,0,1,2.3-9.2,17.41,17.41,0,0,1,6.46-6.73,17.66,17.66,0,0,1,9.19-2.47,17.09,17.09,0,0,1,9.22,2.56,17.31,17.31,0,0,1,6.43,7.26,25,25,0,0,1,2.37,10.81v4.57a31,31,0,0,1-3.35,14.8,23.12,23.12,0,0,1-9.54,9.63,29.82,29.82,0,0,1-14.44,3.36H2526v-9.56l2.27,0Q2540.63,1565.11,2542,1554.66Zm-5.42-5.13a5.82,5.82,0,0,0,5.6-3.36v-5c0-3.3-.56-5.75-1.67-7.33a5.21,5.21,0,0,0-4.49-2.37,4.93,4.93,0,0,0-4.21,2.69,11.89,11.89,0,0,0-1.7,6.51,10.7,10.7,0,0,0,1.73,6.43A5.56,5.56,0,0,0,2536.59,1549.53Z"/><rect class="j" x="1594.83" y="2309.42" width="342.96" height="71.47" rx="29.58"/><rect class="k" x="1959.68" y="2309.42" width="321.07" height="71.47" rx="29.58"/><path class="i" d="M1722.6,2362.77v-30.93h11.11c4,0,7,.73,9.08,2.19a8.07,8.07,0,0,1,2,10.45,6.37,6.37,0,0,1-3.25,2.5,6.53,6.53,0,0,1,3.72,2.38,6.88,6.88,0,0,1,1.3,4.25q0,4.54-2.88,6.83t-8.53,2.33Zm7.45-18h3.89a5.49,5.49,0,0,0,3.48-.89,3.15,3.15,0,0,0,1-2.58,3.32,3.32,0,0,0-1.12-2.82,6,6,0,0,0-3.63-.87h-3.66Zm0,4.89V2357h4.89a4.68,4.68,0,0,0,3.1-.92,3.26,3.26,0,0,0,1.08-2.61c0-2.57-1.28-3.87-3.84-3.88Z"/><path class="i" d="M1774.91,2331.84v20.24a11.7,11.7,0,0,1-1.46,6,9.44,9.44,0,0,1-4.21,3.83,14.78,14.78,0,0,1-6.48,1.32q-5.64,0-8.9-2.93a10.47,10.47,0,0,1-3.31-8v-20.39h7.5v20.54c.08,3.38,1.65,5.08,4.71,5.08a4.58,4.58,0,0,0,3.51-1.28,6,6,0,0,0,1.19-4.14v-20.2Z"/><path class="i" d="M1790.88,2345.26l5.7-13.42h8.05l-10,19.82v11.11h-7.57v-11.11l-9.94-19.82h8Z"/><path class="i" d="M2020.29,2354.3h-8.93l-1.56,5h-7l9.92-27h6.12l10,27h-7Zm-7.37-5h5.81l-2.91-9.37Z"/><path class="i" d="M2030.84,2359.35v-27h8.7A12.78,12.78,0,0,1,2046,2334a11.43,11.43,0,0,1,4.46,4.58,14,14,0,0,1,1.63,6.64v1.24a14,14,0,0,1-1.57,6.66,11.45,11.45,0,0,1-4.42,4.6,12.48,12.48,0,0,1-6.36,1.68Zm6.51-22v17h2.27a5.09,5.09,0,0,0,4.31-2c1-1.33,1.5-3.3,1.5-5.93v-1.17a9.7,9.7,0,0,0-1.5-5.9,5.2,5.2,0,0,0-4.39-2Z"/><path class="i" d="M2055.42,2359.35v-27h8.7a12.78,12.78,0,0,1,6.45,1.63,11.43,11.43,0,0,1,4.46,4.58,14,14,0,0,1,1.63,6.64v1.24a14,14,0,0,1-1.57,6.66,11.45,11.45,0,0,1-4.42,4.6,12.48,12.48,0,0,1-6.36,1.68Zm6.51-22v17h2.27a5.09,5.09,0,0,0,4.31-2c1-1.33,1.5-3.3,1.5-5.93v-1.17a9.7,9.7,0,0,0-1.5-5.9,5.2,5.2,0,0,0-4.39-2Z"/><path class="i" d="M2109.57,2337.35h-8.11v22h-6.52v-22h-8v-5h22.59Z"/><path class="i" d="M2134.69,2346.39a15.9,15.9,0,0,1-1.47,7,10.84,10.84,0,0,1-4.17,4.69,11.55,11.55,0,0,1-6.15,1.64,11.88,11.88,0,0,1-6.13-1.58,10.78,10.78,0,0,1-4.16-4.54,15.46,15.46,0,0,1-1.57-6.78v-1.52a16,16,0,0,1,1.45-7,11,11,0,0,1,4.18-4.69,12.36,12.36,0,0,1,12.32,0,11,11,0,0,1,4.19,4.65,15.57,15.57,0,0,1,1.51,6.91Zm-6.63-1.13a11.32,11.32,0,0,0-1.35-6.11,4.29,4.29,0,0,0-3.85-2.09q-4.91,0-5.18,7.35l0,2a11.67,11.67,0,0,0,1.32,6.11,4.58,4.58,0,0,0,7.73,0,11.36,11.36,0,0,0,1.35-6Z"/><path class="i" d="M2169.39,2350.2a9.94,9.94,0,0,1-1.53,5,9.28,9.28,0,0,1-3.9,3.35,13.37,13.37,0,0,1-5.75,1.18,10.59,10.59,0,0,1-8.39-3.47q-3.06-3.47-3.06-9.8v-1.34a16.42,16.42,0,0,1,1.38-7,10.49,10.49,0,0,1,4-4.6,11.06,11.06,0,0,1,6-1.63,11.67,11.67,0,0,1,7.9,2.59,10.21,10.21,0,0,1,3.4,7.14h-6.5a4.82,4.82,0,0,0-1.24-3.54,5.1,5.1,0,0,0-3.56-1.08,3.88,3.88,0,0,0-3.57,1.82,11.77,11.77,0,0,0-1.19,5.81v1.91q0,4.32,1.09,6.18a4,4,0,0,0,3.74,1.86,5,5,0,0,0,3.43-1.06,4.48,4.48,0,0,0,1.27-3.36Z"/><path class="i" d="M2187.82,2354.3h-8.93l-1.56,5h-7l9.91-27h6.13l10,27h-7Zm-7.37-5h5.81l-2.91-9.37Z"/><path class="i" d="M2208.41,2349.79h-3.53v9.56h-6.51v-27H2209c3.21,0,5.71.71,7.52,2.14a7.21,7.21,0,0,1,2.71,6,8.82,8.82,0,0,1-1.14,4.68,8.15,8.15,0,0,1-3.57,3l5.64,10.91v.28h-7Zm-3.53-5H2209a3.72,3.72,0,0,0,2.8-1,4.47,4.47,0,0,0,0-5.47,3.68,3.68,0,0,0-2.79-1h-4.12Z"/><path class="i" d="M2243.46,2337.35h-8.11v22h-6.52v-22h-8v-5h22.59Z"/><polygon class="i" points="1467.38 1385.23 1535.73 1385.23 1518.64 1318.43 1504.45 1355.23 1490.68 1337.51 1467.38 1385.23"/><circle class="i" cx="1474.63" cy="1325.53" r="13.22"/><polygon class="i" points="1467.38 1540.72 1535.73 1540.72 1518.64 1473.92 1504.45 1510.72 1490.68 1493 1467.38 1540.72"/><circle class="i" cx="1474.63" cy="1481.03" r="13.22"/><polygon class="i" points="1463.23 1698.29 1531.59 1698.29 1514.5 1631.49 1500.31 1668.29 1486.54 1650.57 1463.23 1698.29"/><circle class="i" cx="1470.48" cy="1638.59" r="13.22"/><polygon class="i" points="1466.22 1860.34 1534.58 1860.34 1517.49 1793.54 1503.29 1830.34 1489.52 1812.62 1466.22 1860.34"/><circle class="i" cx="1473.47" cy="1800.65" r="13.22"/><rect class="i" x="1608.36" y="1318.28" width="657.2" height="888.98"/><rect class="i" x="1762.73" y="914.34" width="555.58" height="82.86"/><rect class="i" x="2481.11" y="2305.49" width="302.97" height="15.02"/><rect class="i" x="2481.11" y="2336.79" width="302.97" height="15.02"/><rect class="i" x="2481.11" y="2368.09" width="114.74" height="15.02"/><circle class="l" cx="2416.88" cy="2347.37" r="40.06" transform="translate(-951.95 2396.52) rotate(-45)"/><polygon class="i" points="2648.82 2360.39 2652.65 2372.18 2665.05 2372.18 2655.02 2379.47 2658.85 2391.27 2648.82 2383.98 2638.78 2391.27 2642.61 2379.47 2632.58 2372.18 2644.98 2372.18 2648.82 2360.39"/><polygon class="m" points="2686.19 2360.39 2690.02 2372.18 2702.42 2372.18 2692.39 2379.47 2696.22 2391.27 2686.19 2383.98 2676.16 2391.27 2679.99 2379.47 2669.95 2372.18 2682.36 2372.18 2686.19 2360.39"/><polygon class="n" points="2723.56 2360.39 2727.39 2372.18 2739.8 2372.18 2729.76 2379.47 2733.6 2391.27 2723.56 2383.98 2713.53 2391.27 2717.36 2379.47 2707.33 2372.18 2719.73 2372.18 2723.56 2360.39"/><polygon class="o" points="2760.94 2360.39 2764.77 2372.18 2777.17 2372.18 2767.14 2379.47 2770.97 2391.27 2760.94 2383.98 2750.9 2391.27 2754.74 2379.47 2744.7 2372.18 2757.1 2372.18 2760.94 2360.39"/><rect class="i" x="2481.23" y="2443.91" width="302.97" height="15.02"/><rect class="i" x="2481.23" y="2475.21" width="302.97" height="15.02"/><rect class="i" x="2481.23" y="2506.51" width="114.74" height="15.02"/><circle class="p" cx="2417" cy="2485.79" r="40.06" transform="translate(-1049.79 2437.15) rotate(-45)"/><polygon class="i" points="2648.93 2498.8 2652.77 2510.6 2665.17 2510.6 2655.14 2517.89 2658.97 2529.69 2648.93 2522.4 2638.9 2529.69 2642.73 2517.89 2632.7 2510.6 2645.1 2510.6 2648.93 2498.8"/><polygon class="q" points="2686.31 2498.8 2690.14 2510.6 2702.54 2510.6 2692.51 2517.89 2696.34 2529.69 2686.31 2522.4 2676.28 2529.69 2680.11 2517.89 2670.07 2510.6 2682.48 2510.6 2686.31 2498.8"/><polygon class="r" points="2723.68 2498.8 2727.51 2510.6 2739.92 2510.6 2729.88 2517.89 2733.72 2529.69 2723.68 2522.4 2713.65 2529.69 2717.48 2517.89 2707.45 2510.6 2719.85 2510.6 2723.68 2498.8"/><polygon class="s" points="2761.06 2498.8 2764.89 2510.6 2777.29 2510.6 2767.26 2517.89 2771.09 2529.69 2761.06 2522.4 2751.02 2529.69 2754.86 2517.89 2744.82 2510.6 2757.22 2510.6 2761.06 2498.8"/><rect class="i" x="2903.4" y="2305.49" width="302.97" height="15.02"/><rect class="i" x="2903.4" y="2336.79" width="302.97" height="15.02"/><rect class="i" x="2903.4" y="2368.09" width="114.74" height="15.02"/><circle class="t" cx="2839.17" cy="2347.37" r="40.06" transform="translate(-828.27 2695.13) rotate(-45)"/><polygon class="i" points="3071.11 2360.39 3074.94 2372.18 3087.34 2372.18 3077.31 2379.47 3081.14 2391.27 3071.11 2383.98 3061.07 2391.27 3064.91 2379.47 3054.87 2372.18 3067.27 2372.18 3071.11 2360.39"/><polygon class="u" points="3108.48 2360.39 3112.31 2372.18 3124.72 2372.18 3114.68 2379.47 3118.51 2391.27 3108.48 2383.98 3098.45 2391.27 3102.28 2379.47 3092.24 2372.18 3104.65 2372.18 3108.48 2360.39"/><polygon class="v" points="3145.85 2360.39 3149.69 2372.18 3162.09 2372.18 3152.05 2379.47 3155.89 2391.27 3145.85 2383.98 3135.82 2391.27 3139.65 2379.47 3129.62 2372.18 3142.02 2372.18 3145.85 2360.39"/><polygon class="w" points="3183.23 2360.39 3187.06 2372.18 3199.46 2372.18 3189.43 2379.47 3193.26 2391.27 3183.23 2383.98 3173.19 2391.27 3177.03 2379.47 3166.99 2372.18 3179.39 2372.18 3183.23 2360.39"/><rect class="i" x="2903.52" y="2443.91" width="302.97" height="15.02"/><rect class="i" x="2903.52" y="2475.21" width="302.97" height="15.02"/><rect class="i" x="2903.52" y="2506.51" width="114.74" height="15.02"/><circle class="x" cx="2839.29" cy="2485.79" r="40.06" transform="translate(-926.11 2735.75) rotate(-45)"/><polygon class="i" points="3071.23 2498.8 3075.06 2510.6 3087.46 2510.6 3077.43 2517.89 3081.26 2529.69 3071.23 2522.4 3061.19 2529.69 3065.03 2517.89 3054.99 2510.6 3067.39 2510.6 3071.23 2498.8"/><polygon class="y" points="3108.6 2498.8 3112.43 2510.6 3124.84 2510.6 3114.8 2517.89 3118.63 2529.69 3108.6 2522.4 3098.57 2529.69 3102.4 2517.89 3092.36 2510.6 3104.77 2510.6 3108.6 2498.8"/><polygon class="z" points="3145.97 2498.8 3149.81 2510.6 3162.21 2510.6 3152.17 2517.89 3156.01 2529.69 3145.97 2522.4 3135.94 2529.69 3139.77 2517.89 3129.74 2510.6 3142.14 2510.6 3145.97 2498.8"/><polygon class="aa" points="3183.35 2498.8 3187.18 2510.6 3199.58 2510.6 3189.55 2517.89 3193.38 2529.69 3183.35 2522.4 3173.31 2529.69 3177.15 2517.89 3167.11 2510.6 3179.51 2510.6 3183.35 2498.8"/><g class="ab"><path class="ac" d="M1869.19,1439.7s-57.06-.78-69.58,17.88-64.48,134.68-64.48,134.68L1816,1634.4l17.44-49.77,28.37,104c-32.49,25.82-78.53,259.93-69.38,358.56l303.86,1s2.1-273.67-80.08-363.66l19.27-108.69,18.53,53,85.82-35.57-64.55-116.06a62.5,62.5,0,0,0-54.26-32.11l-21-.11s-8.89,77.7-65.35,76.19S1869.19,1439.7,1869.19,1439.7Z"/><path class="ad" d="M2161.47,1808.73a7.19,7.19,0,0,1-.18-1.37c-.08-1-.18-2.36-.31-4a43.53,43.53,0,0,0-.77-6.51,61.15,61.15,0,0,0-1.82-8.74,81.14,81.14,0,0,0-9.47-22.45,84.74,84.74,0,0,0-57-39.51c-13.78-2.35-29.33-1.92-44.14,3.72a79.08,79.08,0,0,0-21.24,11.44,76.66,76.66,0,0,0-17.74,17.84c-10.33,13.74-16.15,31.4-16.32,49.6a89.81,89.81,0,0,0,4.33,26.48,81.4,81.4,0,0,0,12,23.14,77.17,77.17,0,0,0,17.74,17.84,78.93,78.93,0,0,0,21.24,11.44c14.81,5.64,30.36,6.08,44.14,3.72a84.68,84.68,0,0,0,57-39.51,81.27,81.27,0,0,0,9.47-22.45,61.15,61.15,0,0,0,1.82-8.74,43.53,43.53,0,0,0,.77-6.51c.13-1.67.23-3,.31-4a7.22,7.22,0,0,1,.18-1.38,5.83,5.83,0,0,1,.05,1.38c0,1-.06,2.37-.09,4.05a39.74,39.74,0,0,1-.56,6.57,62,62,0,0,1-1.63,8.87,80.6,80.6,0,0,1-9.25,22.87,85.7,85.7,0,0,1-57.68,40.69c-14.07,2.49-30,2.11-45.18-3.6a80.78,80.78,0,0,1-21.81-11.67,97.72,97.72,0,0,1-9.78-8.29,95.44,95.44,0,0,1-8.45-10,83.18,83.18,0,0,1-12.34-23.73,91.55,91.55,0,0,1-4.45-27.18c.17-18.68,6.17-36.82,16.79-50.9a97.81,97.81,0,0,1,8.45-10,96.41,96.41,0,0,1,9.78-8.29,80.61,80.61,0,0,1,21.81-11.66c15.19-5.72,31.11-6.1,45.18-3.61A85.7,85.7,0,0,1,2150,1765a80.48,80.48,0,0,1,9.25,22.87,62,62,0,0,1,1.63,8.87,39.74,39.74,0,0,1,.56,6.57c0,1.68.06,3,.09,4A5.83,5.83,0,0,1,2161.47,1808.73Z"/><path class="ad" d="M1893.73,1617.78c-.35,0,0-5.6-2.39-15.23a62.62,62.62,0,0,0-22.91-34.09,61.85,61.85,0,0,0-58.59-8.73,62,62,0,0,0-28.67,21.56,61.48,61.48,0,0,0,0,73,61.85,61.85,0,0,0,28.67,21.56,62.31,62.31,0,0,0,81.5-42.81c2.44-9.63,2-15.27,2.39-15.24a3.36,3.36,0,0,1,.06,1c0,.81,0,1.8,0,3a30,30,0,0,1-.38,4.87,45.7,45.7,0,0,1-1.18,6.56,59.47,59.47,0,0,1-6.8,17,63.47,63.47,0,0,1-42.73,30.23,63.84,63.84,0,0,1-33.52-2.65,63.75,63.75,0,0,1-29.74-22.2,63.52,63.52,0,0,1,0-75.58,63.86,63.86,0,0,1,29.73-22.19,63.83,63.83,0,0,1,33.52-2.65,63.42,63.42,0,0,1,42.72,30.23,59.3,59.3,0,0,1,6.81,17,45.46,45.46,0,0,1,1.18,6.56,29.89,29.89,0,0,1,.38,4.86c0,1.21,0,2.2,0,3A3.31,3.31,0,0,1,1893.73,1617.78Z"/><path class="ad" d="M1893.69,1987.83c-.22,0-.2-1.71-1-4.59a19.25,19.25,0,0,0-7.06-10.09,18.3,18.3,0,1,0,0,29.36,19.17,19.17,0,0,0,7.06-10.08c.83-2.88.81-4.61,1-4.6.07,0,.13.43.16,1.24a14.43,14.43,0,0,1-.34,3.57,19.22,19.22,0,0,1-7,11.13,20,20,0,0,1-19,3.12,20.22,20.22,0,0,1,0-38.11,20,20,0,0,1,19,3.12,19.24,19.24,0,0,1,7,11.13,14.4,14.4,0,0,1,.34,3.56C1893.82,1987.41,1893.76,1987.83,1893.69,1987.83Z"/><path class="ad" d="M1860.28,1494.21c-.21,0-.19-1.72-1-4.6a19.23,19.23,0,0,0-7.06-10.08,18.29,18.29,0,1,0,0,29.35,19.23,19.23,0,0,0,7.06-10.08c.83-2.88.81-4.6,1-4.59s.13.42.17,1.24a14.51,14.51,0,0,1-.35,3.56,19.17,19.17,0,0,1-6.94,11.13,20,20,0,0,1-19,3.12,20.21,20.21,0,0,1,0-38.11,20,20,0,0,1,19,3.12,19.17,19.17,0,0,1,6.94,11.13,14.51,14.51,0,0,1,.35,3.56C1860.41,1493.78,1860.36,1494.21,1860.28,1494.21Z"/><path class="ad" d="M1923.07,1895.53a13.21,13.21,0,0,1-.4-1.82c-.24-1.33-.54-3-.92-5.14-.79-4.65-1.9-11.14-3.29-19.29-2.74-16.67-6.61-40.13-11.23-68.2l1.1.8-94.57,15c-.21.27,1.75-2.41.92-1.26v.17l0,.21.07.4.13.81.25,1.62.51,3.23c.33,2.15.67,4.29,1,6.42q1,6.38,2,12.65c1.3,8.34,2.58,16.51,3.82,24.46,2.46,15.88,4.78,30.87,6.91,44.64l-1.11-.8,68.36-10.26,19.37-2.79,5.17-.7a14.68,14.68,0,0,1,1.86-.19,8.31,8.31,0,0,1-1.62.37l-5,.89-19.07,3.26-68.81,11.32-1,.16-.15-1c-2.2-13.76-4.59-28.74-7.13-44.61-1.26-7.94-2.56-16.11-3.88-24.45q-1-6.26-2-12.65c-.33-2.13-.67-4.26-1-6.41l-.51-3.23-.25-1.62-.13-.81-.06-.41,0-.2,0-.1V1816c-.83,1.14,1.12-1.57.93-1.29L1908,1800l1-.15.15,1,10.35,69c1.17,8.1,2.09,14.53,2.76,19.15.28,2.06.5,3.71.67,5A8.83,8.83,0,0,1,1923.07,1895.53Z"/><path class="ad" d="M2038.67,1648.07a20.38,20.38,0,0,1,1.1-1.89c.82-1.3,1.9-3,3.25-5.19l12.36-19.44c10.73-16.68,25.89-40.27,44-68.52l.28,1.33c-27.53-17.87-60-38.94-94.58-61.43-.35.06,2.91-.61,1.52-.31l0,0,0,0-.07.11-.13.2-.26.4-.53.81-1,1.62-2.1,3.23-4.18,6.4q-4.15,6.39-8.24,12.64l-15.94,24.41L1945,1587l-.28-1.33,68,44.87,19.15,12.78,5.08,3.44a17.14,17.14,0,0,1,1.76,1.28,13.1,13.1,0,0,1-1.7-1l-5-3.15-19.25-12.24-69-44.39-.82-.52.53-.81,29-44.65,15.89-24.44,8.22-12.64,4.18-6.41,2.1-3.23,1-1.61.53-.81.26-.41.13-.2.07-.1,0,0,0,0c-1.38.28,1.89-.42,1.56-.34l94.42,61.69.82.53-.53.8-45.21,68.51-12.66,19-3.34,4.92A12.24,12.24,0,0,1,2038.67,1648.07Z"/><path class="ad" d="M1974.8,1936.58a5.41,5.41,0,0,1-.37.73l-1.08,2-4.19,7.5-15.58,27.73c-13.18,23.41-32.34,56.74-54.68,95.64l-.92-1.58,76.81-.06,76.83.06-.91,1.58c-22.35-38.9-41.51-72.23-54.68-95.65l-15.58-27.72-4.19-7.5-1.09-2a7.43,7.43,0,0,1-.37-.73c0-.06.5.74,1.47,2.35s2.47,4.15,4.28,7.17l16.21,27.34c14,23.69,33.27,56.89,55.78,95.67l.91,1.58h-1.83l-76.83.06-76.81-.06h-1.82l.91-1.58c22.5-38.78,41.75-72,55.78-95.67l16.21-27.34,4.28-7.17C1974.3,1937.32,1974.8,1936.52,1974.8,1936.58Z"/><path class="ad" d="M1913.88,1691.46a17.93,17.93,0,0,1,.56,1.71l1.37,4.68c1.24,4.26,2.91,10,5,17.15,4.16,14.35,9.82,35.19,16.43,59.5l-1.76-.48,30.44-30.53,30.55-30.45.47,1.76c-24.31-6.62-45.15-12.28-59.5-16.43l-17.15-5-4.68-1.38a16.56,16.56,0,0,1-1.71-.55,8.43,8.43,0,0,1,1.46.29l4.51,1.09,17.32,4.25c15.15,3.76,36,9.26,60.29,15.68l1.77.46-1.3,1.3-30.45,30.54L1937,1775.51l-1.3,1.29-.46-1.76c-6.42-24.33-11.92-45.14-15.67-60.29l-4.26-17.32c-.43-1.81-.79-3.29-1.08-4.51A8.09,8.09,0,0,1,1913.88,1691.46Z"/></g><path class="ae" d="M964.22,3029.18l-569.6-2.63A124.07,124.07,0,0,1,271.12,2902l6-1428A124.09,124.09,0,0,1,401.8,1350.4L971.4,1353a124.08,124.08,0,0,1,123.5,124.6l-6,1428A124.07,124.07,0,0,1,964.22,3029.18Z"/><path class="af" d="M970.59,1402.32l-110.44-.51c-14.8-.07-26.87,12.43-26.93,27.91l-.09,20c-.06,15.48-12.12,28-26.93,27.91l-215.26-1c-14.81-.06-26.77-12.67-26.7-28.15l.08-20c.07-15.48-11.89-28.09-26.7-28.15l-38.84-.18-96.65-.45a86.89,86.89,0,0,0-87.3,86.53l-5.89,1393.83a86.9,86.9,0,0,0,86.49,87.27l568.47,2.62a86.89,86.89,0,0,0,87.29-86.53l5.89-1393.83A86.89,86.89,0,0,0,970.59,1402.32Z"/><rect class="i" x="371.59" y="1756.77" width="624" height="754.61"/><path class="i" d="M983,1539.5c0,.29-5.39.55-14.26.75s-21.21.33-35.1.36h-1l-.13-.95c-.26-1.86-.54-3.83-.82-5.82-2.39-17.06-4.36-32.32-5.48-42.2l.7.61c-8-.19-12.7-.44-12.7-.7s4.69-.52,12.7-.71l.59,0,.11.63c1.62,9.81,3.91,25,6.29,42.08.28,2,.55,4,.81,5.82l-1.1-1c13.89,0,26.23.17,35.1.36S983,1539.21,983,1539.5Z"/><path class="i" d="M932.23,1529.28c0-.13,1.33-.25,3.8-.37l10.56-.31c9-.19,21.72-.33,36.43-.39l-1,.88c1.07-6.15,2.23-12.77,3.42-19.63.63-3.53,1.25-7,1.83-10.3l1.09,1.29c-17.07,0-32.14-.17-42.94-.37l-12.71-.33c-3-.13-4.61-.26-4.61-.4s1.63-.28,4.61-.4l12.71-.33c10.8-.2,25.87-.34,42.94-.38h1.32l-.23,1.3-1.81,10.31c-1.23,6.85-2.41,13.46-3.51,19.61l-.16.89H983c-14.71-.07-27.41-.21-36.43-.4l-10.56-.31A16.05,16.05,0,0,1,932.23,1529.28Z"/><path class="i" d="M946,1552.9c-.35.07-.38-1.93-2.43-3.29a4.21,4.21,0,0,0-3.84-.38,3.95,3.95,0,0,0,0,7.34,4.21,4.21,0,0,0,3.84-.37c2-1.37,2.08-3.37,2.43-3.3.13,0,.33.45.26,1.31a4.89,4.89,0,0,1-1.73,3.24,5.65,5.65,0,0,1-5.5,1,5.91,5.91,0,0,1,0-11.2,5.67,5.67,0,0,1,5.5,1,4.91,4.91,0,0,1,1.73,3.24C946.33,1552.46,946.13,1552.91,946,1552.9Z"/><path class="i" d="M977.77,1552.9c-.35.07-.38-1.93-2.43-3.29a4.21,4.21,0,0,0-3.84-.38,3.95,3.95,0,0,0,0,7.34,4.21,4.21,0,0,0,3.84-.37c2-1.37,2.08-3.37,2.43-3.3.14,0,.33.45.27,1.31a5,5,0,0,1-1.74,3.24,5.65,5.65,0,0,1-5.5,1,5.91,5.91,0,0,1,0-11.2,5.67,5.67,0,0,1,5.5,1,5,5,0,0,1,1.74,3.24C978.1,1552.46,977.91,1552.91,977.77,1552.9Z"/><path class="i" d="M476.54,1544.72c0,.61-19,1.11-42.49,1.11s-42.49-.5-42.49-1.11,19-1.12,42.49-1.12S476.54,1544.1,476.54,1544.72Z"/><path class="i" d="M476.54,1528.67c0,.62-19,1.11-42.49,1.11s-42.49-.49-42.49-1.11,19-1.12,42.49-1.12S476.54,1528.05,476.54,1528.67Z"/><path class="i" d="M476.54,1512.62c0,.62-19,1.12-42.49,1.12s-42.49-.5-42.49-1.12,19-1.12,42.49-1.12S476.54,1512,476.54,1512.62Z"/><path class="i" d="M850.85,1697.59c0,.62-72.43,1.12-161.75,1.12s-161.76-.5-161.76-1.12,72.41-1.11,161.76-1.11S850.85,1697,850.85,1697.59Z"/><path class="i" d="M855.47,2527.37c0,.62-72.42,1.12-161.74,1.12S532,2528,532,2527.37s72.41-1.11,161.77-1.11S855.47,2526.76,855.47,2527.37Z"/><circle class="f" cx="371.59" cy="1998.84" r="38.1" transform="translate(-1660.96 2045.45) rotate(-80.78)"/><path class="ad" d="M381.22,1977.46a12.08,12.08,0,0,1-2.1,1.88c-1.4,1.15-3.46,2.77-6,4.75-5.11,4-12.22,9.37-20.12,15.27,0-2.1,0-.57,0-1h0l.05,0,.09.07.18.14.37.27.74.55,1.45,1.09,2.84,2.13c1.84,1.4,3.63,2.75,5.35,4l9,6.91c2.55,2,4.61,3.61,6,4.75a11.83,11.83,0,0,1,2.1,1.89,11.81,11.81,0,0,1-2.41-1.48l-6.26-4.41-9.18-6.68-5.4-4-2.84-2.11-1.46-1.09-.73-.54-.37-.28-.19-.14-.09-.07-.05,0,0,0h0c0-.47,0,1.05,0-1.06,7.9-5.9,15.1-11.19,20.35-15l6.26-4.42A11.4,11.4,0,0,1,381.22,1977.46Z"/><circle class="f" cx="995.59" cy="1998.84" r="38.1" transform="translate(-689.14 533.15) rotate(-22.5)"/><path class="ad" d="M986,2020.22a11.83,11.83,0,0,1,2.1-1.89c1.4-1.14,3.45-2.77,6-4.75,5.1-4,12.22-9.37,20.12-15.27a8.77,8.77,0,1,1,0,1h0l0,0,0,0-.09-.07-.19-.14-.37-.28-.73-.55-1.45-1.08-2.84-2.13-5.35-4-9-6.91c-2.56-2-4.61-3.6-6-4.75a12.08,12.08,0,0,1-2.1-1.88,11.23,11.23,0,0,1,2.4,1.47l6.26,4.42,9.19,6.68,5.39,4,2.85,2.12,1.46,1.08.73.55.37.28.18.13.1.07,0,0h0c0,.48,0-1,0,1.07-7.91,5.9-15.11,11.18-20.36,15l-6.26,4.41A11.62,11.62,0,0,1,986,2020.22Z"/><rect class="i" x="371.59" y="2557.26" width="624" height="51.99"/><rect class="i" x="371.59" y="2629.45" width="375.3" height="55.93"/><g class="ag"><path class="ah" d="M615.3,1845.94s-57-.77-69.58,17.88-64.48,134.69-64.48,134.69l80.88,42.14,17.43-49.77,28.37,104c-32.49,25.82-78.53,259.93-69.38,358.56l303.87,1s2.09-273.67-80.09-363.67l19.28-108.69,18.53,53L886,1999.53l-64.56-116.07a62.46,62.46,0,0,0-54.25-32.1l-21.06-.11s-8.89,77.69-65.35,76.18S615.3,1845.94,615.3,1845.94Z"/><path class="ad" d="M907.59,2215a6.62,6.62,0,0,1-.19-1.38c-.08-1-.18-2.35-.31-4a42.14,42.14,0,0,0-.77-6.5,62.52,62.52,0,0,0-1.81-8.75,81.28,81.28,0,0,0-9.48-22.44,84.74,84.74,0,0,0-56.95-39.51c-13.78-2.36-29.33-1.92-44.14,3.71a79.4,79.4,0,0,0-21.24,11.45,95.4,95.4,0,0,0-9.51,8.1,94,94,0,0,0-8.22,9.74c-10.33,13.73-16.16,31.4-16.32,49.59a89.92,89.92,0,0,0,4.32,26.49,81.21,81.21,0,0,0,12,23.13,76.66,76.66,0,0,0,17.74,17.84,79,79,0,0,0,21.24,11.45c14.81,5.63,30.36,6.07,44.15,3.72A84.74,84.74,0,0,0,895,2258.07a81.28,81.28,0,0,0,9.48-22.44,62.7,62.7,0,0,0,1.81-8.74,42.25,42.25,0,0,0,.77-6.51c.13-1.67.23-3,.31-4a6.42,6.42,0,0,1,.19-1.37,7.18,7.18,0,0,1,0,1.38c0,1,0,2.37-.09,4A39.82,39.82,0,0,1,907,2227a60.3,60.3,0,0,1-1.63,8.86,80.43,80.43,0,0,1-9.24,22.87,85.67,85.67,0,0,1-57.68,40.7c-14.08,2.49-30,2.11-45.19-3.61a80.89,80.89,0,0,1-21.81-11.66,78.73,78.73,0,0,1-18.23-18.26,83.32,83.32,0,0,1-12.34-23.73,91.94,91.94,0,0,1-4.45-27.19c.17-18.67,6.17-36.82,16.79-50.89a97.83,97.83,0,0,1,8.46-10,94.17,94.17,0,0,1,9.78-8.28,80.72,80.72,0,0,1,21.8-11.67c15.2-5.71,31.11-6.09,45.18-3.6a85.62,85.62,0,0,1,57.68,40.69,80.19,80.19,0,0,1,9.25,22.87A60.54,60.54,0,0,1,907,2203a39.91,39.91,0,0,1,.56,6.57c0,1.69.07,3,.09,4.06A7.26,7.26,0,0,1,907.59,2215Z"/><path class="ad" d="M639.84,2024c-.35,0,0-5.6-2.39-15.24a62.58,62.58,0,0,0-22.91-34.08A61.85,61.85,0,0,0,556,1966a62,62,0,0,0-28.67,21.56,61.48,61.48,0,0,0,0,73A61.85,61.85,0,0,0,556,2082.08a62.32,62.32,0,0,0,81.51-42.82c2.43-9.63,2-15.26,2.38-15.23a3.31,3.31,0,0,1,.06,1c0,.81,0,1.79,0,3a27.79,27.79,0,0,1-.38,4.86,45.82,45.82,0,0,1-1.18,6.57,59.31,59.31,0,0,1-6.8,16.95,63.41,63.41,0,0,1-42.73,30.23,63.74,63.74,0,0,1-33.52-2.65,63.79,63.79,0,0,1-29.73-22.2,63.48,63.48,0,0,1,0-75.57,63.86,63.86,0,0,1,29.73-22.19,63.74,63.74,0,0,1,33.52-2.65,63.42,63.42,0,0,1,42.73,30.22,59.47,59.47,0,0,1,6.8,17,45.82,45.82,0,0,1,1.18,6.57,27.79,27.79,0,0,1,.38,4.86c0,1.21,0,2.19,0,3A3.31,3.31,0,0,1,639.84,2024Z"/><path class="ad" d="M639.8,2394.08c-.22,0-.2-1.72-1-4.6a19.15,19.15,0,0,0-7.06-10.08,18.3,18.3,0,1,0,0,29.36,19.16,19.16,0,0,0,7-10.09c.83-2.88.81-4.6,1-4.59s.13.42.16,1.24a14.47,14.47,0,0,1-.34,3.57,19.2,19.2,0,0,1-7,11.12,20,20,0,0,1-19,3.12,20.21,20.21,0,0,1,0-38.1,20,20,0,0,1,19,3.11,19.22,19.22,0,0,1,7,11.13,14.43,14.43,0,0,1,.34,3.57C639.93,2393.66,639.88,2394.08,639.8,2394.08Z"/><path class="ad" d="M606.4,1900.45c-.22,0-.2-1.71-1-4.59a19.25,19.25,0,0,0-7.06-10.09,18.3,18.3,0,1,0,0,29.36,19.26,19.26,0,0,0,7.06-10.08c.83-2.88.81-4.61,1-4.6s.13.42.16,1.24a14.54,14.54,0,0,1-.35,3.57,19.15,19.15,0,0,1-6.94,11.12,19.94,19.94,0,0,1-19,3.12,20.21,20.21,0,0,1,0-38.1,20,20,0,0,1,19,3.12,19.15,19.15,0,0,1,6.94,11.12,14.58,14.58,0,0,1,.35,3.57C606.53,1900,606.47,1900.45,606.4,1900.45Z"/><path class="ad" d="M669.18,2301.78a15.29,15.29,0,0,1-.4-1.83c-.23-1.32-.54-3-.92-5.14-.79-4.65-1.9-11.13-3.29-19.28-2.74-16.67-6.61-40.13-11.23-68.21l1.11.81-94.58,15c-.21.28,1.76-2.41.93-1.26v.18l0,.2.06.41.13.81.25,1.62.51,3.23c.34,2.15.67,4.28,1,6.41.66,4.26,1.33,8.48,2,12.65,1.3,8.35,2.58,16.52,3.82,24.46,2.46,15.88,4.78,30.88,6.91,44.64l-1.1-.8,68.35-10.26,19.37-2.79,5.17-.7a13.34,13.34,0,0,1,1.86-.18,9,9,0,0,1-1.61.36l-5,.9-19.07,3.25-68.81,11.33-1,.16-.16-1c-2.2-13.76-4.59-28.75-7.13-44.61q-1.89-11.92-3.88-24.45-1-6.27-2-12.65-.51-3.2-1-6.42l-.51-3.22-.26-1.62-.13-.81-.06-.41,0-.2,0-.1v-.08c-.83,1.13,1.13-1.57.94-1.29l94.62-14.74,1-.15.14.95,10.35,69c1.17,8.09,2.1,14.53,2.76,19.15.28,2.05.5,3.7.67,5A8.83,8.83,0,0,1,669.18,2301.78Z"/><path class="ad" d="M784.79,2054.31a18,18,0,0,1,1.09-1.88l3.26-5.2,12.35-19.43,44-68.52.28,1.33-94.58-61.43c-.35.06,2.91-.61,1.52-.32v0l0,0-.06.1-.14.2-.26.41-.53.81-1.05,1.62-2.1,3.22-4.18,6.41-8.24,12.63-15.93,24.42-29.14,44.52-.28-1.34,68,44.88L778,2049.59,783,2053a19.54,19.54,0,0,1,1.77,1.27,10.76,10.76,0,0,1-1.71-1l-5-3.15L758.79,2038l-69-44.39-.81-.52.53-.82,28.94-44.64q7.74-11.91,15.89-24.45,4.07-6.26,8.22-12.64,2.09-3.18,4.18-6.41l2.1-3.22,1.05-1.62.53-.81.26-.4.14-.21.06-.1,0,0,0,0c-1.37.28,1.89-.42,1.57-.34L846.88,1959l.81.53-.53.81L802,2028.83l-12.66,19c-1.4,2.05-2.5,3.68-3.34,4.92A12.24,12.24,0,0,1,784.79,2054.31Z"/><path class="ad" d="M720.92,2342.82a6.88,6.88,0,0,1-.37.74l-1.09,2-4.19,7.51-15.58,27.72c-13.18,23.42-32.34,56.75-54.68,95.65l-.91-1.58,76.81-.06,76.83.06-.92,1.58c-22.34-38.91-41.5-72.24-54.68-95.65L726.56,2353l-4.19-7.5c-.43-.78-.79-1.43-1.08-2a5.14,5.14,0,0,1-.37-.74c0-.06.5.75,1.46,2.36,1,1.76,2.48,4.14,4.28,7.17l16.21,27.33c14,23.7,33.27,56.89,55.78,95.68l.91,1.57h-1.82l-76.83.07-76.81-.07h-1.83l.91-1.57c22.5-38.78,41.75-72,55.78-95.67l16.21-27.34,4.28-7.17C720.42,2343.57,720.92,2342.76,720.92,2342.82Z"/><path class="ad" d="M660,2097.71a14.33,14.33,0,0,1,.56,1.7c.37,1.27.82,2.81,1.38,4.68,1.23,4.26,2.91,10,5,17.16,4.15,14.34,9.81,35.19,16.42,59.49l-1.76-.47L712,2149.74l30.54-30.46L743,2121c-24.31-6.61-45.15-12.27-59.5-16.42l-17.15-5-4.68-1.38a17.68,17.68,0,0,1-1.71-.55,7.41,7.41,0,0,1,1.47.29l4.5,1.08,17.32,4.26c15.15,3.75,36,9.25,60.29,15.67l1.77.47-1.29,1.29-30.46,30.54-30.53,30.45-1.3,1.29-.46-1.76c-6.42-24.33-11.92-45.14-15.67-60.29l-4.26-17.33c-.43-1.8-.79-3.28-1.08-4.5A8.49,8.49,0,0,1,660,2097.71Z"/></g><rect class="i" x="476.54" y="1600.11" width="409.41" height="72.08"/><path class="f" d="M830.89,2669.71a6.49,6.49,0,0,0-1.38-4.39,13,13,0,0,0-4.85-3c-2.31-.94-4.45-1.9-6.41-2.86a22.18,22.18,0,0,1-5.06-3.37,13.23,13.23,0,0,1-3.26-4.42,14.88,14.88,0,0,1-1.13-6.09,13.08,13.08,0,0,1,4-9.86,17.34,17.34,0,0,1,10.76-4.51v-7.47h5.63v7.61a15.76,15.76,0,0,1,10.17,5.33,16.54,16.54,0,0,1,3.7,11.09h-12a9.6,9.6,0,0,0-1.42-5.66,4.66,4.66,0,0,0-4-2,4.57,4.57,0,0,0-3.63,1.47,5.93,5.93,0,0,0-1.29,4,5.74,5.74,0,0,0,1.48,4.16,14.6,14.6,0,0,0,4.78,2.94q3.3,1.4,6.21,2.9a23.51,23.51,0,0,1,5,3.42,14,14,0,0,1,3.33,4.46,14.27,14.27,0,0,1,1.2,6.12,13.34,13.34,0,0,1-3.84,9.88q-3.84,3.83-10.46,4.46v7.11h-5.63v-7.15q-7.71-.81-11.84-5.29t-4.12-11.81h11.92a9.28,9.28,0,0,0,1.79,6.15,6.31,6.31,0,0,0,5.08,2.1,5,5,0,0,0,3.79-1.43A5.46,5.46,0,0,0,830.89,2669.71Z"/><path class="f" d="M885.09,2683.38h-36v-7.79l16.57-17.42q6.12-7,6.12-11.08a7.69,7.69,0,0,0-1.45-5.06,5.17,5.17,0,0,0-4.21-1.74,5.28,5.28,0,0,0-4.43,2.32,9.57,9.57,0,0,0-1.7,5.79h-12a16.94,16.94,0,0,1,2.37-8.76,16.61,16.61,0,0,1,6.59-6.28,19.52,19.52,0,0,1,9.41-2.27q8.36,0,12.87,3.86t4.51,11.08a16,16,0,0,1-1.13,5.93,25.92,25.92,0,0,1-3.52,6.05,88.58,88.58,0,0,1-7.7,8.48l-6.66,7.68h20.29Z"/><path class="f" d="M926.89,2662.31q0,10.46-4.69,16.11T909,2684.08q-8.6,0-13.31-5.7T891,2662.31v-9.41q0-10.44,4.69-16.11t13.26-5.66q8.57,0,13.28,5.7t4.7,16.1ZM915,2651.37q0-5.55-1.46-8.3a4.84,4.84,0,0,0-4.6-2.74,4.75,4.75,0,0,0-4.48,2.55q-1.39,2.55-1.5,7.72v13.16q0,5.77,1.45,8.45a4.87,4.87,0,0,0,4.6,2.67,4.82,4.82,0,0,0,4.5-2.6c1-1.74,1.46-4.46,1.49-8.16Z"/><path class="f" d="M940.67,2671.8a6.79,6.79,0,0,1,4.7,1.68,5.86,5.86,0,0,1,0,8.6,7.41,7.41,0,0,1-9.43,0,5.87,5.87,0,0,1,0-8.57A6.74,6.74,0,0,1,940.67,2671.8Z"/><path class="f" d="M978.51,2663.45a12.61,12.61,0,0,1-8.64,3.47,14,14,0,0,1-11.12-4.75q-4.1-4.74-4.1-12.67a19.09,19.09,0,0,1,2.3-9.21,17.24,17.24,0,0,1,6.46-6.72,17.62,17.62,0,0,1,9.19-2.48,17,17,0,0,1,15.64,9.82,24.78,24.78,0,0,1,2.37,10.82v4.57a31,31,0,0,1-3.34,14.79,23.07,23.07,0,0,1-9.54,9.63,29.84,29.84,0,0,1-14.44,3.36h-.75v-9.55l2.27,0Q977.13,2673.89,978.51,2663.45Zm-5.42-5.14a5.8,5.8,0,0,0,5.59-3.36v-5q0-4.95-1.66-7.32a5.23,5.23,0,0,0-4.5-2.38q-2.5,0-4.21,2.7a12,12,0,0,0-1.7,6.51,10.67,10.67,0,0,0,1.74,6.42A5.53,5.53,0,0,0,973.09,2658.31Z"/><path class="h" d="M397.41,2709.08v123.45H526.26V2709.08Zm125.51,118.2H400.41v-113H522.92Z"/><polygon class="i" points="428.79 2812.65 497.14 2812.65 480.06 2745.85 465.86 2782.65 452.09 2764.92 428.79 2812.65"/><circle class="i" cx="436.04" cy="2752.95" r="13.22"/><path class="h" d="M543.45,2709.08v123.45H672.3V2709.08ZM669,2827.28H546.44v-113H669Z"/><polygon class="i" points="574.82 2812.65 643.18 2812.65 626.09 2745.85 611.89 2782.65 598.12 2764.92 574.82 2812.65"/><circle class="i" cx="582.07" cy="2752.95" r="13.22"/><path class="h" d="M693.62,2709.08v123.45H822.47V2709.08Zm125.5,118.2H696.62v-113h122.5Z"/><polygon class="i" points="725 2812.65 793.35 2812.65 776.26 2745.85 762.07 2782.65 748.3 2764.92 725 2812.65"/><circle class="i" cx="732.25" cy="2752.95" r="13.22"/><path class="h" d="M846.19,2709.08v123.45H975V2709.08Zm125.5,118.2H849.19v-113h122.5Z"/><polygon class="i" points="877.57 2812.65 945.92 2812.65 928.83 2745.85 914.64 2782.65 900.87 2764.92 877.57 2812.65"/><circle class="i" cx="884.82" cy="2752.95" r="13.22"/><path class="ai" d="M308.94,2857.82H1051.3s16.74,94-76.26,111.46l-579.61-2S298.22,2963.46,308.94,2857.82Z"/><path class="i" d="M681,2857.82s-5.06,63.28,0,110.47C681,2968.29,685.48,2894.55,681,2857.82Z"/><path class="i" d="M458.6,2928.8v-30.92h11.11c4,0,7,.72,9.08,2.18a8.07,8.07,0,0,1,2,10.45,6.39,6.39,0,0,1-3.25,2.51,6.48,6.48,0,0,1,3.72,2.38,7,7,0,0,1,1.3,4.25q0,4.54-2.88,6.82c-1.92,1.53-4.76,2.3-8.53,2.33Zm7.45-18h3.89a5.55,5.55,0,0,0,3.48-.9,3.15,3.15,0,0,0,1-2.58,3.34,3.34,0,0,0-1.12-2.82,6.06,6.06,0,0,0-3.63-.86h-3.66Zm0,4.88v7.42h4.89a4.63,4.63,0,0,0,3.1-.93,3.22,3.22,0,0,0,1.08-2.6c0-2.58-1.28-3.87-3.84-3.89Z"/><path class="i" d="M510.91,2897.88v20.24a11.66,11.66,0,0,1-1.46,6,9.52,9.52,0,0,1-4.21,3.84,14.81,14.81,0,0,1-6.48,1.32q-5.64,0-8.9-2.94a10.45,10.45,0,0,1-3.31-8v-20.39h7.5v20.53q.12,5.09,4.71,5.08a4.57,4.57,0,0,0,3.51-1.27,6,6,0,0,0,1.19-4.15v-20.19Z"/><path class="i" d="M526.88,2911.3l5.7-13.42h8l-10,19.81v11.11H523.1v-11.11l-9.94-19.81h8Z"/><path class="i" d="M756.29,2920.34h-8.93l-1.56,5h-7l9.92-27h6.12l10,27h-7Zm-7.37-5h5.81l-2.91-9.38Z"/><path class="i" d="M766.84,2925.39v-27h8.7A12.87,12.87,0,0,1,782,2900a11.4,11.4,0,0,1,4.46,4.59,13.9,13.9,0,0,1,1.63,6.63v1.25a14,14,0,0,1-1.57,6.65,11.47,11.47,0,0,1-4.42,4.61,12.48,12.48,0,0,1-6.36,1.68Zm6.51-22v17h2.27a5.09,5.09,0,0,0,4.31-2,9.8,9.8,0,0,0,1.5-5.93v-1.17a9.7,9.7,0,0,0-1.5-5.9,5.17,5.17,0,0,0-4.39-2Z"/><path class="i" d="M791.42,2925.39v-27h8.7a12.87,12.87,0,0,1,6.45,1.62,11.4,11.4,0,0,1,4.46,4.59,13.9,13.9,0,0,1,1.63,6.63v1.25a14,14,0,0,1-1.57,6.65,11.47,11.47,0,0,1-4.42,4.61,12.48,12.48,0,0,1-6.36,1.68Zm6.51-22v17h2.27a5.09,5.09,0,0,0,4.31-2,9.8,9.8,0,0,0,1.5-5.93v-1.17a9.7,9.7,0,0,0-1.5-5.9,5.17,5.17,0,0,0-4.39-2Z"/><path class="i" d="M845.57,2903.39h-8.11v22h-6.52v-22h-8v-5h22.59Z"/><path class="i" d="M870.69,2912.43a15.9,15.9,0,0,1-1.47,7,10.89,10.89,0,0,1-4.17,4.69,11.64,11.64,0,0,1-6.15,1.64,11.77,11.77,0,0,1-6.13-1.59,10.78,10.78,0,0,1-4.16-4.54,15.42,15.42,0,0,1-1.57-6.77v-1.53a16,16,0,0,1,1.45-7,10.85,10.85,0,0,1,4.18-4.69,12.39,12.39,0,0,1,12.32,0,11,11,0,0,1,4.18,4.65,15.48,15.48,0,0,1,1.52,6.92Zm-6.63-1.13a11.33,11.33,0,0,0-1.35-6.12,4.31,4.31,0,0,0-3.85-2.09q-4.9,0-5.18,7.35l0,2a11.7,11.7,0,0,0,1.32,6.11,4.32,4.32,0,0,0,3.92,2.13,4.24,4.24,0,0,0,3.8-2.1,11.21,11.21,0,0,0,1.36-6Z"/><path class="i" d="M905.39,2916.24a9.87,9.87,0,0,1-1.53,5,9.18,9.18,0,0,1-3.91,3.35,13.29,13.29,0,0,1-5.74,1.19,10.62,10.62,0,0,1-8.39-3.47q-3.06-3.48-3.06-9.8v-1.34a16.36,16.36,0,0,1,1.38-7,10.51,10.51,0,0,1,4-4.61,11.14,11.14,0,0,1,6-1.62,11.62,11.62,0,0,1,7.9,2.59,10.17,10.17,0,0,1,3.4,7.14h-6.5a4.85,4.85,0,0,0-1.24-3.55,5.1,5.1,0,0,0-3.56-1.08,3.9,3.9,0,0,0-3.57,1.82,11.8,11.8,0,0,0-1.19,5.81v1.92q0,4.32,1.09,6.18a4,4,0,0,0,3.74,1.85,5,5,0,0,0,3.43-1.05,4.48,4.48,0,0,0,1.27-3.36Z"/><path class="i" d="M923.82,2920.34h-8.93l-1.56,5h-7l9.91-27h6.13l10,27h-7Zm-7.37-5h5.81l-2.91-9.38Z"/><path class="i" d="M944.41,2915.83h-3.53v9.56h-6.51v-27H945c3.21,0,5.71.71,7.52,2.13a7.22,7.22,0,0,1,2.71,6,8.78,8.78,0,0,1-1.14,4.67,8.1,8.1,0,0,1-3.57,3l5.64,10.91v.28h-7Zm-3.53-5H945a3.72,3.72,0,0,0,2.8-1,4.47,4.47,0,0,0,0-5.47,3.65,3.65,0,0,0-2.79-1h-4.12Z"/><path class="i" d="M979.46,2903.39h-8.11v22h-6.52v-22h-8v-5h22.6Z"/><path class="aj" d="M1240.46,2070.14s-40,43-55.61-34.36-171.73-90.7-133.41,46.78,126.44,3.75,101.79,102.5c0,0,43.13.92,38.56-40.29s-52.82-29.23-39.22-48.82,79,44.5,92.71-3S1240.46,2070.14,1240.46,2070.14Z"/><circle class="ak" cx="1307.69" cy="2082.94" r="90.14"/><path class="al" d="M1452.84,2643.83l5.75,16.51a11.57,11.57,0,0,0,3,4.61l46.5,44a40.86,40.86,0,0,1,12.58,32.73l-5.63,48.54c-1.3,11.17-16.07,13-20.48,2.56-19.83-47.05-52-122.11-58.21-128.87-4.94-5.38-5.1-12.9-4.2-18.67a10.49,10.49,0,0,1,9.51-9h0A11.12,11.12,0,0,1,1452.84,2643.83Z"/><path class="am" d="M1499.72,2736.46s-148.87-240.95-98-418.42c0,0-67.44-34.89-90.85-17.44,1.19,6.62-4.32,23.61-1.78,36,0,0,5.75,68.89,24.84,128.17,17.62,54.75,60.42,150.33,132.06,262.37Z"/><path class="an" d="M983.91,3501.29,979,3541.35c-5.08,19.05-29.59,67-61,63.9-19.36-1.92-21.69-58.48-19-67,4.92-15.46,13.91-38.68,26.88-52.34h44.44A13.68,13.68,0,0,1,983.91,3501.29Z"/><path class="ao" d="M1332,3032l7.5,44.12s-25.12,254.45-29.59,356.23a79.79,79.79,0,0,0,11.8,45.33l43.68,70.93-111-65.5-2.21-13.55,18.17-25-23.8-285.05a87.49,87.49,0,0,1,10-48.37l23-43.14Z"/><path class="ap" d="M1372.71,3558.86h-35.42a21.31,21.31,0,0,1-16.93-8.3c-11-14.35-33.93-42.35-44.87-43.08-14.73-1-12.84,51.38-12.84,51.38h-8.26l-10.46-65.07a38.52,38.52,0,0,1,20.21-40.26h0s3.37,24.9,21.63,35.92,74.29,50.45,74.29,50.45a50.86,50.86,0,0,1,14.4.39C1385.63,3542.31,1384.07,3558.86,1372.71,3558.86Z"/><path class="aq" d="M1180,3052.92s-147.17,279.16-170.56,342.9-31.59,116.9-31.9,121.94c-.5,7.86-10.28,15.41-37.25,15.41-13.92,0-20.74-5.58-24.08-11a15.72,15.72,0,0,1-.6-15.23c8.52-17.23,35.53-72.29,45.54-97.26,11.94-29.81,37.64-164.92,51.73-211.9s30-97.94,91.39-144.88C1104.23,3052.92,1146.36,3011.66,1180,3052.92Z"/><path class="ar" d="M1272.92,2595.51c21.36-90.48.27-158.86-22.27-201.36-18-33.92-6.23-76.74,27.81-94.47,34.6-18,69.56-29.82,89.84-35.88a34.7,34.7,0,0,1,32.19,6.64c28.47,23.75,88,79.77,78.45,126-7.34,35.38-74.16,211.94-74.16,211.94S1343,2637.6,1272.92,2595.51Z"/><path class="as" d="M1317,2152.62l-30.87,138.63c-2.95,12.22,8.18,10.22,20.53,7.89,20.21-3.81,46.27-11.66,55-27.4a14.85,14.85,0,0,0,1.58-5.22l13.26-96.13a17.27,17.27,0,0,0-10.11-18.15l-25.58-11.35A17.27,17.27,0,0,0,1317,2152.62Z"/><path class="at" d="M1380.27,2038.25s78,113.69,29.51,145.37-104.09-49.12-104.09-49.12-17.44-61.75,2.41-82.21S1380.27,2038.25,1380.27,2038.25Z"/><path class="au" d="M1347.53,2010.67s34,8.72,38.44,24.24-48.92,28.83-63.83,29.25l-13.17,62s-34.37-59.24-19.68-92.81S1347.53,2010.67,1347.53,2010.67Z"/><path class="av" d="M1321.39,2126.54s-30.52-36.72-43.37-13.4,27.3,41.77,41.54,30.47Z"/><path class="aw" d="M1588,2424.93c1.45-1.48,2.85-3,4.22-4.42A25,25,0,0,1,1588,2424.93Z"/><path class="ax" d="M1599.49,2412.5l0,.14c-.36.38-.69.73-1,1Z"/><path class="ay" d="M1660.23,2382.87a25.44,25.44,0,0,1,9.87,13.05,19.2,19.2,0,0,1,.78,10.54c-1.48,5.93-6.25,9.17-14.61,14.65-20.21,13.25-20.92,13.64-22.65,14.89l0,0c-8.25,8.34-17.28,17.53-19.07,19.57-.21.24-.42.5-.64.74-.39.44-.79.9-1.17,1.35,0,0,0,0,0,0v0c-77,88.8-137,110.07-187.67,96.44-2.63-.7-5.21-1.49-7.78-2.38-21-7.22-40.4-20.37-58.78-37q-4.79-4.34-9.48-9c-32.37-31.78-61.78-73.3-91.56-110.45a50.5,50.5,0,0,1,23.57-72.09l10.44-4.5a94.06,94.06,0,0,1,17.71.27c13.38,1.52,28.29,6.48,32.17,19.82,15.67,53.92,34,90.78,53.64,114.82q4.62,5.65,9.32,10.38c14.28,14.38,29.12,22.57,44,26.14,50,12,106.46-31.13,139.78-65.35a25,25,0,0,0,4.22-4.42q3.29-3.5,6.17-6.79s0,0,0,0c.3-.3.63-.65,1-1a345.08,345.08,0,0,0,25.14-29.27c6.79-9,13.21-19,17.19-28.84a31.83,31.83,0,0,1-1.73,20.15,79.32,79.32,0,0,1-9.35,17.07c.5-.29,11-6.55,23.33-14.47l4.15-2.7c12.42-8.14,25.67-17.46,31.74-23.82C1689.92,2350.76,1696.66,2357.81,1660.23,2382.87Z"/><path class="az" d="M1598.41,2413.72q-2.9,3.29-6.17,6.79c.91-1.06,2.21-2.57,4.24-4.82C1596.48,2415.69,1597.18,2415,1598.41,2413.72Z"/><path class="ba" d="M1404.78,2608.36s24.33,257.82-3.51,379c0,0-20.53,79.7,6.89,94.23,0,0-302.86,14.52-359.88-35.19,0,0,94.52-67.14,149.08-343.85,14.5-73.54,75.56-107,75.56-107a215.94,215.94,0,0,0,131.86,12.85Z"/><path class="bb" d="M915.57,3507s29.32-20,61.93,10.8l1.2-8.6s-17.23-15.68-60-8.59Z"/><path class="bc" d="M1310.27,3505.48s16.09-14.08,16.55-19.55l4.61,7.48s-11.44,14.47-15.69,15.78C1315.74,3509.19,1310.34,3509.77,1310.27,3505.48Z"/><path class="f" d="M1291.19,2228.75s43.26,20,80.54,8.28c0,0,7.75,7.9,0,15.88,0,0,7.64,7.13-2.76,15.19,0,0-33.94,43.82-90.51,31.58,0,0-18.69-4.65,0-19.15,0,0-20.65-15.88,2.13-26.93C1280.59,2253.6,1265.18,2230.82,1291.19,2228.75Z"/><path class="f" d="M1275.89,2581.67s42.67,29.27,132.35,17.52c0,0,7.89,7-3.46,9.17,0,0,9.59,5.47.87,9.88,0,0-101.39,10.2-132.73-22.73,0,0-5.16-3,1.28-7C1274.2,2588.48,1269.29,2583.15,1275.89,2581.67Z"/><path class="f" d="M1217.18,2076.67s11.31,13.9,5.08,35.2c0,0-1.13,4.42-4.76.76,0,0-4.11,3.71-6.59-.89s1.59-10.12-2.28-30.92c0,0,.48-6.27,4.65-3C1213.28,2077.79,1215,2073.34,1217.18,2076.67Z"/><path class="bd" d="M1411.48,2096.92s20.27,19.44,19.75,22.45-15,8.75-15,8.75Z"/><path class="be" d="M1311.19,2134.55s-15-14.19-20,0c0,0,6.85-7.61,10,0s11.19,15.66,13.32,5.64S1311.19,2134.55,1311.19,2134.55Z"/><path d="M1399.92,2081.61s-13.42-1.43-16.27,17.13C1383.65,2098.74,1387.9,2084.06,1399.92,2081.61Z"/><ellipse cx="1397.24" cy="2090.8" rx="1.52" ry="4.01" transform="translate(-700.28 703.67) rotate(-22.77)"/></svg>