<svg xmlns="http://www.w3.org/2000/svg" width="1212" height="1212" viewBox="0 0 1212 1212" fill="none"><path d="M553.42 1091.31L6.21958 775.39C-2.63042 770.28 -1.52039 761.39 8.68961 755.46L330.05 569.93C338.012 565.331 347.045 562.909 356.24 562.909C365.435 562.909 374.468 565.331 382.43 569.93L912.28 875.84C914.63 877.197 916.583 879.148 917.94 881.499C919.297 883.849 920.012 886.516 920.012 889.23C920.012 891.944 919.297 894.611 917.94 896.961C916.583 899.312 914.63 901.263 912.28 902.62L587.93 1089.88C577.71 1095.78 562.26 1096.42 553.42 1091.31Z" fill="#0C161E"></path><path d="M935.451 756.54L356.211 422.12V14.12C356.211 6.01998 361.141 2.29997 367.211 5.79997L924.451 327.53C930.531 331.03 935.451 340.44 935.451 348.53V756.54Z" fill="#0C161E"></path><path d="M367.731 0.670037L360.471 4.99001C362.331 4.13001 364.671 4.34001 367.211 5.80001L924.461 327.53C930.531 331.03 935.461 340.44 935.461 348.53V756.47L942.601 752.21V344.21C942.601 336.12 937.671 326.71 931.601 323.21L374.351 1.49001C371.851 1.43051e-05 369.571 -0.129963 367.731 0.670037Z" fill="#FA4729"></path><path d="M935.45 756.48L935.4 756.52L935.45 756.55V756.48Z" fill="#0C161E"></path><path d="M935.451 756.54L356.211 422.12V14.12C356.211 6.01998 361.141 2.29997 367.211 5.79997L924.451 327.53C930.531 331.03 935.451 340.44 935.451 348.53V756.54Z" fill="#0C161E"></path><path d="M907.69 346.23L382.16 42.8V405.85L907.69 709.27V346.23Z" fill="#232F3A"></path><path d="M553.42 958.61L6.21958 642.69C-2.63042 637.58 -1.52039 628.69 8.68961 622.76L356.24 422.11L935.48 756.53L587.93 957.18C577.71 963.08 562.26 963.72 553.42 958.61Z" fill="#0C161E"></path><path d="M398.391 452.42L875.731 728.01L880.901 725.05L403.561 449.46L398.391 452.42Z" fill="#FA4729"></path><path d="M245.751 728.43L323.881 683.32C327.881 681.01 333.881 680.76 337.391 682.76L478.331 764.13C481.791 766.13 481.331 769.62 477.331 771.93L399.231 817C395.231 819.31 389.231 819.56 385.721 817.56L244.781 736.19C241.311 734.23 241.751 730.74 245.751 728.43Z" fill="#FFE6E6"></path><path d="M393.1 500.84L371.1 513.53C369.502 514.332 367.738 514.75 365.95 514.75C364.162 514.75 362.398 514.332 360.8 513.53L338.8 500.84C338.251 500.691 337.766 500.366 337.42 499.914C337.074 499.462 336.887 498.909 336.887 498.34C336.887 497.771 337.074 497.218 337.42 496.766C337.766 496.314 338.251 495.989 338.8 495.84L360.8 483.16C362.398 482.358 364.162 481.94 365.95 481.94C367.738 481.94 369.502 482.358 371.1 483.16L393.1 495.84C393.649 495.989 394.134 496.314 394.48 496.766C394.826 497.218 395.013 497.771 395.013 498.34C395.013 498.909 394.826 499.462 394.48 499.914C394.134 500.366 393.649 500.691 393.1 500.84V500.84Z" fill="#232F3A"></path><path d="M436.25 525.75L414.25 538.44C412.652 539.242 410.888 539.66 409.1 539.66C407.312 539.66 405.548 539.242 403.95 538.44L381.95 525.75C381.401 525.601 380.916 525.276 380.57 524.824C380.224 524.372 380.037 523.819 380.037 523.25C380.037 522.681 380.224 522.128 380.57 521.676C380.916 521.224 381.401 520.899 381.95 520.75L403.95 508.06C405.548 507.258 407.312 506.84 409.1 506.84C410.888 506.84 412.652 507.258 414.25 508.06L436.25 520.75C436.799 520.899 437.284 521.224 437.63 521.676C437.976 522.128 438.163 522.681 438.163 523.25C438.163 523.819 437.976 524.372 437.63 524.824C437.284 525.276 436.799 525.601 436.25 525.75V525.75Z" fill="#232F3A"></path><path d="M479.391 550.66L457.391 563.35C455.793 564.152 454.029 564.57 452.241 564.57C450.453 564.57 448.689 564.152 447.091 563.35L425.091 550.66C424.542 550.511 424.057 550.186 423.711 549.734C423.365 549.282 423.178 548.729 423.178 548.16C423.178 547.591 423.365 547.038 423.711 546.586C424.057 546.134 424.542 545.809 425.091 545.66L447.091 532.97C448.689 532.168 450.453 531.75 452.241 531.75C454.029 531.75 455.793 532.168 457.391 532.97L479.391 545.66C479.94 545.809 480.425 546.134 480.771 546.586C481.117 547.038 481.304 547.591 481.304 548.16C481.304 548.729 481.117 549.282 480.771 549.734C480.425 550.186 479.94 550.511 479.391 550.66V550.66Z" fill="#232F3A"></path><path d="M522.54 575.57L500.54 588.26C498.94 589.062 497.175 589.48 495.385 589.48C493.595 589.48 491.83 589.062 490.23 588.26L468.23 575.57C467.68 575.421 467.195 575.096 466.85 574.644C466.504 574.192 466.316 573.639 466.316 573.07C466.316 572.501 466.504 571.948 466.85 571.496C467.195 571.044 467.68 570.719 468.23 570.57L490.23 557.88C491.83 557.078 493.595 556.66 495.385 556.66C497.175 556.66 498.94 557.078 500.54 557.88L522.54 570.57C523.089 570.719 523.574 571.044 523.92 571.496C524.265 571.948 524.453 572.501 524.453 573.07C524.453 573.639 524.265 574.192 523.92 574.644C523.574 575.096 523.089 575.421 522.54 575.57V575.57Z" fill="#232F3A"></path><path d="M565.69 600.49L543.69 613.18C542.091 613.982 540.328 614.4 538.54 614.4C536.752 614.4 534.988 613.982 533.39 613.18L511.39 600.49C510.846 600.335 510.368 600.007 510.028 599.556C509.688 599.105 509.504 598.555 509.504 597.99C509.504 597.425 509.688 596.875 510.028 596.424C510.368 595.973 510.846 595.645 511.39 595.49L533.39 582.8C534.988 581.998 536.752 581.58 538.54 581.58C540.328 581.58 542.091 581.998 543.69 582.8L565.69 595.49C566.239 595.639 566.724 595.964 567.07 596.416C567.415 596.868 567.603 597.421 567.603 597.99C567.603 598.559 567.415 599.112 567.07 599.564C566.724 600.016 566.239 600.341 565.69 600.49Z" fill="#232F3A"></path><path d="M608.84 625.4L586.84 638.09C585.242 638.892 583.478 639.31 581.69 639.31C579.902 639.31 578.138 638.892 576.54 638.09L554.54 625.4C553.991 625.251 553.506 624.926 553.16 624.474C552.814 624.022 552.627 623.469 552.627 622.9C552.627 622.331 552.814 621.778 553.16 621.326C553.506 620.874 553.991 620.549 554.54 620.4L576.54 607.71C578.138 606.908 579.902 606.49 581.69 606.49C583.478 606.49 585.242 606.908 586.84 607.71L608.84 620.4C609.389 620.549 609.874 620.874 610.22 621.326C610.566 621.778 610.753 622.331 610.753 622.9C610.753 623.469 610.566 624.022 610.22 624.474C609.874 624.926 609.389 625.251 608.84 625.4Z" fill="#232F3A"></path><path d="M652 650.31L630 663C628.402 663.802 626.638 664.22 624.85 664.22C623.062 664.22 621.298 663.802 619.7 663L597.7 650.31C597.151 650.161 596.666 649.836 596.32 649.384C595.974 648.932 595.787 648.379 595.787 647.81C595.787 647.241 595.974 646.688 596.32 646.236C596.666 645.784 597.151 645.459 597.7 645.31L619.7 632.63C621.298 631.828 623.062 631.41 624.85 631.41C626.638 631.41 628.402 631.828 630 632.63L652 645.31C652.549 645.459 653.034 645.784 653.38 646.236C653.726 646.688 653.913 647.241 653.913 647.81C653.913 648.379 653.726 648.932 653.38 649.384C653.034 649.836 652.549 650.161 652 650.31Z" fill="#232F3A"></path><path d="M695.141 675.22L673.141 687.91C671.543 688.712 669.779 689.13 667.991 689.13C666.203 689.13 664.439 688.712 662.841 687.91L640.841 675.22C640.292 675.071 639.807 674.746 639.461 674.294C639.115 673.842 638.928 673.289 638.928 672.72C638.928 672.151 639.115 671.598 639.461 671.146C639.807 670.694 640.292 670.369 640.841 670.22L662.841 657.53C664.439 656.728 666.203 656.31 667.991 656.31C669.779 656.31 671.543 656.728 673.141 657.53L695.141 670.22C695.69 670.369 696.175 670.694 696.521 671.146C696.867 671.598 697.054 672.151 697.054 672.72C697.054 673.289 696.867 673.842 696.521 674.294C696.175 674.746 695.69 675.071 695.141 675.22V675.22Z" fill="#232F3A"></path><path d="M738.28 700.13L716.28 712.82C714.681 713.622 712.918 714.04 711.13 714.04C709.341 714.04 707.578 713.622 705.98 712.82L683.98 700.13C683.43 699.981 682.945 699.656 682.6 699.204C682.254 698.752 682.066 698.199 682.066 697.63C682.066 697.061 682.254 696.508 682.6 696.056C682.945 695.604 683.43 695.279 683.98 695.13L705.98 682.44C707.578 681.638 709.341 681.22 711.13 681.22C712.918 681.22 714.681 681.638 716.28 682.44L738.28 695.13C738.829 695.279 739.314 695.604 739.66 696.056C740.005 696.508 740.193 697.061 740.193 697.63C740.193 698.199 740.005 698.752 739.66 699.204C739.314 699.656 738.829 699.981 738.28 700.13V700.13Z" fill="#232F3A"></path><path d="M781.43 725.05L759.43 737.73C757.832 738.532 756.068 738.95 754.28 738.95C752.492 738.95 750.728 738.532 749.13 737.73L727.13 725.05C726.581 724.901 726.096 724.576 725.75 724.124C725.404 723.672 725.217 723.119 725.217 722.55C725.217 721.981 725.404 721.428 725.75 720.976C726.096 720.524 726.581 720.199 727.13 720.05L749.13 707.36C750.728 706.558 752.492 706.14 754.28 706.14C756.068 706.14 757.832 706.558 759.43 707.36L781.43 720.05C781.979 720.199 782.464 720.524 782.81 720.976C783.156 721.428 783.343 721.981 783.343 722.55C783.343 723.119 783.156 723.672 782.81 724.124C782.464 724.576 781.979 724.901 781.43 725.05V725.05Z" fill="#232F3A"></path><path d="M768.439 747.46C768.509 746.917 768.719 746.402 769.048 745.965C769.378 745.528 769.816 745.185 770.319 744.97L792.319 732.28C793.918 731.478 795.681 731.06 797.469 731.06C799.258 731.06 801.021 731.478 802.62 732.28L824.62 744.97C825.169 745.119 825.654 745.444 826 745.896C826.345 746.348 826.533 746.901 826.533 747.47C826.533 748.039 826.345 748.592 826 749.044C825.654 749.496 825.169 749.821 824.62 749.97L802.62 762.66C801.021 763.462 799.258 763.88 797.469 763.88C795.681 763.88 793.918 763.462 792.319 762.66L770.319 749.97C769.815 749.751 769.376 749.405 769.046 748.965C768.716 748.524 768.507 748.006 768.439 747.46V747.46Z" fill="#232F3A"></path><path d="M352.84 522.8C352.774 523.3 352.579 523.774 352.274 524.176C351.969 524.578 351.564 524.893 351.1 525.09L328.41 538.19C326.921 538.933 325.28 539.32 323.615 539.32C321.951 539.32 320.309 538.933 318.82 538.19L296.14 525.09C295.636 524.955 295.19 524.658 294.871 524.244C294.553 523.83 294.381 523.322 294.381 522.8C294.381 522.278 294.553 521.77 294.871 521.356C295.19 520.942 295.636 520.645 296.14 520.51L318.82 507.41C320.309 506.667 321.951 506.28 323.615 506.28C325.28 506.28 326.921 506.667 328.41 507.41L351.1 520.51C351.564 520.707 351.969 521.022 352.274 521.424C352.579 521.826 352.774 522.3 352.84 522.8Z" fill="#232F3A"></path><path d="M339.281 545.42L361.97 532.32C363.46 531.577 365.101 531.19 366.766 531.19C368.43 531.19 370.071 531.577 371.561 532.32L394.25 545.42C394.749 545.561 395.188 545.861 395.5 546.274C395.813 546.688 395.982 547.192 395.982 547.71C395.982 548.228 395.813 548.732 395.5 549.146C395.188 549.559 394.749 549.859 394.25 550L371.561 563.1C370.071 563.843 368.43 564.23 366.766 564.23C365.101 564.23 363.46 563.843 361.97 563.1L339.281 550C338.782 549.859 338.343 549.559 338.031 549.146C337.718 548.732 337.549 548.228 337.549 547.71C337.549 547.192 337.718 546.688 338.031 546.274C338.343 545.861 338.782 545.561 339.281 545.42V545.42Z" fill="#232F3A"></path><path d="M409.911 556.1C411.582 556.059 413.236 556.452 414.711 557.24L437.401 570.33C437.899 570.471 438.338 570.771 438.651 571.185C438.963 571.598 439.133 572.102 439.133 572.62C439.133 573.138 438.963 573.642 438.651 574.056C438.338 574.469 437.899 574.769 437.401 574.91L414.711 588C413.222 588.743 411.58 589.13 409.916 589.13C408.252 589.13 406.61 588.743 405.121 588L382.431 574.9C381.932 574.759 381.493 574.459 381.181 574.046C380.868 573.632 380.699 573.128 380.699 572.61C380.699 572.092 380.868 571.588 381.181 571.175C381.493 570.761 381.932 570.461 382.431 570.32L405.121 557.23C406.593 556.447 408.243 556.057 409.911 556.1V556.1Z" fill="#232F3A"></path><path d="M453.061 581C454.732 580.964 456.384 581.357 457.861 582.14L480.541 595.24C481.041 595.378 481.482 595.676 481.797 596.089C482.112 596.501 482.282 597.006 482.282 597.525C482.282 598.044 482.112 598.549 481.797 598.961C481.482 599.374 481.041 599.672 480.541 599.81L457.861 612.91C456.374 613.66 454.731 614.05 453.066 614.05C451.4 614.05 449.758 613.66 448.271 612.91L425.581 599.81C425.08 599.672 424.639 599.374 424.325 598.961C424.01 598.549 423.84 598.044 423.84 597.525C423.84 597.006 424.01 596.501 424.325 596.089C424.639 595.676 425.08 595.378 425.581 595.24L448.271 582.14C449.744 581.356 451.393 580.964 453.061 581Z" fill="#232F3A"></path><path d="M496.209 605.92C497.881 605.884 499.533 606.276 501.01 607.06L523.689 620.16C524.19 620.298 524.631 620.596 524.946 621.009C525.26 621.421 525.431 621.926 525.431 622.445C525.431 622.964 525.26 623.469 524.946 623.881C524.631 624.294 524.19 624.592 523.689 624.73L501 637.83C499.51 638.579 497.866 638.969 496.199 638.969C494.532 638.969 492.889 638.579 491.4 637.83L468.719 624.73C468.219 624.592 467.778 624.294 467.463 623.881C467.149 623.469 466.979 622.964 466.979 622.445C466.979 621.926 467.149 621.421 467.463 621.009C467.778 620.596 468.219 620.298 468.719 620.16L491.4 607.06C492.879 606.276 494.535 605.884 496.209 605.92V605.92Z" fill="#232F3A"></path><path d="M539.36 630.84C541.031 630.802 542.683 631.191 544.161 631.97L566.84 645.07C567.339 645.211 567.778 645.511 568.091 645.924C568.403 646.338 568.572 646.842 568.572 647.36C568.572 647.878 568.403 648.382 568.091 648.796C567.778 649.209 567.339 649.509 566.84 649.65L544.161 662.74C542.671 663.489 541.027 663.879 539.36 663.879C537.693 663.879 536.05 663.489 534.561 662.74L511.88 649.65C511.376 649.515 510.93 649.218 510.612 648.804C510.294 648.39 510.121 647.882 510.121 647.36C510.121 646.838 510.294 646.33 510.612 645.916C510.93 645.502 511.376 645.205 511.88 645.07L534.561 631.97C536.038 631.19 537.69 630.801 539.36 630.84Z" fill="#232F3A"></path><path d="M582.509 655.75C584.176 655.711 585.826 656.1 587.299 656.88L609.999 670C610.498 670.141 610.937 670.441 611.249 670.855C611.562 671.268 611.731 671.772 611.731 672.29C611.731 672.808 611.562 673.312 611.249 673.726C610.937 674.139 610.498 674.439 609.999 674.58L587.309 687.67C585.822 688.42 584.18 688.811 582.514 688.811C580.849 688.811 579.206 688.42 577.719 687.67L554.999 674.56C554.501 674.419 554.062 674.119 553.749 673.706C553.437 673.292 553.268 672.788 553.268 672.27C553.268 671.752 553.437 671.248 553.749 670.835C554.062 670.421 554.501 670.121 554.999 669.98L577.689 656.88C579.173 656.097 580.832 655.708 582.509 655.75Z" fill="#232F3A"></path><path d="M625.659 680.66C627.326 680.622 628.975 681.011 630.449 681.79L653.139 694.89C653.638 695.031 654.077 695.331 654.389 695.744C654.702 696.158 654.871 696.662 654.871 697.18C654.871 697.698 654.702 698.202 654.389 698.616C654.077 699.029 653.638 699.329 653.139 699.47L630.449 712.57C628.96 713.313 627.318 713.7 625.654 713.7C623.99 713.7 622.348 713.313 620.859 712.57L598.169 699.47C597.671 699.329 597.232 699.029 596.919 698.616C596.607 698.202 596.438 697.698 596.438 697.18C596.438 696.662 596.607 696.158 596.919 695.744C597.232 695.331 597.671 695.031 598.169 694.89L620.859 681.79C622.337 681.01 623.989 680.621 625.659 680.66Z" fill="#232F3A"></path><path d="M668.8 705.57C670.471 705.529 672.125 705.922 673.6 706.71L696.29 719.8C696.788 719.941 697.227 720.241 697.54 720.654C697.852 721.068 698.021 721.572 698.021 722.09C698.021 722.608 697.852 723.112 697.54 723.525C697.227 723.939 696.788 724.239 696.29 724.38L673.6 737.48C672.11 738.223 670.469 738.61 668.805 738.61C667.14 738.61 665.499 738.223 664.01 737.48L641.32 724.38C640.821 724.239 640.382 723.939 640.07 723.525C639.757 723.112 639.588 722.608 639.588 722.09C639.588 721.572 639.757 721.068 640.07 720.654C640.382 720.241 640.821 719.941 641.32 719.8L664 706.71C665.474 705.92 667.128 705.527 668.8 705.57V705.57Z" fill="#232F3A"></path><path d="M310.7 547.25C310.638 547.707 310.457 548.14 310.177 548.507C309.896 548.873 309.525 549.16 309.1 549.34L285.71 562.84C284.33 563.531 282.808 563.89 281.265 563.89C279.722 563.89 278.2 563.531 276.82 562.84L253.43 549.34C253.005 549.16 252.634 548.873 252.354 548.507C252.073 548.14 251.893 547.707 251.83 547.25C251.892 546.794 252.073 546.362 252.353 545.997C252.634 545.632 253.005 545.347 253.43 545.17L276.82 531.66C278.2 530.969 279.722 530.61 281.265 530.61C282.808 530.61 284.33 530.969 285.71 531.66L309.1 545.17C309.525 545.347 309.896 545.632 310.177 545.997C310.458 546.362 310.638 546.794 310.7 547.25V547.25Z" fill="#232F3A"></path><path d="M353.85 572.16C353.788 572.617 353.608 573.05 353.327 573.417C353.047 573.783 352.676 574.07 352.25 574.25L328.86 587.75C327.481 588.441 325.959 588.8 324.416 588.8C322.872 588.8 321.35 588.441 319.97 587.75L296.58 574.25C296.155 574.07 295.784 573.783 295.504 573.417C295.223 573.05 295.043 572.617 294.98 572.16C295.043 571.704 295.223 571.272 295.504 570.907C295.784 570.542 296.156 570.257 296.58 570.08L320 556.57C321.38 555.879 322.902 555.52 324.445 555.52C325.989 555.52 327.511 555.879 328.891 556.57L352.281 570.08C352.7 570.261 353.065 570.548 353.34 570.913C353.615 571.277 353.791 571.707 353.85 572.16V572.16Z" fill="#232F3A"></path><path d="M367.561 613.72C366.015 613.752 364.487 613.391 363.12 612.67L339.73 599.16C339.272 599.036 338.868 598.765 338.579 598.388C338.291 598.011 338.135 597.55 338.135 597.075C338.135 596.6 338.291 596.139 338.579 595.762C338.868 595.385 339.272 595.114 339.73 594.99L363.12 581.48C364.499 580.789 366.019 580.43 367.561 580.43C369.102 580.43 370.622 580.789 372 581.48L395.401 595C395.859 595.124 396.263 595.395 396.552 595.772C396.84 596.149 396.996 596.61 396.996 597.085C396.996 597.56 396.84 598.021 396.552 598.398C396.263 598.775 395.859 599.046 395.401 599.17L372 612.67C370.634 613.391 369.106 613.752 367.561 613.72V613.72Z" fill="#232F3A"></path><path d="M410.709 638.63C409.168 638.678 407.641 638.334 406.269 637.63L382.869 624.12C382.445 623.943 382.075 623.658 381.796 623.293C381.517 622.928 381.339 622.496 381.279 622.04C381.34 621.583 381.518 621.151 381.797 620.784C382.076 620.418 382.445 620.13 382.869 619.95L406.269 606.45C407.647 605.759 409.168 605.4 410.709 605.4C412.251 605.4 413.771 605.759 415.149 606.45L438.549 619.95C438.973 620.13 439.343 620.418 439.621 620.784C439.9 621.151 440.079 621.583 440.139 622.04C440.08 622.496 439.902 622.928 439.623 623.293C439.344 623.658 438.973 623.943 438.549 624.12L415.149 637.63C413.778 638.334 412.25 638.678 410.709 638.63V638.63Z" fill="#232F3A"></path><path d="M453.86 663.54C452.319 663.593 450.79 663.248 449.42 662.54L426 649C425.576 648.823 425.206 648.538 424.927 648.173C424.648 647.808 424.469 647.376 424.41 646.92C424.471 646.463 424.649 646.031 424.928 645.664C425.207 645.298 425.576 645.01 426 644.83L449.4 631.33C450.778 630.639 452.299 630.28 453.84 630.28C455.382 630.28 456.902 630.639 458.28 631.33L481.67 644.83C482.095 645.01 482.466 645.297 482.747 645.663C483.027 646.03 483.208 646.463 483.27 646.92C483.208 647.376 483.027 647.808 482.747 648.173C482.466 648.538 482.095 648.823 481.67 649L458.28 662.51C456.919 663.225 455.397 663.58 453.86 663.54V663.54Z" fill="#232F3A"></path><path d="M497 688.45C495.452 688.489 493.919 688.127 492.551 687.4L469.161 673.89C468.701 673.77 468.293 673.5 468.003 673.124C467.712 672.748 467.555 672.285 467.555 671.81C467.555 671.335 467.712 670.872 468.003 670.496C468.293 670.12 468.701 669.85 469.161 669.73L492.551 656.22C493.93 655.529 495.452 655.17 496.995 655.17C498.539 655.17 500.061 655.529 501.44 656.22L524.83 669.73C525.29 669.85 525.698 670.12 525.988 670.496C526.279 670.872 526.436 671.335 526.436 671.81C526.436 672.285 526.279 672.748 525.988 673.124C525.698 673.5 525.29 673.77 524.83 673.89L501.44 687.4C500.075 688.126 498.546 688.487 497 688.45V688.45Z" fill="#232F3A"></path><path d="M540.151 713.36C538.605 713.397 537.076 713.036 535.711 712.31L512.321 698.81C511.896 698.63 511.525 698.343 511.244 697.977C510.964 697.61 510.783 697.177 510.721 696.72C510.783 696.264 510.963 695.832 511.244 695.467C511.525 695.102 511.896 694.817 512.321 694.64L535.711 681.13C537.091 680.439 538.613 680.08 540.156 680.08C541.699 680.08 543.221 680.439 544.601 681.13L568.001 694.64C568.426 694.817 568.797 695.102 569.078 695.467C569.358 695.832 569.539 696.264 569.601 696.72C569.538 697.177 569.358 697.61 569.077 697.977C568.797 698.343 568.426 698.63 568.001 698.81L544.611 712.31C543.24 713.039 541.703 713.401 540.151 713.36V713.36Z" fill="#232F3A"></path><path d="M583.299 738.27C581.758 738.323 580.229 737.978 578.859 737.27L555.469 723.77C555.044 723.59 554.673 723.303 554.393 722.937C554.112 722.57 553.932 722.137 553.869 721.68C553.931 721.224 554.112 720.792 554.392 720.427C554.673 720.062 555.044 719.777 555.469 719.6L578.859 706C580.239 705.309 581.761 704.95 583.304 704.95C584.847 704.95 586.369 705.309 587.749 706L611.139 719.51C611.564 719.687 611.935 719.972 612.216 720.337C612.497 720.702 612.677 721.134 612.739 721.59C612.677 722.047 612.496 722.48 612.216 722.847C611.935 723.213 611.564 723.5 611.139 723.68L587.749 737.18C586.384 737.919 584.851 738.294 583.299 738.27V738.27Z" fill="#232F3A"></path><path d="M626.449 763.18C624.908 763.233 623.379 762.888 622.009 762.18L598.619 748.68C598.161 748.556 597.757 748.285 597.468 747.908C597.18 747.531 597.023 747.07 597.023 746.595C597.023 746.12 597.18 745.659 597.468 745.282C597.757 744.905 598.161 744.634 598.619 744.51L621.999 731C623.377 730.309 624.898 729.95 626.439 729.95C627.981 729.95 629.501 730.309 630.879 731L654.279 744.51C654.737 744.634 655.142 744.905 655.43 745.282C655.719 745.659 655.875 746.12 655.875 746.595C655.875 747.07 655.719 747.531 655.43 747.908C655.142 748.285 654.737 748.556 654.279 748.68L630.879 762.18C629.512 762.887 627.987 763.231 626.449 763.18Z" fill="#232F3A"></path><path d="M210.719 569.82L234.82 555.91C236.089 555.272 237.489 554.94 238.909 554.94C240.33 554.94 241.73 555.272 243 555.91L267.099 569.82C267.481 569.985 267.814 570.244 268.068 570.573C268.321 570.901 268.487 571.289 268.55 571.7C268.49 572.112 268.325 572.501 268.071 572.83C267.817 573.159 267.482 573.418 267.099 573.58L243 587.5C241.729 588.132 240.329 588.46 238.909 588.46C237.49 588.46 236.09 588.132 234.82 587.5L210.719 573.58C210.337 573.418 210.002 573.159 209.748 572.83C209.494 572.501 209.329 572.112 209.27 571.7C209.332 571.289 209.498 570.901 209.752 570.573C210.005 570.244 210.338 569.985 210.719 569.82V569.82Z" fill="#232F3A"></path><path d="M282.06 613.38C280.634 613.401 279.226 613.057 277.97 612.38L253.87 598.47C253.487 598.304 253.153 598.044 252.9 597.713C252.646 597.382 252.481 596.992 252.42 596.58C252.481 596.17 252.647 595.783 252.901 595.456C253.155 595.128 253.488 594.872 253.87 594.71L277.97 580.79C279.239 580.152 280.64 579.82 282.06 579.82C283.48 579.82 284.881 580.152 286.15 580.79L310.25 594.71C310.633 594.872 310.967 595.131 311.221 595.46C311.475 595.789 311.64 596.178 311.7 596.59C311.637 597.001 311.471 597.388 311.218 597.717C310.964 598.046 310.631 598.305 310.25 598.47L286.15 612.38C284.894 613.057 283.486 613.401 282.06 613.38V613.38Z" fill="#232F3A"></path><path d="M353.4 623.41L329.3 637.32C328.031 637.958 326.631 638.29 325.21 638.29C323.79 638.29 322.389 637.958 321.12 637.32L297 623.41C296.583 623.304 296.212 623.061 295.947 622.721C295.683 622.38 295.539 621.961 295.539 621.53C295.539 621.099 295.683 620.68 295.947 620.339C296.212 619.999 296.583 619.756 297 619.65L321.1 605.73C322.371 605.098 323.771 604.77 325.19 604.77C326.61 604.77 328.009 605.098 329.28 605.73L353.38 619.65C353.798 619.756 354.169 619.999 354.433 620.339C354.698 620.68 354.842 621.099 354.842 621.53C354.842 621.961 354.698 622.38 354.433 622.721C354.169 623.061 353.798 623.304 353.38 623.41H353.4Z" fill="#232F3A"></path><path d="M338.721 646.44C338.781 646.029 338.947 645.64 339.2 645.311C339.454 644.982 339.788 644.723 340.171 644.56L364.271 630.64C365.542 630.008 366.942 629.68 368.361 629.68C369.78 629.68 371.18 630.008 372.451 630.64L569.141 744.2C569.523 744.366 569.857 744.626 570.111 744.957C570.365 745.288 570.53 745.678 570.591 746.09C570.529 746.5 570.364 746.887 570.11 747.214C569.856 747.542 569.522 747.799 569.141 747.96L545.041 761.88C543.772 762.518 542.371 762.85 540.951 762.85C539.53 762.85 538.13 762.518 536.861 761.88L340.171 648.32C339.788 648.157 339.454 647.898 339.2 647.569C338.947 647.24 338.781 646.851 338.721 646.44Z" fill="#232F3A"></path><path d="M555.911 769.12L580.011 755.2C581.282 754.568 582.682 754.24 584.101 754.24C585.52 754.24 586.92 754.568 588.191 755.2L612.291 769.12C612.709 769.226 613.079 769.469 613.344 769.809C613.609 770.15 613.752 770.569 613.752 771C613.752 771.431 613.609 771.85 613.344 772.191C613.079 772.531 612.709 772.774 612.291 772.88L588.191 786.79C586.922 787.428 585.521 787.76 584.101 787.76C582.681 787.76 581.28 787.428 580.011 786.79L555.911 772.88C555.53 772.715 555.197 772.456 554.943 772.127C554.689 771.798 554.523 771.411 554.461 771C554.521 770.588 554.686 770.199 554.94 769.87C555.194 769.541 555.528 769.282 555.911 769.12Z" fill="#232F3A"></path><path d="M599.061 794L623.161 780.08C624.432 779.448 625.832 779.12 627.251 779.12C628.67 779.12 630.07 779.448 631.341 780.08L655.441 794C655.859 794.106 656.229 794.349 656.494 794.689C656.758 795.03 656.902 795.449 656.902 795.88C656.902 796.311 656.758 796.73 656.494 797.071C656.229 797.411 655.859 797.654 655.441 797.76L631.341 811.67C630.072 812.308 628.671 812.64 627.251 812.64C625.831 812.64 624.43 812.308 623.161 811.67L599.061 797.76C598.643 797.654 598.273 797.411 598.008 797.071C597.743 796.73 597.6 796.311 597.6 795.88C597.6 795.449 597.743 795.03 598.008 794.689C598.273 794.349 598.643 794.106 599.061 794V794Z" fill="#232F3A"></path><path d="M642.209 818.94L666.309 805.03C667.577 804.392 668.976 804.06 670.394 804.06C671.813 804.06 673.212 804.392 674.479 805.03L698.589 818.94C699.007 819.046 699.378 819.289 699.642 819.629C699.907 819.97 700.051 820.389 700.051 820.82C700.051 821.251 699.907 821.67 699.642 822.01C699.378 822.351 699.007 822.594 698.589 822.7L674.479 836.61C673.212 837.248 671.813 837.58 670.394 837.58C668.976 837.58 667.577 837.248 666.309 836.61L642.209 822.7C641.791 822.594 641.421 822.351 641.156 822.01C640.892 821.67 640.748 821.251 640.748 820.82C640.748 820.389 640.892 819.97 641.156 819.629C641.421 819.289 641.791 819.046 642.209 818.94V818.94Z" fill="#232F3A"></path><path d="M712 730.48C713.671 730.444 715.324 730.836 716.8 731.62L739.48 744.72C739.981 744.858 740.422 745.156 740.736 745.569C741.051 745.981 741.221 746.486 741.221 747.005C741.221 747.524 741.051 748.029 740.736 748.441C740.422 748.854 739.981 749.152 739.48 749.29L716.8 762.39C715.313 763.14 713.671 763.531 712.005 763.531C710.34 763.531 708.697 763.14 707.21 762.39L684.52 749.29C684.02 749.152 683.579 748.854 683.264 748.441C682.95 748.029 682.779 747.524 682.779 747.005C682.779 746.486 682.95 745.981 683.264 745.569C683.579 745.156 684.02 744.858 684.52 744.72L707.21 731.62C708.683 730.836 710.332 730.444 712 730.48V730.48Z" fill="#232F3A"></path><path d="M725.881 771.92C725.945 771.419 726.139 770.944 726.445 770.542C726.75 770.14 727.156 769.826 727.621 769.63L750.301 756.53C751.79 755.781 753.434 755.391 755.101 755.391C756.768 755.391 758.412 755.781 759.901 756.53L782.581 769.63C783.081 769.768 783.523 770.066 783.837 770.479C784.152 770.891 784.322 771.396 784.322 771.915C784.322 772.434 784.152 772.939 783.837 773.351C783.523 773.764 783.081 774.062 782.581 774.2L759.901 787.3C758.412 788.049 756.768 788.439 755.101 788.439C753.434 788.439 751.79 788.049 750.301 787.3L727.621 774.2C727.156 774.007 726.75 773.694 726.444 773.294C726.139 772.893 725.944 772.42 725.881 771.92V771.92Z" fill="#232F3A"></path><path d="M697.44 773.54L674.04 787.05C672.662 787.741 671.141 788.1 669.6 788.1C668.058 788.1 666.538 787.741 665.16 787.05L641.76 773.54C641.336 773.363 640.965 773.078 640.686 772.713C640.407 772.348 640.229 771.916 640.17 771.46C640.231 771.003 640.409 770.571 640.688 770.204C640.967 769.838 641.336 769.55 641.76 769.37L665.16 755.87C666.538 755.179 668.058 754.82 669.6 754.82C671.141 754.82 672.662 755.179 674.04 755.87L697.44 769.37C697.862 769.552 698.231 769.84 698.51 770.206C698.788 770.572 698.967 771.004 699.03 771.46C698.969 771.915 698.79 772.346 698.511 772.711C698.232 773.076 697.863 773.362 697.44 773.54V773.54Z" fill="#232F3A"></path><path d="M683.32 796.37C683.381 795.914 683.559 795.481 683.838 795.114C684.117 794.748 684.487 794.46 684.91 794.28L708.31 780.78C709.689 780.089 711.209 779.73 712.75 779.73C714.292 779.73 715.812 780.089 717.19 780.78L740.58 794.28C741.005 794.46 741.376 794.747 741.657 795.113C741.938 795.48 742.118 795.913 742.18 796.37C742.118 796.826 741.938 797.258 741.657 797.623C741.376 797.988 741.005 798.273 740.58 798.45L717.19 812C715.812 812.691 714.292 813.05 712.75 813.05C711.209 813.05 709.689 812.691 708.31 812L684.91 798.49C684.481 798.31 684.107 798.019 683.828 797.646C683.548 797.273 683.373 796.833 683.32 796.37V796.37Z" fill="#232F3A"></path><path opacity="0.2" d="M356.24 422.1V844.77L553.42 958.61C562.27 963.72 577.72 963.09 587.93 957.19L935.47 756.53L356.24 422.1Z" fill="black"></path><path d="M0.250038 634.33V641.9C0.245118 643.723 0.721493 645.516 1.63102 647.096C2.54054 648.676 3.851 649.988 5.43003 650.9L550.86 965.9C556.485 969.147 562.865 970.857 569.36 970.857C575.855 970.857 582.235 969.147 587.86 965.9L935.45 765.18V756.55L587.91 957.21C577.7 963.11 562.25 963.74 553.4 958.63L6.22001 642.69C2.33001 640.45 0.360038 637.47 0.250038 634.33Z" fill="#FA4729"></path><path d="M601.939 201.28L869.479 355.74C874.001 358.353 877.757 362.11 880.369 366.633C882.98 371.156 884.356 376.287 884.359 381.51V616.59C884.359 626.86 877.079 631.06 868.189 625.92L600.669 471.47C596.145 468.858 592.389 465.102 589.777 460.578C587.165 456.055 585.79 450.923 585.789 445.7V210.61C585.789 208.72 586.286 206.863 587.231 205.226C588.176 203.589 589.535 202.23 591.172 201.284C592.808 200.339 594.665 199.841 596.555 199.84C598.445 199.839 600.302 200.336 601.939 201.28V201.28Z" fill="#0C161E"></path><path d="M380.999 78.58L546.719 174.26C549.001 175.577 550.896 177.472 552.212 179.755C553.529 182.037 554.221 184.625 554.219 187.26V272.26C554.219 273.563 553.876 274.844 553.224 275.972C552.572 277.101 551.634 278.038 550.504 278.689C549.375 279.34 548.094 279.681 546.791 279.68C545.487 279.678 544.207 279.333 543.079 278.68L377.349 183C375.07 181.681 373.177 179.786 371.862 177.504C370.548 175.222 369.857 172.634 369.859 170V85C369.859 83.6966 370.203 82.4161 370.855 81.2875C371.507 80.159 372.445 79.2221 373.574 78.5713C374.704 77.9205 375.985 77.5786 377.288 77.5801C378.592 77.5817 379.872 77.9265 380.999 78.58V78.58Z" fill="#0C161E"></path><path d="M382.159 201.8L545.579 296.16C548.212 297.679 550.398 299.866 551.917 302.499C553.436 305.133 554.233 308.12 554.229 311.16C554.229 336.89 554.229 405.53 554.229 435.37C554.229 436.807 553.851 438.219 553.132 439.463C552.414 440.707 551.38 441.74 550.135 442.458C548.89 443.176 547.478 443.553 546.041 443.552C544.604 443.55 543.193 443.17 541.949 442.45L378.519 348.09C375.887 346.57 373.701 344.383 372.183 341.75C370.664 339.117 369.866 336.13 369.869 333.09V208.89C369.869 207.452 370.248 206.039 370.967 204.794C371.686 203.548 372.721 202.514 373.967 201.796C375.212 201.077 376.625 200.699 378.063 200.7C379.502 200.701 380.914 201.08 382.159 201.8V201.8Z" fill="#0C161E"></path><path d="M573.551 215.79L841.081 370.25C845.609 372.855 849.371 376.606 851.99 381.126C854.609 385.646 855.993 390.776 856.001 396V631.1C856.001 641.37 848.731 645.57 839.841 640.43L572.271 486C567.747 483.388 563.99 479.632 561.378 475.108C558.766 470.585 557.391 465.453 557.391 460.23V225.12C557.393 223.23 557.892 221.373 558.838 219.737C559.784 218.1 561.144 216.741 562.781 215.796C564.418 214.851 566.274 214.353 568.165 214.352C570.055 214.351 571.913 214.847 573.551 215.79Z" fill="#FA4729"></path><path d="M590.381 387.2L683.851 441.2C690.851 445.2 696.481 454.98 696.481 462.99L603.001 409C596.001 405 590.381 395.2 590.381 387.2Z" fill="#FFE6E6"></path><path d="M590 415.89L822.61 550.18C823.095 550.497 823.499 550.924 823.789 551.426C824.079 551.928 824.247 552.491 824.28 553.07C824.28 554.13 823.53 554.56 822.61 554.02L590 419.73C589.514 419.413 589.11 418.986 588.82 418.484C588.53 417.982 588.362 417.419 588.33 416.84C588.29 415.78 589 415.35 590 415.89Z" fill="#0C161E"></path><path d="M590 432.43L822.61 566.73C823.096 567.046 823.501 567.473 823.791 567.975C824.081 568.477 824.249 569.041 824.28 569.62C824.28 570.68 823.53 571.1 822.61 570.62L590 436.28C589.515 435.962 589.111 435.535 588.821 435.033C588.531 434.532 588.363 433.969 588.33 433.39C588.29 432.33 589 431.9 590 432.43Z" fill="#0C161E"></path><path d="M590 449L822.61 583.29C823.095 583.607 823.499 584.034 823.789 584.536C824.079 585.038 824.247 585.601 824.28 586.18C824.28 587.24 823.53 587.67 822.61 587.18L590 452.82C589.514 452.503 589.11 452.076 588.82 451.574C588.53 451.072 588.362 450.509 588.33 449.93C588.29 448.87 589 448.44 590 449Z" fill="#0C161E"></path><path d="M813.64 480.3L728 430.85C722.15 427.47 717.4 419.28 717.4 412.56V391.56C717.4 387.95 718.8 385.33 721.21 384.42L734.52 379.37C738.52 377.83 744.52 381.37 748.41 387.7L768.41 419.98C772.26 426.19 778.06 429.74 782.11 428.38L791.18 425.38C795.18 424.04 800.84 427.44 804.7 433.48L820.55 458.28C822.799 461.652 824.073 465.58 824.23 469.63V474.27C824.24 481 819.49 483.68 813.64 480.3Z" fill="#0C161E"></path><path d="M786.409 408.21C780.629 404.88 775.949 396.8 775.949 390.21C775.949 383.62 780.629 380.91 786.409 384.21C792.189 387.51 796.869 395.62 796.869 402.21C796.869 408.8 792.179 411.55 786.409 408.21Z" fill="#FFE6E6"></path><path d="M592.1 309.91L605.41 304.91C609.41 303.37 615.41 306.91 619.29 313.24L639.29 345.52C643.14 351.73 648.93 355.28 652.99 353.92L662.06 350.92C666.06 349.58 671.72 352.98 675.58 359.02L691.42 383.83C693.67 387.198 694.947 391.122 695.11 395.17V399.82C695.11 406.53 690.36 409.24 684.51 405.82L598.86 356.37C593.01 352.99 588.26 344.8 588.26 338.09V317.09C588.29 313.44 589.69 310.83 592.1 309.91Z" fill="#0C161E"></path><path d="M657.3 333.68C651.53 330.34 646.84 322.26 646.84 315.68C646.84 309.1 651.53 306.38 657.3 309.68C663.07 312.98 667.76 321.09 667.76 327.68C667.76 334.27 663.08 337 657.3 333.68Z" fill="#FFE6E6"></path><path d="M361.191 93.09L526.921 188.77C529.201 190.089 531.093 191.984 532.408 194.266C533.723 196.548 534.413 199.136 534.411 201.77V286.77C534.41 288.072 534.066 289.351 533.414 290.478C532.763 291.605 531.826 292.541 530.698 293.191C529.57 293.842 528.291 294.184 526.989 294.184C525.687 294.184 524.408 293.841 523.281 293.19L357.551 197.51C355.269 196.193 353.375 194.298 352.058 192.015C350.741 189.733 350.049 187.145 350.051 184.51V99.52C350.049 98.2157 350.391 96.934 351.043 95.804C351.694 94.6741 352.632 93.7358 353.761 93.0838C354.891 92.4318 356.173 92.089 357.477 92.0901C358.781 92.0912 360.062 92.4361 361.191 93.09Z" fill="#FFE6E6"></path><path d="M440.79 169C429.6 162.54 420.52 167.71 420.52 180.56C420.52 193.41 429.6 209.07 440.79 215.56C451.98 222.05 461.06 216.84 461.06 203.99C461.06 191.14 452 175.47 440.79 169ZM435.49 199V179.38L450.329 197.77L435.49 199Z" fill="#0C161E"></path><path d="M362.33 216.31L525.761 310.67C528.394 312.189 530.58 314.376 532.099 317.009C533.617 319.643 534.415 322.63 534.411 325.67V449.85C534.411 451.287 534.033 452.699 533.314 453.943C532.595 455.187 531.561 456.221 530.316 456.938C529.071 457.656 527.659 458.033 526.222 458.032C524.785 458.03 523.374 457.65 522.131 456.93L358.71 362.57C356.077 361.052 353.89 358.865 352.371 356.232C350.852 353.598 350.055 350.61 350.061 347.57V223.4C350.06 221.964 350.437 220.552 351.154 219.308C351.872 218.064 352.904 217.03 354.148 216.311C355.392 215.593 356.803 215.214 358.239 215.214C359.675 215.214 361.087 215.592 362.33 216.31V216.31Z" fill="#FA4729"></path><path d="M501.861 366.72L385.141 299.33C382.461 297.78 380.531 293.49 381.391 290.9C384.821 280.6 392.841 268.58 403.691 274.71C418.311 282.97 424.091 309.93 430.431 313.38C436.771 316.83 436.191 301.49 447.851 308.22C459.511 314.95 458.851 336.37 468.681 341.71C478.151 346.86 477.301 331.58 489.191 338.83C495.361 342.59 501.001 352.83 504.831 361.45C506.571 365.36 504.821 368.43 501.861 366.72Z" fill="#FFE6E6"></path><path d="M371.189 334.47L513.27 416.47C513.758 416.784 514.166 417.21 514.458 417.713C514.75 418.215 514.918 418.78 514.949 419.36C514.949 420.42 514.2 420.85 513.27 420.36L371.189 338.36C370.704 338.043 370.3 337.616 370.01 337.114C369.72 336.612 369.552 336.049 369.52 335.47C369.52 334.37 370.269 333.94 371.189 334.47Z" fill="#0C161E"></path><path d="M513.27 403.81L371.189 321.81C370.704 321.495 370.3 321.07 370.01 320.57C369.72 320.069 369.552 319.508 369.52 318.93C369.52 317.86 370.269 317.44 371.189 317.93L513.27 399.93C513.758 400.245 514.165 400.671 514.457 401.173C514.749 401.676 514.917 402.24 514.949 402.82C514.999 403.91 514.2 404.34 513.27 403.81Z" fill="#0C161E"></path><path d="M1167.13 761.23L1166.75 793.01L1172.95 764.59L1167.13 761.23Z" fill="#EC1C24"></path><path d="M1003.79 521C1006.58 519.29 1010.34 519.59 1014.39 522.33L1191.11 642.13C1198.58 647.2 1204.35 658.84 1204.35 668.84V763.58C1204.35 771.11 1201.09 775.73 1196.35 776.11C1203.29 776.2 1211.75 771.66 1211.75 759.63V664.91C1211.75 654.91 1205.97 643.28 1200.16 639.33L1023.73 519.72C1017.68 515.59 1008.78 517.3 1003.79 521Z" fill="#FA4729"></path><path d="M1014.39 522.36C1006.08 516.73 999 521.36 999 532.53V645.05C999 655.6 1005.41 667.86 1013.31 672.42L1144.24 748L1166.75 793L1167.13 761.22L1190.03 774.44C1197.94 779.01 1204.35 774.16 1204.35 763.6V668.87C1204.35 658.87 1198.58 647.23 1191.11 642.16L1014.39 522.36Z" fill="#0C161E"></path><path d="M1156 687L1119.22 687.82V680.82C1119.19 680.331 1119.33 679.847 1119.6 679.44C1119.77 679.266 1119.98 679.132 1120.21 679.047C1120.44 678.962 1120.69 678.929 1120.93 678.95L1142.27 678.81C1142.94 678.825 1143.61 678.885 1144.27 678.99C1145.03 679.126 1145.79 679.323 1146.52 679.58C1145.73 678.913 1144.98 678.247 1144.27 677.58C1143.56 676.894 1142.89 676.166 1142.27 675.4L1120.93 650.58C1120.39 649.982 1119.94 649.308 1119.6 648.58C1119.35 648.001 1119.22 647.379 1119.22 646.75V639.75L1156 682.91V687Z" fill="#FFE6E6"></path><path d="M1076.7 595.08L1080.26 597.14C1081.33 597.763 1082.26 598.613 1082.97 599.63C1083.76 600.755 1084.36 602.006 1084.73 603.33L1113.28 702L1109.72 699.94C1108.67 699.294 1107.76 698.452 1107.03 697.46C1106.11 696.266 1105.43 694.909 1105.03 693.46L1076.7 595.08Z" fill="#FFE6E6"></path><path d="M1034.63 617.71V613.65L1071.36 612.85V619.85C1071.4 620.346 1071.26 620.839 1070.98 621.25C1070.81 621.422 1070.6 621.553 1070.37 621.634C1070.14 621.716 1069.89 621.745 1069.65 621.72L1048.31 621.91C1047.64 621.94 1046.97 621.9 1046.31 621.79C1045.56 621.649 1044.83 621.466 1044.1 621.24C1044.87 621.865 1045.61 622.533 1046.31 623.24C1046.99 623.92 1047.65 624.63 1048.31 625.36L1069.65 650.13C1070.19 650.726 1070.64 651.4 1070.98 652.13C1071.22 652.703 1071.35 653.318 1071.36 653.94V660.94L1034.63 617.71Z" fill="#FFE6E6"></path><path d="M190.9 117C202.03 112.9 216.27 114.8 231.78 123.76C267.48 144.37 296.41 194.49 296.41 235.69C296.41 254.44 290.41 268.04 280.5 275.44L286.2 314.13L287.76 276.78C297.65 269.38 304.25 251.55 303.62 232.63C302.27 191.44 274.7 141.31 239.01 120.7C221.66 110.67 203.61 110.39 190.9 117Z" fill="#FA4729"></path><path d="M231.78 123.75C267.48 144.35 296.41 194.47 296.41 235.68C296.41 254.42 290.41 268.02 280.5 275.42L286.2 314.11L258.2 281.67C250.13 281.19 241.2 278.42 231.8 272.99C196.11 252.38 167.18 202.27 167.18 161.06C167.18 119.85 196.09 103.14 231.78 123.75Z" fill="#0C161E"></path><path d="M249.189 207.45C247.582 206.072 246.289 204.366 245.397 202.446C244.505 200.526 244.035 198.437 244.019 196.32L243.619 186.95C243.379 181.78 242.179 179.63 239.399 178.02L238.119 177.28V169.06L242.579 171.63C247.519 174.48 251.029 179.71 251.429 186.89L252.059 199.5C252.299 203.85 253.059 205.59 256.449 207.5V215.73C253.099 213.79 252.299 214.61 252.059 218.68L251.429 230.57C251.029 237.28 247.519 238.46 242.579 235.57L238.119 232.99V224.76L239.399 225.5C242.179 227.11 243.399 226.34 243.619 221.45L244.019 212.53C244.179 209.3 245.129 206.29 249.189 207.45Z" fill="#FFE6E6"></path><path d="M212.15 186.06C213.759 187.437 215.054 189.143 215.948 191.063C216.842 192.983 217.313 195.072 217.33 197.19L217.73 206.56C217.96 211.72 219.16 213.88 221.95 215.49L223.22 216.22V224.45L218.76 221.87C213.82 219.02 210.32 213.8 209.92 206.62L209.28 194C209.04 189.66 208.28 187.92 204.9 186V177.77C208.25 179.7 209.04 178.88 209.28 174.77L209.92 162.89C210.32 156.17 213.82 155 218.76 157.89L223.22 160.46V168.69L222 168C219.21 166.39 218 167.16 217.78 172.05L217.38 180.96C217.17 184.2 216.21 187.22 212.15 186.06Z" fill="#FFE6E6"></path><path d="M673.67 1110L1003.28 919.7C1013.09 914.03 1027.94 913.42 1036.44 918.32L1173.94 997.71C1182.44 1002.62 1181.37 1011.19 1171.56 1016.86L841.999 1207.12C832.189 1212.78 817.339 1213.4 808.839 1208.49L671.339 1129.1C662.789 1124.2 663.86 1115.63 673.67 1110Z" fill="#0C161E"></path><path d="M1178.44 898.08V912.75V917.75C1178.16 921.33 1175.44 925.04 1170.36 927.97L840.74 1118.26C830.93 1123.93 816.08 1124.55 807.59 1119.64L670.09 1040.25C666.23 1038.03 664.34 1035.06 664.34 1031.94C664.34 1031.85 664.34 1026.78 664.34 1026.69V1013.19C664.45 1016.19 666.34 1019.05 670.07 1021.19L807.58 1100.58C816.08 1105.48 830.92 1104.87 840.73 1099.21L1170.35 908.9C1175.69 905.8 1178.44 901.84 1178.44 898.08Z" fill="#0C161E"></path><path d="M672.43 1002.05L1002 811.75C1011.82 806.08 1026.66 805.47 1035.16 810.37L1172.66 889.76C1181.16 894.67 1180.1 903.24 1170.28 908.9L840.67 1099.2C830.86 1104.87 816.01 1105.49 807.51 1100.58L670.01 1021.19C661.55 1016.28 662.62 1007.71 672.43 1002.05Z" fill="#FA4729"></path><path d="M823.38 1100.9C818.735 1101 814.142 1099.91 810.04 1097.73L674.14 1019.27C670.78 1017.33 668.93 1014.8 668.93 1012.13C668.93 1009.46 670.83 1006.83 674.29 1004.84L1006.6 813C1010.78 810.763 1015.48 809.64 1020.22 809.74C1024.85 809.633 1029.44 810.722 1033.53 812.9L1064.93 831.03C1065.24 831.202 1065.51 831.456 1065.69 831.765C1065.87 832.074 1065.97 832.426 1065.97 832.785C1065.97 833.144 1065.87 833.496 1065.69 833.805C1065.51 834.114 1065.24 834.368 1064.93 834.54L1062.07 836.19C1061.57 836.426 1061.14 836.793 1060.83 837.252C1060.52 837.711 1060.33 838.246 1060.3 838.8C1060.33 839.333 1060.5 839.849 1060.8 840.293C1061.09 840.738 1061.5 841.096 1061.98 841.33L1120.18 874.93C1121.24 875.494 1122.43 875.78 1123.63 875.76C1124.87 875.78 1126.1 875.48 1127.19 874.89L1130.3 873.1C1131.46 872.521 1132.74 872.22 1134.03 872.22C1135.33 872.22 1136.61 872.521 1137.77 873.1L1169.43 891.38C1172.79 893.32 1174.64 895.86 1174.64 898.53C1174.64 901.2 1172.73 903.84 1169.27 905.84L837 1097.66C832.813 1099.89 828.123 1101.01 823.38 1100.9V1100.9Z" fill="#232F3A"></path><path d="M1022.29 979.47L890.64 903.47C885.2 900.33 885.88 894.84 892.16 891.21L978.97 841.09C985.26 837.47 994.76 837.09 1000.21 840.21L1131.86 916.21C1137.3 919.36 1136.62 924.84 1130.34 928.47L1043.52 978.59C1037.24 982.22 1027.73 982.62 1022.29 979.47Z" fill="#0C161E"></path><path d="M925.62 1035.37L793.96 959.37C788.52 956.23 789.2 950.74 795.49 947.11L855.72 912.34C862 908.71 871.51 908.34 876.95 911.46L1008.61 987.46C1014.05 990.6 1013.37 996.09 1007.08 999.71L946.85 1034.49C940.57 1038.12 931.06 1038.51 925.62 1035.37Z" fill="#0C161E"></path><path d="M826.759 1092.26L695.109 1016.26C689.669 1013.12 690.349 1007.63 696.629 1004.01L756.859 969.23C763.149 965.6 772.649 965.23 778.099 968.35L909.749 1044.35C915.189 1047.49 914.509 1052.98 908.219 1056.61L847.999 1091.38C841.709 1095 832.199 1095.41 826.759 1092.26Z" fill="#0C161E"></path><path d="M1014.14 953.68L882.49 877.68C877.05 874.54 877.73 869.05 884.01 865.42L970.83 815.3C977.11 811.68 986.62 811.3 992.06 814.42L1123.71 890.42C1129.16 893.57 1128.47 899.05 1122.19 902.68L1035.38 952.8C1029.09 956.43 1019.59 956.83 1014.14 953.68Z" fill="#FA4729"></path><path d="M990.209 884.65L943.589 857.74C941.643 856.752 939.492 856.237 937.309 856.237C935.127 856.237 932.975 856.752 931.029 857.74L977.639 884.65C979.587 885.638 981.74 886.153 983.924 886.153C986.108 886.153 988.262 885.638 990.209 884.65V884.65Z" fill="#FFE6E6"></path><path d="M1041.88 928.64L925.88 861.64C925.622 861.507 925.336 861.437 925.045 861.437C924.755 861.437 924.469 861.507 924.21 861.64C923.75 861.9 923.76 862.33 924.21 862.64L1040.21 929.64C1040.47 929.771 1040.76 929.839 1041.05 929.839C1041.34 929.839 1041.62 929.771 1041.88 929.64C1042.35 929.34 1042.34 928.91 1041.88 928.64Z" fill="#0C161E"></path><path d="M1034.74 932.77L918.739 865.77C918.482 865.641 918.198 865.575 917.909 865.575C917.621 865.575 917.337 865.641 917.079 865.77C916.619 866.04 916.619 866.47 917.079 866.77L1033.08 933.77C1033.34 933.901 1033.62 933.969 1033.91 933.969C1034.2 933.969 1034.49 933.901 1034.75 933.77C1035.2 933.46 1035.2 933 1034.74 932.77Z" fill="#0C161E"></path><path d="M1027.59 936.89L911.591 869.89C911.334 869.757 911.05 869.687 910.761 869.687C910.472 869.687 910.187 869.757 909.931 869.89C909.471 870.15 909.471 870.58 909.931 870.89L1025.93 937.89C1026.19 938.023 1026.47 938.093 1026.76 938.093C1027.05 938.093 1027.33 938.023 1027.59 937.89C1028.05 937.59 1028.05 937.16 1027.59 936.89Z" fill="#0C161E"></path><path d="M956.001 848.5L997.371 872.39C998.953 873.191 1000.7 873.609 1002.48 873.609C1004.25 873.609 1006 873.191 1007.58 872.39L1016.36 867.32C1017.86 866.45 1018.62 865.23 1018.42 864L1017.32 857.21C1016.99 855.15 1014.07 853.53 1010.48 853.42L992.141 852.84C988.611 852.73 985.73 851.16 985.32 849.13L984.401 844.6C984.001 842.6 981.211 841.06 977.751 840.9L963.551 840.27C961.597 840.14 959.645 840.552 957.911 841.46L955.97 842.59C953.14 844.23 953.151 846.87 956.001 848.5Z" fill="#0C161E"></path><path d="M993.129 842.24C994.692 843.032 996.418 843.444 998.169 843.444C999.921 843.444 1001.65 843.032 1003.21 842.24C1005.98 840.64 1005.97 838.03 1003.21 836.42C1001.65 835.628 999.921 835.216 998.169 835.216C996.418 835.216 994.692 835.628 993.129 836.42C990.329 838 990.339 840.63 993.129 842.24Z" fill="#FFE6E6"></path><path d="M1085.1 902.53L1084 895.74C1083.66 893.68 1080.75 892.06 1077.16 891.94L1058.82 891.36C1055.29 891.25 1052.4 889.69 1051.99 887.66L1051.08 883.13C1050.68 881.13 1047.88 879.59 1044.42 879.43L1030.22 878.79C1028.27 878.669 1026.32 879.084 1024.59 879.99L1022.64 881.11C1019.83 882.74 1019.85 885.38 1022.64 887.01L1064.02 910.89C1065.6 911.694 1067.35 912.113 1069.12 912.113C1070.9 912.113 1072.65 911.694 1074.23 910.89L1083 905.83C1084.54 905 1085.3 903.76 1085.1 902.53Z" fill="#0C161E"></path><path d="M1059.83 880.75C1061.39 881.544 1063.11 881.958 1064.86 881.958C1066.61 881.958 1068.34 881.544 1069.9 880.75C1072.68 879.15 1072.66 876.55 1069.9 874.94C1068.34 874.148 1066.61 873.736 1064.86 873.736C1063.11 873.736 1061.39 874.148 1059.83 874.94C1057 876.53 1057 879.14 1059.83 880.75Z" fill="#FFE6E6"></path><path d="M917.161 1009.74L785.511 933.74C780.071 930.6 780.751 925.11 787.041 921.48L847.271 886.71C853.551 883.08 863.061 882.71 868.501 885.83L1000.15 961.83C1005.59 964.97 1004.91 970.46 998.631 974.08L938.401 1008.86C932.111 1012.49 922.611 1012.88 917.161 1009.74Z" fill="#FFE6E6"></path><path d="M910.789 937.41C900.889 931.7 884.879 931.67 875.039 937.35C865.199 943.03 865.249 952.27 875.149 957.99C885.049 963.71 901.059 963.73 910.899 958.05C920.739 952.37 920.689 943.13 910.789 937.41ZM881.609 949.22L895.609 941.14L900.809 952.22L881.609 949.22Z" fill="#FA4729"></path><path d="M819.859 1065.68L688.209 989.68C682.759 986.53 683.449 981.04 689.729 977.42L749.959 942.64C756.249 939.01 765.749 938.64 771.189 941.76L902.849 1017.76C908.289 1020.9 907.609 1026.39 901.319 1030.02L841.089 1064.8C834.809 1068.42 825.299 1068.82 819.859 1065.68Z" fill="#FA4729"></path><path d="M849.739 1005.9C838.739 999.41 820.659 1004.74 815.949 1001.9C811.239 999.06 820.349 994.29 811.469 989.17C802.589 984.05 790.469 991.58 783.199 987.17C776.199 982.9 785.349 978.35 776.069 973.24C771.249 970.6 762.899 970.45 756.309 970.9C753.309 971.1 752.309 973.23 754.539 974.53L843.479 1025.88C845.479 1027.06 848.829 1026.88 849.949 1025.44C854.429 1019.8 857.929 1010.72 849.739 1005.9Z" fill="#FFE6E6"></path><path d="M830.309 1040.62L729.159 982.22C728.82 982.032 728.442 981.925 728.055 981.91C727.668 981.894 727.282 981.97 726.929 982.13C726.359 982.46 726.429 983.04 727.079 983.42L828.239 1041.82C828.576 1042.01 828.953 1042.11 829.338 1042.13C829.724 1042.15 830.108 1042.07 830.459 1041.91C830.999 1041.58 830.999 1041 830.309 1040.62Z" fill="#0C161E"></path><path d="M839.23 1035.47L738.08 977.07C737.741 976.882 737.363 976.776 736.976 976.76C736.589 976.744 736.203 976.82 735.85 976.98C735.28 977.31 735.35 977.89 736.01 978.27L837.16 1036.67C837.499 1036.86 837.877 1036.96 838.264 1036.98C838.652 1037 839.037 1036.92 839.39 1036.76C840 1036.43 839.89 1035.85 839.23 1035.47Z" fill="#0C161E"></path></svg>