<svg xmlns="http://www.w3.org/2000/svg" width="404.898" height="396.312" viewBox="0 0 404.898 396.312"><defs><style>.a,.h{fill:#ff6000;}.b,.d,.e,.g,.k,.m{fill:#fff;}.b{opacity:0.7;}.c,.i,.l,.n,.o{fill:none;}.c,.e,.h,.i,.l{stroke:#263238;}.c,.e,.l,.n,.o{stroke-linecap:round;stroke-linejoin:round;}.c,.e,.h,.i,.k,.l,.n,.o{stroke-width:1.103px;}.c{stroke-dasharray:4.412;}.d{opacity:0.5;}.f{fill:#263238;}.g,.j,.n{opacity:0.2;}.h,.i,.k{stroke-miterlimit:10;}.k{stroke:#222221;}.n,.o{stroke:#fff;}.p{fill:#d8d8d8;}.q{fill:#95bf46;}</style></defs><g transform="translate(3965.85 7679.926)"><g transform="translate(-3965.85 -7679.926)"><g transform="translate(0 0)"><path class="a" d="M423.38,196.131c-44.946-76.981-166.864-49.566-191.762-87.005-12.753-19.144-27.019-41.4-47.712-52.95-19.725-11.066-42.594-14.948-62.531-13.491C50.176,47.9,19.994,111.6,33.669,181.552c18.259,93.313,100.976,188.636,199.24,189.3,51.4.387,100.515-18.056,138.969-44l.858-.581C411.189,300.1,457.7,254.9,423.38,196.131Z" transform="translate(-30.46 -42.392)"></path><path class="b" d="M423.38,196.131c-44.946-76.981-166.864-49.566-191.762-87.005-12.753-19.144-27.019-41.4-47.712-52.95-19.725-11.066-42.594-14.948-62.531-13.491C50.176,47.9,19.994,111.6,33.669,181.552c18.259,93.313,100.976,188.636,199.24,189.3,51.4.387,100.515-18.056,138.969-44l.858-.581C411.189,300.1,457.7,254.9,423.38,196.131Z" transform="translate(-30.46 -42.392)"></path></g><g transform="translate(18.793 20.323)"><path class="c" d="M76.061,215.18h-5A20.223,20.223,0,0,0,50.84,235.4V346.375A20.223,20.223,0,0,0,71.063,366.6h68.571a20.223,20.223,0,0,0,20.223-20.223h0" transform="translate(-50.84 -76.165)"></path><path class="c" d="M163,98.734V76.815A12.385,12.385,0,0,1,175.357,64.43h89.172a12.384,12.384,0,0,1,12.384,12.384h0" transform="translate(-59.571 -64.43)"></path></g><g transform="translate(25.839 346.959)"><ellipse class="a" cx="176.611" cy="24.677" rx="176.611" ry="24.677"></ellipse><ellipse class="d" cx="176.611" cy="24.677" rx="176.611" ry="24.677"></ellipse></g><g transform="translate(35.964 63.563)"><path class="e" d="M402.431,131.792V297.835a20.472,20.472,0,0,1-20.463,20.472H89.923A20.472,20.472,0,0,1,69.46,297.835V131.792a10.938,10.938,0,0,1,.065-1.439,20.453,20.453,0,0,1,20.4-19.033H381.969a20.453,20.453,0,0,1,20.4,19.07A13.754,13.754,0,0,1,402.431,131.792Z" transform="translate(-69.46 -111.32)"></path><path class="f" d="M80.26,140.28H394.355V293.662a19.181,19.181,0,0,1-19.181,19.181H99.45a19.181,19.181,0,0,1-19.181-19.181V140.28Z" transform="translate(-70.301 -113.574)"></path><path class="g" d="M394.364,140.28V293.662A19.079,19.079,0,0,1,375.4,312.843H99.229A19.079,19.079,0,0,1,80.26,293.662V140.28Z" transform="translate(-70.301 -113.574)"></path><path class="h" d="M402.372,130.393H69.53a20.453,20.453,0,0,1,20.4-19.033H381.974a20.453,20.453,0,0,1,20.4,19.033Z" transform="translate(-69.465 -111.323)"></path><path class="f" d="M113.268,121.334a3.624,3.624,0,1,1-3.624-3.624,3.624,3.624,0,0,1,3.624,3.624Z" transform="translate(-72.306 -111.817)"></path><path class="f" d="M129.888,121.334a3.624,3.624,0,1,1-3.624-3.624,3.624,3.624,0,0,1,3.624,3.624Z" transform="translate(-73.6 -111.817)"></path><circle class="f" cx="3.624" cy="3.624" r="3.624" transform="translate(64.366 5.893)"></circle><path class="i" d="M394.357,140.28V293.662a19.181,19.181,0,0,1-19.181,19.181H99.452a19.18,19.18,0,0,1-18.811-15.452v-.059a19.365,19.365,0,0,1-.35-3.689V140.28Z" transform="translate(-70.303 -113.574)"></path><path class="f" d="M417.479,165.2a19.311,19.311,0,0,0-4.26-1.761l-1.724-7.7h-7.322l-1.706,7.7a18.674,18.674,0,0,0-4.279,1.761l-6.612-4.233-5.173,5.155,4.159,6.612a18.767,18.767,0,0,0-1.761,4.279l-7.7,1.706v7.322l7.7,1.724a18.448,18.448,0,0,0,1.761,4.3l-4.233,6.658,5.183,5.173,6.649-4.233a18.8,18.8,0,0,0,4.27,1.771l1.715,7.691h7.294l1.715-7.691a19.162,19.162,0,0,0,4.26-1.771l.341.221V165.017Zm-9.627,26.742a9.461,9.461,0,1,1,9.461-9.452,9.461,9.461,0,0,1-9.461,9.452Z" transform="translate(-93.72 -114.778)"></path><path class="f" d="M267.943,171.421V155.984l-16.23-3.606a41.968,41.968,0,0,0-3.689-9.009l1.964-3.089H173.357l1.89,3.006a39.653,39.653,0,0,0-3.689,9L155.32,155.9v15.474L171.559,175a40.251,40.251,0,0,0,3.689,9.074L166.331,198.1l10.928,10.918,14.017-8.926a40.924,40.924,0,0,0,9.009,3.735l3.615,16.184h15.4l3.633-16.221a41.165,41.165,0,0,0,8.982-3.735l14.026,8.926,10.918-10.918L248,184.036a42.3,42.3,0,0,0,3.689-8.991Zm-56.251,12.228A19.946,19.946,0,1,1,231.637,163.7a19.946,19.946,0,0,1-19.946,19.946Z" transform="translate(-76.144 -113.574)"></path><path class="f" d="M159.676,284.485l.655-12.255-12.7-3.578a34.311,34.311,0,0,0-2.6-7.285L152.7,250.6l-8.226-9.12-11.49,6.455a33.665,33.665,0,0,0-7-3.347l-2.195-13.021L111.549,231l-3.541,12.735a32.278,32.278,0,0,0-7.285,2.582l-10.762-7.663-9.139,8.216,6.51,11.5a32.276,32.276,0,0,0-3.357,6.99l-3.689.609v16.6l2.693.756a31.907,31.907,0,0,0,2.573,7.294l-5.293,7.423.35,6.354v.055l5.468,6.059,11.508-6.5a31.964,31.964,0,0,0,7.018,3.384l2.158,12.5h0l.1.526,12.246.646.323-1.171h0l3.218-11.555a32.764,32.764,0,0,0,7.322-2.582l10.743,7.654,9.129-8.207L143.391,293.7a31.839,31.839,0,0,0,3.311-6.981ZM127.151,265.35a214.272,214.272,0,1,0,0,.037Z" transform="translate(-70.301 -120.637)"></path><path class="f" d="M267.708,265.827a25.131,25.131,0,0,0,.747-5.8l8.807-4.611-2.434-8.936-9.941.461a25.148,25.148,0,0,0-3.569-4.611l2.942-9.507-8.023-4.611-6.713,7.322a26.563,26.563,0,0,0-5.782-.738l-4.611-8.807-8.926,2.425.47,9.95a25.118,25.118,0,0,0-4.611,3.569l-9.517-2.942-4.611,8.014,7.377,6.7a23.976,23.976,0,0,0-.729,5.782L209.76,264.1l2.434,8.926,9.959-.47a23.415,23.415,0,0,0,3.55,4.611l-2.96,9.461,8.032,4.611,6.676-7.267a24.087,24.087,0,0,0,5.8.729l4.611,8.816,8.926-2.425-.4-8.5-.065-1.457a24.354,24.354,0,0,0,4.666-3.569l9.507,2.951,3.928-6.861.664-1.162Zm-21.09,5.422a11.988,11.988,0,1,1,8.392-14.662A11.988,11.988,0,0,1,246.618,271.249Z" transform="translate(-80.382 -120.247)"></path><path class="f" d="M375.769,281.224,377.8,268.96l-12.412-4.989a32.522,32.522,0,0,0-1.78-7.654l8.936-9.95-7.23-10.144-12.32,5.229a32.628,32.628,0,0,0-6.658-4.131l-.719-13.362L333.35,221.93l-5.026,12.357a34.258,34.258,0,0,0-7.626,1.8l-9.978-8.936-10.1,7.23,5.238,12.311a33.416,33.416,0,0,0-3.735,5.8c-.138.286-.286.572-.415.858l-13.353.738-2.038,12.246,2.01.811,10.4,4.2a32.441,32.441,0,0,0,1.78,7.617l-8.954,10.015,7.239,10.144,12.311-5.256a32.33,32.33,0,0,0,6.649,4.168l.692,13.3,12.255,2.029,5.017-12.265a32.4,32.4,0,0,0,7.635-1.789l9.959,8.936L363.458,301l-5.238-12.32a32.068,32.068,0,0,0,4.2-6.686Zm-34.4-.553a11.5,11.5,0,1,0-.018,0Z" transform="translate(-86.342 -119.931)"></path></g><g transform="translate(50.654 38.969)"><rect class="h" width="120.618" height="157.697" rx="13.11" transform="translate(0 95.092)"></rect><rect class="j" width="120.618" height="157.697" rx="13.11" transform="translate(0 95.092)"></rect><path class="e" d="M218.178,212.779V346.3a12.089,12.089,0,0,1-12.089,12.1H109.65a12.089,12.089,0,0,1-12.08-12.1V212.779a12.089,12.089,0,0,1,12.08-12.089h96.439a12.089,12.089,0,0,1,12.089,12.089Z" transform="translate(-86.338 -93.683)"></path><path class="h" d="M218.178,212.779v7.147H97.57v-7.147a12.089,12.089,0,0,1,12.08-12.089h96.439a12.089,12.089,0,0,1,12.089,12.089Z" transform="translate(-86.338 -93.683)"></path><rect class="a" width="29.675" height="4.98" transform="translate(22.574 134.524)"></rect><rect class="a" width="29.675" height="4.98" transform="translate(22.574 179.147)"></rect><rect class="a" width="29.675" height="4.98" transform="translate(22.574 219.611)"></rect><rect class="f" width="84.276" height="3.652" transform="translate(22.574 146.853)"></rect><rect class="f" width="69.078" height="3.56" transform="translate(22.574 153.834)"></rect><rect class="f" width="78.125" height="3.56" transform="translate(22.574 160.704)"></rect><rect class="f" width="78.125" height="3.56" transform="translate(22.574 167.564)"></rect><rect class="f" width="84.276" height="3.652" transform="translate(22.574 187.317)"></rect><rect class="f" width="69.078" height="3.56" transform="translate(22.574 194.298)"></rect><rect class="f" width="78.125" height="3.56" transform="translate(22.574 201.168)"></rect><rect class="f" width="84.276" height="3.652" transform="translate(22.574 231.746)"></rect><rect class="f" width="69.078" height="3.56" transform="translate(22.574 238.736)"></rect><rect class="f" width="78.125" height="3.56" transform="translate(22.574 245.606)"></rect><path class="k" d="M362.843,99.072v53.964A14.413,14.413,0,0,1,348.42,167.45H224.132a14.413,14.413,0,0,1-14.422-14.413V99.072A14.432,14.432,0,0,1,224.132,84.65H348.42a14.422,14.422,0,0,1,14.422,14.422Z" transform="translate(-95.068 -84.65)"></path><path class="h" d="M362.843,99.072v1.236H209.71V99.072A14.432,14.432,0,0,1,224.132,84.65H348.42a14.422,14.422,0,0,1,14.422,14.422Z" transform="translate(-95.068 -84.65)"></path><path class="f" d="M233.791,95.621a2.213,2.213,0,1,1,0-3.126A2.213,2.213,0,0,1,233.791,95.621Z" transform="translate(-96.648 -85.21)"></path><path class="f" d="M244.911,95.621a2.213,2.213,0,1,1,0-3.126A2.213,2.213,0,0,1,244.911,95.621Z" transform="translate(-97.514 -85.21)"></path><path class="f" d="M256.031,95.621a2.213,2.213,0,1,1,0-3.126A2.213,2.213,0,0,1,256.031,95.621Z" transform="translate(-98.38 -85.21)"></path><rect class="c" width="50.054" height="43.267" transform="translate(124.408 25.581)"></rect><rect class="f" width="57.607" height="3.043" transform="translate(182.19 25.581)"></rect><rect class="f" width="44.19" height="3.034" transform="translate(182.19 31.879)"></rect><rect class="f" width="65.796" height="3.071" transform="translate(182.19 38.149)"></rect><rect class="f" width="56.03" height="3.071" transform="translate(182.19 44.263)"></rect><rect class="e" width="40.215" height="28.578" rx="6.53" transform="translate(237.768 148.356)"></rect><path class="l" d="M356.647,254.85,348.91,259.7l7.184,6.363" transform="translate(-105.904 -97.9)"></path><path class="l" d="M372.49,266.567l6.953-5.92-8.023-5.256" transform="translate(-107.657 -97.942)"></path><line class="l" y1="17.908" x2="5.708" transform="translate(254.505 154.368)"></line></g><g transform="translate(182.491 152.655)"><path class="a" d="M291.527,439.592s-26.742,7.663-30.477,8.991c-3.394,1.2-12.6,4.426-19.5,3.421a14.654,14.654,0,0,1-1.973-.424c-7-2.084-10.144-4.03-11.066-8.428s2.564-7.645,5.92-9.719,21.56-4.242,21.56-4.242l4.4,1.291h0Z" transform="translate(-228.357 -225.157)"></path><path class="m" d="M241.547,452a14.654,14.654,0,0,1-1.973-.424c-7-2.084-10.144-4.03-11.066-8.428s2.564-7.645,5.92-9.719,21.56-4.242,21.56-4.242l4.4,1.291c-3.984,1.844-18.812,2.849-22.049,4.712s-4.8,5.367-2.886,10.144C236.475,447.827,239.2,450.27,241.547,452Z" transform="translate(-228.357 -225.157)"></path><path class="l" d="M287.517,440.773s-20.084,5.2-28.052,8.53-23.155,4.786-28.587-2.075-.627-12.781,4.786-14.1,16.359-3.394,22.335-2.554" transform="translate(-228.367 -225.25)"></path><path class="l" d="M242.456,451.753s-10.217-5.607-6.824-13.463c2.508-5.791,16.138-4.537,22.888-7.7" transform="translate(-228.87 -225.266)"></path><path class="a" d="M380.484,453.209c-.277,2.766-1.245,5.358-4.011,6.99-1.844,1.088-4.463,1.734-8.216,1.7-9.378-.12-27.01-6.824-27.01-6.824l-16.507-9.129,8.585-13.583,2.351-3.689,6.068,1.365s5.026,2.849,10.079,5.118,17.327,2.766,21.652,6.243S380.954,448.653,380.484,453.209Z" transform="translate(-235.86 -225.117)"></path><path class="m" d="M381.209,453.209c-.277,2.766-1.245,5.358-4.011,6.99a12.348,12.348,0,0,0-.461-8.244c-1.844-4.14-7.848-7.792-15.741-8.4s-13.934-4.3-17.1-5.948c-2.471-1.282-7.682-4.085-9.849-5.247l2.351-3.689,6.068,1.365s5.026,2.849,10.079,5.118,17.327,2.766,21.652,6.243S381.679,448.653,381.209,453.209Z" transform="translate(-236.585 -225.117)"></path><path class="l" d="M328.565,448.965a104.074,104.074,0,0,0,38.638,13.2c3.006.36,6.5.415,8.512-1.844A6.289,6.289,0,0,0,377.1,455.6c-.36-4.242-3.928-7.6-7.838-9.286s-8.216-2.075-12.375-3.006a49.226,49.226,0,0,1-11.9-4.353c-2.988-1.559-5.874-3.449-9.166-4.15s-7.211.148-8.973,3.025" transform="translate(-236.024 -225.577)"></path><path class="l" d="M375.321,461.118a10.992,10.992,0,0,0,6.04-7.8c.6-3.993-1.678-8.014-4.878-10.466s-7.211-3.615-11.167-4.436-8-1.374-11.794-2.877c-5.782-2.268-11.49-6.732-17.521-5.136" transform="translate(-236.737 -225.225)"></path><path class="a" d="M340.47,293.355l-27.932-10.623-.35-.138s.1-.738.184-1.844c.175-2.232.267-5.865-.784-7.091-1.558-1.844-5.966-.3-10.273-2.268s-12.265,1.558-12.265,1.558-5.754-1.06-8.3,3.089c-1.291,3.347-.848,8.3-.848,8.3l-.526.184c-3.329,1.245-21.44,8.06-25.267,10.8-4.233,3-8.917,33.769-10.42,42.806s-4.177,17.18-2.822,20.287,20.813,18.093,32.008,21.956,50.894,2.766,50.894,2.766.646-.175,1.8-.544c6.713-2.158,30.533-11.066,43.175-31.98C368.762,350.649,356.516,310.507,340.47,293.355ZM265,345.116c-2.056,1.457-.922,7.1-.922,7.1l-3.495-3.08,8.779-21.588,3.744,16.6S267.058,343.668,265,345.116Zm70.231,13.712c-.968.5,2.766-9.876,1-12.228s-7.11-2.13-7.11-2.13l.452-2.831,3.163-16.23,1.051-1.245s10.863,18.618,12.809,25.184C346.593,349.367,334.753,358.828,335.233,358.828Z" transform="translate(-229.302 -212.826)"></path><path class="m" d="M290.386,222.25l-14.422,15.308s-1.983,1.761-1.2,6.2,2.628,8.3,4.021,8.558a19.706,19.706,0,0,0,3.338.3s3.089,6.695,5.284,9.323c0,0,.756,10.337.35,13.205,0,0,5.182,4.528,10.061,5.1s12.412-6.9,12.412-6.9l1.844-9.148s4.426-6.713,4.721-8.5,2.324-1.328,3.32-2.213a16.952,16.952,0,0,0,3.689-8.548c.4-3.725.406-8-3.919-6.75-3.753-1.005-1.4-8.936-1.4-8.936l-6.593-5.81Z" transform="translate(-231.955 -209.048)"></path><path class="d" d="M315.822,282.737a16.306,16.306,0,0,1-.747,1.669c-2.379,4.482-12.744,13.03-12.744,13.03L299.2,287.8l-1.715,9.637c-3.458-1.512-14.007-10.651-14.007-10.651s-.36-.858-.793-2.195l.526-.184s-.443-4.989.848-8.3c2.527-4.15,8.3-3.089,8.3-3.089s7.958-3.532,12.265-1.558,8.714.443,10.273,2.268.6,8.908.6,8.908Z" transform="translate(-232.586 -212.832)"></path><path class="j" d="M346.14,294.2l-27.932-10.623-.35-.138s.1-.738.184-1.844l-.581,3.624-4.131,5.607a114.334,114.334,0,0,1,12.91,5.68,11.324,11.324,0,0,1,5.9,11.287L327,351.821l-2.112,25,6.372,6.612c6.713-2.158,30.533-11.066,43.175-31.98C374.432,351.489,362.186,311.348,346.14,294.2ZM340.9,359.669c-.968.5,2.766-9.876,1-12.228s-7.11-2.13-7.11-2.13l.452-2.831,3.163-16.23L339.455,325s10.863,18.618,12.809,25.184C352.263,350.207,340.423,359.669,340.9,359.669Z" transform="translate(-234.972 -213.667)"></path><path class="j" d="M275.471,348.979l-4.343-14.515S263.335,307.9,258,301.35l1.4,18.683s-4.611,22.316-8.825,28.946-5.155,8.3,0,8.3,17.705,10,17.705,10l-.968-8.3ZM264.525,354.6l-3.495-3.08,8.779-21.588,3.744,16.6s-6.012-.452-8.069,1S264.525,354.6,264.525,354.6Z" transform="translate(-229.812 -215.205)"></path><path class="l" d="M288.49,265.28s.793,7.829,0,11.407" transform="translate(-233.038 -212.397)"></path><path class="l" d="M314.11,275.879a33.684,33.684,0,0,1,.867-7.479" transform="translate(-235.033 -212.64)"></path><path class="l" d="M313.7,228.58s4.74,5.948,4.491,10.448-.6,9.83-.479,15.05-8.382,16.156-12.753,17.124-8.133,1.217-10.927-1.577-5.588-6.676-9.222-11.656-2.766-15.907-2.766-15.907" transform="translate(-232.529 -209.54)"></path><path class="f" d="M288.84,269.636s2.813,7.746,9.092,9.95,14.616-9.222,14.616-9.222l-.433-1.485s-5.468,7.1-11.545,5.893-12.08-9.452-12.08-9.452Z" transform="translate(-233.038 -212.4)"></path><path class="l" d="M282.139,253.55s-3.744,1.319-4.74-1.6-4.408-10.6-1.42-13.159,5.385,3.384,5.385,3.384" transform="translate(-231.971 -210.286)"></path><path class="l" d="M320.72,255.218s3.477.7,4.472-2.213,4.408-10.6,1.42-13.159-5.385,3.384-5.385,3.384" transform="translate(-235.547 -210.367)"></path><path class="f" d="M281.023,247.306a5.182,5.182,0,0,0,3.283-1.937,8.061,8.061,0,0,0,.922-2.942,34.665,34.665,0,0,0,.516-5.939,8.122,8.122,0,0,1,.212-2.315,6.087,6.087,0,0,1,1.254-2.056c1.3-1.531,2.877-2.822,4.122-4.408a7.377,7.377,0,0,0,1.844-5.533,25.313,25.313,0,0,0,20.721,5.358c6.593-1.291,12.91-7.073,12.145-14.339a5.874,5.874,0,0,0-4.611-5.053c-3.255-.812-6.178.922-9.129,2.038-5.376,2.029-10.642-1.457-16.073-2.038-4.611-.507-10.356.074-12.772,4.694,0,0-8.3.977-11.988,7.838s3.292,16.35,3.292,16.35,2.766-3.394,6.391,3.467Z" transform="translate(-231.629 -207.933)"></path><path class="f" d="M316.966,226.434s-2.158,11.25,3.477,16.7c0,0,1.236-3.384,2.481-4.214a13.03,13.03,0,0,0-.987-12.486C317.768,219.887,316.966,226.434,316.966,226.434Z" transform="translate(-235.223 -209.147)"></path><path class="n" d="M324.459,212.8A10.6,10.6,0,0,1,318,219.5c-7.82,3.191-15.409-.341-23.247-1.033-6.391-.572-13.445,5.2-13.9,11.767" transform="translate(-232.444 -208.312)"></path><path class="n" d="M275.63,228.812a13.657,13.657,0,0,1,8.3-12.062" transform="translate(-232.037 -208.619)"></path><path class="l" d="M286.53,276.432a35.7,35.7,0,0,0,12.182,8.3s9.36-2.72,14.118-9.222" transform="translate(-232.886 -213.194)"></path><path class="l" d="M288.082,273.16a6.455,6.455,0,0,0-3.993,3.089c-1.466,2.582-.581,10.706-.581,10.706s7.571,7.488,14.017,10.651l1.9-10.688,2.951,10.688s9.978-7.054,12.744-13.021c0,0,.922-6.962,0-9.222a3.2,3.2,0,0,0-2.979-2.185" transform="translate(-232.63 -213.011)"></path><path class="l" d="M275.048,348.344s-2.96-19.826-6.9-27.914" transform="translate(-231.455 -216.691)"></path><path class="l" d="M258.92,301.35a80.227,80.227,0,0,1,6.123,10.245" transform="translate(-230.736 -215.205)"></path><path class="l" d="M343.23,316.583a57.263,57.263,0,0,1,3.255-9.673" transform="translate(-237.299 -215.638)"></path><path class="l" d="M336.6,348.607s2.13-13.593,4.675-24.787" transform="translate(-236.783 -216.955)"></path><path class="l" d="M340.52,329.524a15.677,15.677,0,0,1,8.244-5.644" transform="translate(-237.089 -216.959)"></path><path class="l" d="M318.25,283.59s17.18,6.87,28.273,10.771c0,0,13.648,12.827,28.282,57.284,0,0-13.408,22.556-38.915,29.786" transform="translate(-235.355 -213.823)"></path><path class="l" d="M342.18,366.031l12.329-10.264s6.52-4.952,13.3-1.568" transform="translate(-237.218 -219.227)"></path><path class="l" d="M341.67,328.67s10.19,15.059,12.8,25.2" transform="translate(-237.178 -217.332)"></path><path class="l" d="M264.882,359.414l-3.606-3.421s-5.348-.922-11.416,3.126" transform="translate(-230.031 -219.452)"></path><path class="l" d="M262.24,354.117s4.482-14.754,8.9-22.307" transform="translate(-230.995 -217.577)"></path><path class="l" d="M279.955,285.55s-24.723,9.277-27.148,11.988-11.638,54.582-11.887,60.521c-.212,5.312,19.043,17.235,28.587,22.261" transform="translate(-229.335 -213.975)"></path><path class="f" d="M303.024,304.422a1.623,1.623,0,1,1-.475-1.157A1.632,1.632,0,0,1,303.024,304.422Z" transform="translate(-233.915 -215.317)"></path><path class="f" d="M329.46,398.557H273.209a1.319,1.319,0,0,1-1.319-1.319h0a1.319,1.319,0,0,1,1.319-1.319H329.46a1.319,1.319,0,0,1,1.319,1.319h0a1.319,1.319,0,0,1-1.319,1.319Z" transform="translate(-231.746 -222.567)"></path><path class="e" d="M330.917,390.627l7.534-35.411a3.762,3.762,0,0,0-3.689-4.546h-65.75a3.762,3.762,0,0,0-3.689,4.5l6.759,34.23a3.762,3.762,0,0,0,3.606,3.034l51.447,1.18a3.781,3.781,0,0,0,3.781-2.988Z" transform="translate(-231.229 -219.045)"></path><path class="f" d="M309.554,372.386a5.247,5.247,0,1,1-1.534-3.716,5.247,5.247,0,0,1,1.534,3.716Z" transform="translate(-233.861 -220.326)"></path><line class="l" x2="7.811" transform="translate(86.012 135.01)"></line><line class="l" x2="29.647" transform="translate(48.711 135.01)"></line><path class="f" d="M328.526,430.757l-5.994,15.732s-15.289-3.855-34.867-7.866c-20.481-4.2-41.866-9.627-52.959-29.094-1.346-2.37-2.25-5.173-1.614-7.829,1.6-6.722,10.347-8.548,16.11-9.222a105.045,105.045,0,0,1,10.909-.609c1.844,0,7.977-1.005,9.461.092a43.472,43.472,0,0,0,7.11,4.214c3.274,1.392,51.06-1.245,51.06-1.245a17.141,17.141,0,0,0,1.5-5.745c7.516-3.818,24.9-7.045,32.275-5.616,11.555,2.241,18.3,8.982,17.014,16.045S351.727,425.621,328.526,430.757Z" transform="translate(-228.709 -221.579)"></path><path class="o" d="M331.187,432.445s-14.542-3.855-26.42-11.877-21.154-17.336-37.707-15.409" transform="translate(-231.37 -223.266)"></path><path class="o" d="M305,417.724c7.506-2.158,13.012-7.018,19.033-11.674a128.749,128.749,0,0,1,20.37-13.39" transform="translate(-234.323 -222.313)"></path></g></g><g transform="translate(-3726.354 -7428.683)"><path class="m" d="M19.764,5.766a.248.248,0,0,0-.224-.208L17.479,5.4S16.112,4.047,15.962,3.9a.622.622,0,0,0-.557-.071l-.765.236c-.457-1.314-1.263-2.522-2.681-2.522-.039,0-.079,0-.12,0A1.723,1.723,0,0,0,10.5.779c-3.3,0-4.881,4.129-5.376,6.228l-2.312.717c-.716.225-.739.247-.833.922C1.913,9.157.038,23.655.038,23.655l14.607,2.737,7.915-1.712s-2.778-18.785-2.8-18.913ZM13.832,4.312,12.6,4.694c0-.087,0-.173,0-.267a6.063,6.063,0,0,0-.3-2C13.032,2.524,13.519,3.355,13.832,4.312ZM11.4,2.594a6.127,6.127,0,0,1,.335,2.225c0,.05,0,.1,0,.143l-2.553.791A4.365,4.365,0,0,1,11.4,2.594Zm-.981-.929a.746.746,0,0,1,.424.143c-1.059.5-2.193,1.753-2.673,4.258l-2.018.625c.561-1.911,1.894-5.026,4.267-5.026Z" transform="translate(-0.038 -0.779)"></path><path class="p" d="M170.618,36.8l-2.062-.154s-1.367-1.357-1.517-1.508a.375.375,0,0,0-.211-.1l-1.1,22.591,7.914-1.712s-2.779-18.785-2.8-18.913a.248.248,0,0,0-.224-.208" transform="translate(-151.116 -32.021)"></path><path class="q" d="M47.687,100.629l-.976,2.9a4.489,4.489,0,0,0-1.9-.456c-1.537,0-1.614.964-1.614,1.207,0,1.326,3.456,1.834,3.456,4.94,0,2.443-1.55,4.017-3.639,4.017a5.063,5.063,0,0,1-3.79-1.561l.671-2.218a4.8,4.8,0,0,0,2.43,1.132.98.98,0,0,0,1.022-.99c0-1.729-2.835-1.807-2.835-4.649,0-2.392,1.717-4.707,5.182-4.707a4.263,4.263,0,0,1,1.995.382" transform="translate(-35.766 -91.477)"></path></g></g></svg>