<?xml version="1.0" encoding="utf-8"?>
<!-- Generator: Adobe Illustrator 25.3.1, SVG Export Plug-In . SVG Version: 6.00 Build 0)  -->
<svg version="1.1" id="Layer_1" xmlns="http://www.w3.org/2000/svg" xmlns:xlink="http://www.w3.org/1999/xlink" x="0px" y="0px"
	 viewBox="0 0 2048 2048" style="enable-background:new 0 0 2048 2048;" xml:space="preserve">
<style type="text/css">
	.st0{fill:#FDF0D6;}
	.st1{fill:url(#SVGID_1_);}
	.st2{fill:url(#SVGID_2_);}
	.st3{clip-path:url(#SVGID_4_);fill:#00AEEF;}
	.st4{clip-path:url(#SVGID_4_);fill:url(#SVGID_5_);}
	.st5{fill:#601D70;}
	.st6{fill:#904BA0;}
</style>
<rect class="st0" width="2048" height="2048"/>
<g>
	<g>
		<g>
			<linearGradient id="SVGID_1_" gradientUnits="userSpaceOnUse" x1="555.5673" y1="714.236" x2="1082.9032" y2="970.9286">
				<stop  offset="0" style="stop-color:#904BA0"/>
				<stop  offset="1" style="stop-color:#601D70"/>
			</linearGradient>
			<path class="st1" d="M1214.48,1498.46c-111.02,67.27-265.81-33-383.44-88.85c-171.41-81.37-314.86-226.15-340.69-399.26
				c-10.17-68.13-1.45-139.74,33.24-201.29s96.88-111.97,171.1-129.18c50.75-11.77,104.05-7.98,156.18-12.41
				c81.05-6.88,160-34.21,225.48-78.08c35.58-23.84,68.12-52.88,109.48-67.21c48.05-16.65,103.32-10.87,149.38,9.27
				c46.06,20.14,83.62,53.53,113.48,90.93c85.86,107.52,110.48,248.86,85.36,379.92S1406.57,1382.06,1214.48,1498.46z"/>
			<linearGradient id="SVGID_2_" gradientUnits="userSpaceOnUse" x1="544.8873" y1="736.1761" x2="1072.2233" y2="992.8688">
				<stop  offset="0" style="stop-color:#904BA0"/>
				<stop  offset="1" style="stop-color:#601D70"/>
			</linearGradient>
			<path class="st2" d="M1071.95,1532c-43.66,9.37-90.58,0.18-142.85-27.88c-51.28-27.53-101.39-69.9-145.61-107.29
				c-16.09-13.6-31.28-26.45-46.13-38.31c-74.9-59.87-135.58-132.43-175.5-209.85c-21-40.74-36.06-82.48-44.74-124.07
				c-9.15-43.81-11.25-87.62-6.25-130.19c4.19-35.65,13.33-69.73,27.15-101.31c14.74-33.69,34.54-63.77,58.83-89.41
				c25.33-26.74,56.79-49.15,90.99-64.83c35.65-16.34,74.18-25.23,111.44-25.7c34.62-0.44,68.95,5.99,102.15,12.22
				c17.38,3.26,35.36,6.63,53.11,8.96c39.72,5.21,80.34,5.45,120.72,0.7c40.39-4.74,79.65-14.36,116.72-28.59
				c10.54-4.05,21.18-8.56,31.47-12.93c29.63-12.58,60.28-25.6,93.27-29.48c25.16-2.96,51.08-0.52,77.05,7.26
				c24.15,7.23,47.64,19.06,67.94,34.23c36.04,26.94,65.35,65.27,87.1,113.93c26.8,59.96,38.35,125.8,34.35,195.71
				c-3.74,65.22-21.56,132.64-51.54,194.98c-34.98,72.75-95.35,157.68-161.48,227.19c-40.87,42.96-83.92,80.36-127.94,111.16
				c-50.16,35.1-101.62,61.6-152.95,78.77C1083.54,1529.17,1077.77,1530.75,1071.95,1532z M1086.97,1521.66l1.14,2.8
				L1086.97,1521.66c50.7-16.95,101.56-43.16,151.18-77.87c43.67-30.56,86.38-67.67,126.96-110.32
				c65.72-69.07,125.69-153.43,160.42-225.66c29.66-61.69,47.3-128.4,51-192.91c3.96-69.04-7.44-134.04-33.88-193.19
				c-21.34-47.74-50-85.28-85.2-111.59c-19.67-14.7-42.43-26.17-65.81-33.17c-25.02-7.49-49.95-9.84-74.1-7
				c-31.96,3.76-62.12,16.57-91.29,28.95c-10.34,4.39-21.04,8.94-31.7,13.03c-37.63,14.45-77.49,24.21-118.47,29.03
				s-82.22,4.57-122.54-0.72c-17.96-2.36-36.03-5.74-53.51-9.02c-32.85-6.16-66.81-12.53-100.71-12.1
				c-72.06,0.92-145.86,33.97-197.43,88.41c-23.81,25.13-43.22,54.64-57.69,87.71c-13.6,31.07-22.59,64.63-26.72,99.74
				c-4.94,42-2.86,85.22,6.17,128.46c8.59,41.1,23.47,82.38,44.25,122.67c39.54,76.69,99.67,148.59,173.9,207.92
				c14.91,11.92,30.14,24.79,46.26,38.43c43.97,37.18,93.81,79.31,144.48,106.52C989.94,1529.8,1040.45,1537.22,1086.97,1521.66z"/>
		</g>
	</g>
	<g>
		<defs>
			<path id="SVGID_3_" d="M1780.17,1159.77v-267.8c0-15.31,12.41-27.72,27.72-27.72c15.31,0,27.72,12.41,27.72,27.72v267.8
				c0,15.31-12.41,27.72-27.72,27.72C1792.58,1187.48,1780.17,1175.07,1780.17,1159.77z M1695.9,1166.88
				c15.31,0,27.72-12.41,27.72-27.72v-296.6c0-15.31-12.41-27.72-27.72-27.72s-27.72,12.41-27.72,27.72v296.6
				C1668.19,1154.47,1680.6,1166.88,1695.9,1166.88z M1583.92,1216.39c15.31,0,27.72-12.41,27.72-27.72V767.74
				c0-15.31-12.41-27.72-27.72-27.72c-15.31,0-27.72,12.41-27.72,27.72v420.93C1556.21,1203.98,1568.62,1216.39,1583.92,1216.39z
				 M1471.93,1333.33c15.31,0,27.72-12.41,27.72-27.72V705.04c0-15.31-12.41-27.72-27.72-27.72c-15.31,0-27.72,12.41-27.72,27.72
				v600.58C1444.22,1320.92,1456.63,1333.33,1471.93,1333.33z M1359.96,1400.28c15.31,0,27.72-12.41,27.72-27.72V681.48
				c0-15.31-12.41-27.72-27.72-27.72c-15.31,0-27.72,12.41-27.72,27.72v691.08C1332.24,1387.87,1344.65,1400.28,1359.96,1400.28z
				 M1247.98,1389.63c15.31,0,27.72-12.41,27.72-27.72V703.42c0-15.31-12.41-27.72-27.72-27.72c-15.31,0-27.72,12.41-27.72,27.72
				v658.49C1220.26,1377.22,1232.67,1389.63,1247.98,1389.63z M1135.99,1331.66c15.31,0,27.72-12.41,27.72-27.72V782.16
				c0-15.31-12.41-27.72-27.72-27.72c-15.31,0-27.72,12.41-27.72,27.72v521.78C1108.27,1319.25,1120.68,1331.66,1135.99,1331.66z
				 M1024.01,1262.18c15.31,0,27.72-12.41,27.72-27.72V909.18c0-15.31-12.41-27.72-27.72-27.72c-15.31,0-27.72,12.41-27.72,27.72
				v325.28C996.29,1249.77,1008.7,1262.18,1024.01,1262.18z M912.02,1227.6c15.31,0,27.72-12.41,27.72-27.72v-194.93
				c0-15.31-12.41-27.72-27.72-27.72c-15.31,0-27.72,12.41-27.72,27.72v194.93C884.3,1215.19,896.71,1227.6,912.02,1227.6z
				 M800.04,1254.47c15.31,0,27.72-12.41,27.72-27.72v-201.77c0-15.31-12.41-27.72-27.72-27.72c-15.31,0-27.72,12.41-27.72,27.72
				v201.77C772.32,1242.06,784.73,1254.47,800.04,1254.47z M688.06,1331.94c15.31,0,27.72-12.41,27.72-27.72V964.81
				c0-15.31-12.41-27.72-27.72-27.72s-27.72,12.41-27.72,27.72v339.41C660.34,1319.53,672.75,1331.94,688.06,1331.94z
				 M576.07,1387.01c15.31,0,27.72-12.41,27.72-27.72V853.06c0-15.31-12.41-27.72-27.72-27.72s-27.72,12.41-27.72,27.72v506.22
				C548.35,1374.6,560.76,1387.01,576.07,1387.01z M464.09,1388.06c15.31,0,27.72-12.41,27.72-27.72V793.75
				c0-15.31-12.41-27.72-27.72-27.72s-27.72,12.41-27.72,27.72v566.59C436.37,1375.65,448.78,1388.06,464.09,1388.06z
				 M352.11,1333.74c15.31,0,27.72-12.41,27.72-27.72V854.58c0-15.31-12.41-27.72-27.72-27.72s-27.72,12.41-27.72,27.72v451.44
				C324.39,1321.33,336.8,1333.74,352.11,1333.74z M240.12,1261.31c15.31,0,27.72-12.41,27.72-27.72v-225.14
				c0-15.31-12.41-27.72-27.72-27.72s-27.72,12.41-27.72,27.72v225.14C212.4,1248.9,224.81,1261.31,240.12,1261.31z"/>
		</defs>
		<clipPath id="SVGID_4_">
			<use xlink:href="#SVGID_3_"  style="overflow:visible;"/>
		</clipPath>
		<path class="st3" d="M1780.17,1159.77v-267.8c0-15.31,12.41-27.72,27.72-27.72c15.31,0,27.72,12.41,27.72,27.72v267.8
			c0,15.31-12.41,27.72-27.72,27.72C1792.58,1187.48,1780.17,1175.07,1780.17,1159.77z M1695.9,1166.88
			c15.31,0,27.72-12.41,27.72-27.72v-296.6c0-15.31-12.41-27.72-27.72-27.72s-27.72,12.41-27.72,27.72v296.6
			C1668.19,1154.47,1680.6,1166.88,1695.9,1166.88z M1583.92,1216.39c15.31,0,27.72-12.41,27.72-27.72V767.74
			c0-15.31-12.41-27.72-27.72-27.72c-15.31,0-27.72,12.41-27.72,27.72v420.93C1556.21,1203.98,1568.62,1216.39,1583.92,1216.39z
			 M1471.93,1333.33c15.31,0,27.72-12.41,27.72-27.72V705.04c0-15.31-12.41-27.72-27.72-27.72c-15.31,0-27.72,12.41-27.72,27.72
			v600.58C1444.22,1320.92,1456.63,1333.33,1471.93,1333.33z M1359.96,1400.28c15.31,0,27.72-12.41,27.72-27.72V681.48
			c0-15.31-12.41-27.72-27.72-27.72c-15.31,0-27.72,12.41-27.72,27.72v691.08C1332.24,1387.87,1344.65,1400.28,1359.96,1400.28z
			 M1247.98,1389.63c15.31,0,27.72-12.41,27.72-27.72V703.42c0-15.31-12.41-27.72-27.72-27.72c-15.31,0-27.72,12.41-27.72,27.72
			v658.49C1220.26,1377.22,1232.67,1389.63,1247.98,1389.63z M1135.99,1331.66c15.31,0,27.72-12.41,27.72-27.72V782.16
			c0-15.31-12.41-27.72-27.72-27.72c-15.31,0-27.72,12.41-27.72,27.72v521.78C1108.27,1319.25,1120.68,1331.66,1135.99,1331.66z
			 M1024.01,1262.18c15.31,0,27.72-12.41,27.72-27.72V909.18c0-15.31-12.41-27.72-27.72-27.72c-15.31,0-27.72,12.41-27.72,27.72
			v325.28C996.29,1249.77,1008.7,1262.18,1024.01,1262.18z M912.02,1227.6c15.31,0,27.72-12.41,27.72-27.72v-194.93
			c0-15.31-12.41-27.72-27.72-27.72c-15.31,0-27.72,12.41-27.72,27.72v194.93C884.3,1215.19,896.71,1227.6,912.02,1227.6z
			 M800.04,1254.47c15.31,0,27.72-12.41,27.72-27.72v-201.77c0-15.31-12.41-27.72-27.72-27.72c-15.31,0-27.72,12.41-27.72,27.72
			v201.77C772.32,1242.06,784.73,1254.47,800.04,1254.47z M688.06,1331.94c15.31,0,27.72-12.41,27.72-27.72V964.81
			c0-15.31-12.41-27.72-27.72-27.72s-27.72,12.41-27.72,27.72v339.41C660.34,1319.53,672.75,1331.94,688.06,1331.94z
			 M576.07,1387.01c15.31,0,27.72-12.41,27.72-27.72V853.06c0-15.31-12.41-27.72-27.72-27.72s-27.72,12.41-27.72,27.72v506.22
			C548.35,1374.6,560.76,1387.01,576.07,1387.01z M464.09,1388.06c15.31,0,27.72-12.41,27.72-27.72V793.75
			c0-15.31-12.41-27.72-27.72-27.72s-27.72,12.41-27.72,27.72v566.59C436.37,1375.65,448.78,1388.06,464.09,1388.06z
			 M352.11,1333.74c15.31,0,27.72-12.41,27.72-27.72V854.58c0-15.31-12.41-27.72-27.72-27.72s-27.72,12.41-27.72,27.72v451.44
			C324.39,1321.33,336.8,1333.74,352.11,1333.74z M240.12,1261.31c15.31,0,27.72-12.41,27.72-27.72v-225.14
			c0-15.31-12.41-27.72-27.72-27.72s-27.72,12.41-27.72,27.72v225.14C212.4,1248.9,224.81,1261.31,240.12,1261.31z"/>
		
			<linearGradient id="SVGID_5_" gradientUnits="userSpaceOnUse" x1="124.1724" y1="1037.2893" x2="1870.1031" y2="1037.2893" gradientTransform="matrix(-1 0 0 1 2048.0005 0)">
			<stop  offset="4.468731e-03" style="stop-color:#0FEBF9"/>
			<stop  offset="0.1704" style="stop-color:#8258C6"/>
			<stop  offset="0.3134" style="stop-color:#D31599"/>
			<stop  offset="0.519" style="stop-color:#E22E85"/>
			<stop  offset="0.6933" style="stop-color:#FC6961"/>
			<stop  offset="0.8408" style="stop-color:#FF9541"/>
			<stop  offset="1" style="stop-color:#FFF603"/>
		</linearGradient>
		<polygon class="st4" points="177.9,1472.99 1923.83,1472.99 1923.83,601.59 177.9,601.59 		"/>
	</g>
	<g>
		<g>
			<path class="st5" d="M1385.72,1453.55c-0.4,17.48,20.73,32.14,47.2,32.75c20.7,0.48,38.48-7.8,45.46-19.78l0.05,0.03
				l133.86-219.99l-4.06-2.47l-126.83,208.44c-2.08-16.02-22.21-28.95-47.02-29.52C1407.9,1422.39,1386.12,1436.07,1385.72,1453.55z
				"/>
		</g>
		<g>
			<path class="st5" d="M1331.59,1542.51c-0.4,17.48,20.73,32.14,47.2,32.75c20.7,0.48,38.48-7.8,45.46-19.78l0.05,0.03
				l133.86-219.99l-4.06-2.47l-126.83,208.44c-2.08-16.02-22.21-28.95-47.02-29.52C1353.77,1511.35,1331.99,1525.03,1331.59,1542.51
				z"/>
		</g>
	</g>
	<path class="st6" d="M679.42,508.11c-9.71,11.45-18.83,22.63-28.35,33.45c-3.98,4.52-4.28,8.27-1.24,13.52
		c13.46,23.25,26.67,46.65,39.73,70.13c10.86,19.53,3.8,40.99-16.45,50.95c-10.66,5.24-21.17-0.79-21.39-12.64
		c-0.27-14.58,6.4-25.75,18.21-33.92c3.27-2.26,6.92-3.99,10.5-6.01c0.2-3.25-1.98-5.61-3.43-8.18
		c-15.32-27.15-30.61-54.32-46.17-81.34c-3.29-5.71-3.67-9.77,1.14-15.35c21.46-24.9,42.37-50.28,63.36-75.58
		c3.65-4.4,6.07-4.41,8.95,0.7c19.41,34.45,39.21,68.68,58.3,103.31c9.19,16.67-7.03,45.65-25.97,47.73
		c-6.73,0.74-13.06-3.8-14.52-10.41c-2.88-13.08,4.86-30.22,17.21-37.87c3.42-2.12,7-4,11.13-6.34
		c-12.87-22.71-25.86-45.62-39.59-69.83C700.04,483.4,689.94,495.55,679.42,508.11z M665.44,515.63
		c13.32-15.84,26.6-31.72,39.98-47.51c2.4-2.83,2.93-5.01-0.5-7.01c-0.86,0.35-1.47,0.41-1.76,0.75
		c-20.16,23.94-40.31,47.9-60.42,71.89c-1.92,2.28-3.16,4.71,1.25,7.45C650.87,533.01,657.79,524.78,665.44,515.63z"/>
	<path class="st5" d="M665.07,1413.55c4.1,6.5,7.84,12.45,11.42,18.13c5.57-0.59,5.76-6.79,11.32-7.49
		c3.84,6.09,8.13,12.49,11.95,19.15c1.88,3.27-1.15,5.68-3.04,7.68c-3.85,4.1-3.81,7.88-0.43,12.13c3.21,4.03,4.82,9.27,9.01,12.64
		c4.34-1.25,4.85-6.27,9.7-8.33c4.17,6.62,8.7,13.31,12.66,20.32c1.86,3.3-1.84,5.42-3.48,7.53c-3.19,4.08-3.29,7.47-0.32,11.71
		c4.19,5.99,7.93,12.3,11.72,18.55c1.2,1.98,3.67,4.36,0.48,6.47c-3.11,2.06-4.48-0.85-5.79-2.89c-4.54-7.07-8.98-14.2-13.66-21.64
		c-5.71,3.75-8.38,8.86-11.77,13.31c-1.69,2.22-0.5,4.31,0.77,6.31c2.94,4.64,6.26,9.09,8.63,14c1.62,3.34,8.24,7.27,2.44,10.69
		c-5.29,3.11-6.27-4.23-8.71-7.25c-3.54-4.39-5.55-9.92-9.88-14.07c-3.86,1.92-4.83,6.95-9.71,8.19
		c-4.76-5.68-8.53-12.18-12.07-18.76c-2.02-3.76,1.22-6.59,3.33-9c3.16-3.59,3.1-6.65,0.49-10.39c-3.11-4.47-5.86-9.19-8.72-13.74
		c-4.89,1.04-5.67,5.86-10.26,8.23c-5.37-6-9.54-13.14-13.11-20.6c-0.93-1.95,0.99-3.95,2.44-5.34c5.11-4.9,4.56-9.57,0.52-14.99
		c-3.95-5.3-7.22-11.12-10.63-16.8c-1.35-2.25-3.56-4.96,0.04-7.03c3.54-2.04,4.84,1.23,6.26,3.42c4.31,6.65,8.47,13.39,12.8,20.25
		c6.26-3.35,9.09-8.36,12.29-12.99c1.62-2.35,0.03-4.37-1.16-6.29c-3.72-6.03-7.55-12-11.23-18.06c-1.12-1.84-3.12-3.96-0.48-6
		C662.01,1408.19,663.26,1411.03,665.07,1413.55z M685.61,1465.85c-2.51,3.24-5.08,6.44-7.52,9.72c-1.22,1.64-2.59,3.45-1.27,5.61
		c3.51,5.72,7.13,11.37,10.74,17.1c13.34-10.07,14.23-14.31,6.41-26.66c-1.1-1.73-2.2-3.47-3.37-5.15
		C689.57,1465,688.23,1464.36,685.61,1465.85z"/>
	<path class="st5" d="M1698.64,555.37c58.06,30.62,92.02,93.26,77.8,149.49c-19.84-119.6-104.28-135.52-202.08-130.59
		c-0.06,9.5,7.3,15.42,12.03,22.34c44,64.29,88.34,128.35,132.5,192.53c30.06,43.69,25.42,99.41-11.66,138.06
		c-7.73,8.06-15.38,16.97-24.83,22.45c-16.08,9.33-33.86,16.66-52.25,5.58c-17.63-10.62-23.89-28.36-23.03-47.51
		c1.98-43.73,16.98-81.41,55.59-106.28c8.7-5.61,17.74-10.68,26.92-16.18c1.66-11.02-6.89-17.43-12.03-24.94
		c-56.27-82.18-112.86-164.13-169.32-246.17c-4.09-5.95-8.06-11.99-11.73-18.2c-2.15-3.64-2.48-7.76,0.97-10.95
		c3.31-3.06,7.2-3.16,10.96-0.67c6.69,4.44,13.87,8.34,19.88,13.58c29.01,25.32,63.34,37.14,101.02,40.46
		C1652.78,540.44,1675.24,545.99,1698.64,555.37z"/>
</g>
</svg>
