<?xml version="1.0" encoding="utf-8"?>
<!-- Generator: Adobe Illustrator 25.0.0, SVG Export Plug-In . SVG Version: 6.00 Build 0)  -->
<svg version="1.1" id="Layer_1" xmlns="http://www.w3.org/2000/svg" xmlns:xlink="http://www.w3.org/1999/xlink" x="0px" y="0px"
	 viewBox="0 0 512 512" style="enable-background:new 0 0 512 512;" xml:space="preserve">
<style type="text/css">
	.st0{opacity:0;fill:#FFFEF0;}
	.st1{fill:#FBBD47;}
	.st2{fill:#E85E57;}
	.st3{fill:#54479D;}
	.st4{fill:#45AD90;}
	.st5{fill:#4AA9D0;}
	.st6{fill:#F16135;}
	.st7{fill:#164455;}
	.st8{fill:#FFCD05;}
	.st9{fill:#E9AF50;}
	.st10{fill:#FFFFFF;}
	.st11{fill:#FDBC55;}
	.st12{fill:#5BB6C7;}
	.st13{fill:#FAE6D5;}
	.st14{opacity:0.5;fill:#EFDECD;enable-background:new    ;}
	.st15{fill:#EF3E23;}
	.st16{fill:#F18922;}
	.st17{fill:#010101;}
	.st18{fill:#8A4128;}
	.st19{fill:#FABE31;}
	.st20{fill:#00375C;}
</style>
<g>
	<g id="Layer_2_1_">
		<rect class="st0" width="512" height="512"/>
		<path class="st1" d="M512,494.5V512H271.8c-0.6-5.5-0.9-9.3-0.9-9.3s7.5-8.8,23.2-15.8l0,0c15.6-7,39.2-12.2,71.6-5.3
			c57.6,12.3,45.9,11.1,84.5,5.3c5-0.8,10.8-1.6,17.8-2.5C486,482,500.5,486.7,512,494.5z"/>
		<path class="st2" d="M365.5,512H0v-3.9c17.6-16.7,37.2-31.2,58.4-43c26.2-14.4,58.6-26.1,92.1-23c78.9,7.2,46.7,36.1,130.7,43.4
			c4.5,0.4,8.7,0.8,12.9,1.4l0,0C328.5,491.4,351.1,501.1,365.5,512z"/>
		<path class="st3" d="M512,224.2V512h-59.7c-1.5-7.8-2.2-15.8-2.1-23.8c0-0.5,0-1,0-1.4c1.1-44.7,31.1-45.9,27.8-102.9
			c-3.3-57.6-40.6-66.9-36.1-108.5c1.9-17.4,17.4-29.8,34.8-38.4C488,231.6,499.8,227.3,512,224.2z"/>
		<path class="st1" d="M62.7,245.3c-5,25,16.7,36.1,10.6,63.9C71,319.8,59,332.4,45.1,344C28.6,357.8,9.4,370.1,0,375.9V31.9
			c16.1,2.1,62.5,9.3,91.1,24.3c4,2.1,7.7,4.6,11.1,7.5c25.8,22.2,31.5,65.6,12.3,102C92.7,206.9,67.7,220.3,62.7,245.3z"/>
		<path class="st4" d="M362.5,0c-15.2,33.9-41.6,75.5-77.4,67.4c-6.1-1.4-11.9-2.6-17.6-3.8c-49.1-9.8-84.5-10.2-149.8-1.2
			c-5.3,0.7-10.5,1.2-15.6,1.4C51.5,66,13.8,44.5,0,35.3V0H362.5z"/>
		<path class="st5" d="M60.1,478.3c2.2,11.1,2.1,22.6-0.3,33.7H0V311.4c9.4,5.6,28.6,17.7,45.1,32.6c15.7,14.1,28.9,30.7,28.7,46.4
			c-0.5,33.4-16.3,47.5-15.4,74.7C58.6,469.6,59.2,474,60.1,478.3z"/>
		<path class="st5" d="M512,0v264.5c-10.5-2.8-24.1-10-35.3-27.6c-2-3.1-3.7-6.3-5.3-9.6c-21.7-44.6-33.9-55.5-55-65.5
			s-65.6-11.1-106.7-44.7c-22.2-18.7-35.1-37-42-53.6c-11.7-27.9-6.7-51-1.8-63.6L512,0z"/>
		<path class="st1" d="M275.9,61c7.3-0.3,14.4-2.5,20.6-6.4l73-45.8l7.3-7.4c0.3-0.3,0.8-0.3,1.1,0c0,0,0.1,0.1,0.1,0.1l2.6,4.1
			l2.6,4.1c0.2,0.4,0.1,0.8-0.2,1.1c-0.1,0-0.1,0.1-0.2,0.1l-9.8,3.4l-73,45.8c-6.2,3.9-11.3,9.3-14.8,15.8l-14,26.4l-12.7-20.1
			L246,62.2L275.9,61z"/>
		<path class="st1" d="M303.8,66.7c-3.5-5.6-1.8-13,3.8-16.5c0,0,0,0,0,0l41.5-26c5.6-3.5,13-1.8,16.6,3.8s1.8,13-3.8,16.6l-41.5,26
			C314.7,74.1,307.3,72.4,303.8,66.7C303.8,66.8,303.8,66.7,303.8,66.7z M309.5,53.2c-4,2.4-5.2,7.6-2.8,11.5
			c2.4,4,7.6,5.2,11.5,2.8c0.1,0,0.2-0.1,0.2-0.1l41.5-26c3.9-2.5,5-7.7,2.5-11.6c-2.5-3.8-7.5-5-11.4-2.6L309.5,53.2z"/>
		
			<rect x="334.9" y="20.6" transform="matrix(0.8471 -0.5314 0.5314 0.8471 35.042 183.265)" class="st6" width="2.2" height="20.3"/>
		
			<rect x="328.1" y="21.2" transform="matrix(0.8471 -0.5314 0.5314 0.8471 38.7247 179.1642)" class="st2" width="5.3" height="2.1"/>
		
			<rect x="335.6" y="24.1" transform="matrix(0.8471 -0.5314 0.5314 0.8471 33.5191 184.9778)" class="st1" width="5.3" height="20.3"/>
		
			<rect x="327.8" y="25" transform="matrix(0.8471 -0.5314 0.5314 0.8471 31.5731 180.1583)" class="st6" width="2.2" height="20.3"/>
		<rect x="320" y="25.2" transform="matrix(0.8486 -0.5291 0.5291 0.8486 34.99 174.7109)" class="st2" width="5.3" height="2.1"/>
		
			<rect x="327.5" y="28" transform="matrix(0.8486 -0.5291 0.5291 0.8486 29.8205 180.4848)" class="st1" width="5.3" height="20.4"/>
		
			<rect x="320.6" y="29.5" transform="matrix(0.8471 -0.5314 0.5314 0.8471 28.0971 177.0401)" class="st6" width="2.2" height="20.3"/>
		
			<rect x="313.8" y="30.2" transform="matrix(0.8471 -0.5314 0.5314 0.8471 31.7745 172.9408)" class="st2" width="5.3" height="2.1"/>
		
			<rect x="321.3" y="33" transform="matrix(0.8471 -0.5314 0.5314 0.8471 26.5742 178.7528)" class="st1" width="5.3" height="20.3"/>
		<path class="st2" d="M244.4,60.7c0.6-0.4,1.5-0.2,1.9,0.4l26.1,41.6c0.4,0.7,0.1,1.5-0.5,1.9c-0.6,0.3-1.4,0.2-1.8-0.4l-26.1-41.6
			C243.5,61.9,243.7,61.1,244.4,60.7z"/>
		<ellipse transform="matrix(0.9893 -0.1459 0.1459 0.9893 -2.2046 60.2149)" class="st2" cx="409.4" cy="45.1" rx="16" ry="19.1"/>
		<path class="st7" d="M423.2,55.7l-23.9,3.5c1.9,1.7,3.9,3.2,6.1,4.5c2.4,1.4,3.8,4.1,3.6,6.9c-0.3,4.9,0,9.8,0.8,14.7
			c1.8,12.1,4.5,13.6,7.6,13.1s5.3-2.6,3.5-14.7c-0.7-4.9-1.8-9.7-3.5-14.3c-1-2.6-0.4-5.5,1.4-7.6
			C420.4,59.9,421.9,57.9,423.2,55.7z"/>
		<path class="st1" d="M393.8,39.3l28.8-4.2c-1-1.8-2.3-3.4-3.8-4.8l-22.8,3.4C395,35.4,394.3,37.3,393.8,39.3z"/>
		<path class="st1" d="M425.2,42.8c-0.3-1.8-0.7-3.5-1.4-5.1l-30.4,4.5c-0.2,1.8-0.1,3.5,0.1,5.3L425.2,42.8z"/>
		<path class="st1" d="M424.9,50.9c0.4-1.8,0.6-3.6,0.5-5.4l-31.4,4.6c0.5,1.7,1.2,3.4,2.1,5L424.9,50.9z"/>
		
			<ellipse transform="matrix(0.3756 -0.9268 0.9268 0.3756 216.7959 455.0026)" class="st2" cx="446.1" cy="66.6" rx="19.1" ry="16"/>
		<path class="st7" d="M452.5,82.7l-22.4-9.1c0.7,2.4,1.8,4.7,3,6.9c1.3,2.4,1.2,5.4-0.4,7.7c-2.7,4.1-5,8.4-6.8,13
			c-4.6,11.4-3,14-0.1,15.2s5.9,0.4,10.5-10.9c1.9-4.5,3.3-9.3,4.2-14.1c0.5-2.7,2.4-5,5.1-5.8C448,84.9,450.3,83.9,452.5,82.7z"/>
		<path class="st1" d="M435.6,53.7l27,10.9c0-2-0.2-4.1-0.8-6L440.3,50C438.6,51,437,52.2,435.6,53.7z"/>
		<path class="st1" d="M460.9,72.6c0.7-1.6,1.1-3.4,1.4-5.1l-28.5-11.5c-1,1.4-1.9,3-2.5,4.7L460.9,72.6z"/>
		<path class="st1" d="M456.5,79.4c1.2-1.3,2.3-2.8,3.2-4.4l-29.4-11.9c-0.5,1.7-0.7,3.6-0.8,5.4L456.5,79.4z"/>
		<polygon class="st7" points="449.9,229.2 444.3,230.4 446.4,235.9 452.7,233.8 		"/>
		<path class="st2" d="M449.1,237c0.2,0.5-0.6,1.2-1.7,1.6l0,0c-1.1,0.4-2.1,0.3-2.3-0.1l-3.7-10.2c-0.2-0.5,0.6-1.2,1.6-1.6l0,0
			c1.1-0.4,2.1-0.3,2.3,0.1L449.1,237z"/>
		<polygon class="st7" points="454.5,246.1 448.9,247.3 451,252.9 457.3,250.7 		"/>
		<path class="st2" d="M453.7,253.9c0.2,0.5-0.6,1.2-1.7,1.6l0,0c-1.1,0.4-2.1,0.3-2.3-0.1l-3.7-10.2c-0.2-0.5,0.6-1.2,1.7-1.6l0,0
			c1.1-0.4,2.1-0.3,2.3,0.1L453.7,253.9z"/>
		<polygon class="st7" points="461.2,263 455.6,264.3 457.6,269.8 464,267.7 		"/>
		<path class="st2" d="M460.4,270.8c0.2,0.5-0.6,1.2-1.7,1.6l0,0c-1.1,0.4-2.1,0.3-2.3-0.1l-3.7-10.3c-0.2-0.5,0.6-1.2,1.6-1.5l0,0
			c1.1-0.4,2.1-0.3,2.3,0.1L460.4,270.8z"/>
		<polygon class="st7" points="467.2,281.7 461.7,283 463.7,288.5 470,286.4 		"/>
		<path class="st2" d="M466.4,289.5c0.2,0.5-0.6,1.2-1.7,1.5l0,0c-1.1,0.4-2.1,0.3-2.3-0.1l-3.7-10.2c-0.2-0.5,0.6-1.2,1.6-1.6l0,0
			c1.1-0.4,2.1-0.3,2.3,0.1L466.4,289.5z"/>
		<polygon class="st7" points="473.5,299.2 467.9,300.4 470,305.9 476.3,303.8 		"/>
		<path class="st2" d="M472.7,307c0.2,0.5-0.6,1.2-1.7,1.5l0,0c-1.1,0.4-2.1,0.3-2.3-0.1l-3.8-10.2c-0.2-0.5,0.6-1.2,1.7-1.6l0,0
			c1.1-0.4,2.1-0.3,2.3,0.1L472.7,307z"/>
		<path class="st8" d="M481,160.9l-32.2,19.3c0,0-12.3,7.1-10,17.1S479,322.4,479,322.4s3.2,11-2,15.8s-11,2.4-17.8-10.4
			s-21.4-44.1-38.2-52.6c0,0-2.6-1.5-2.4-3.9s0.3-6.1-3.9-1.3s-36.4,64.3-36.4,64.3s-2.6,4.6,2.6,2.1s11.7-8.1,19.5,2.6
			s31,57.2,57.8,58s55.1-21,42.1-61.8s-47.6-135.5-47.6-135.5c-1.7-5-0.2-10.6,3.8-14.1c6.9-6.4,26.3-21.4,26.3-21.4L481,160.9z"/>
		<path class="st1" d="M481,160.9l-32.2,19.3c0,0-12.3,7.1-10,17.1S479,322.4,479,322.4s3.2,11-2,15.8s-11,2.4-17.8-10.4
			s-21.4-44.1-38.2-52.6c0,0-2.6-1.5-2.4-3.9s0.3-6.1-3.9-1.3s-36.4,64.3-36.4,64.3s-2.6,4.6,2.6,2.1s11.7-8.1,19.5,2.6
			s31,57.2,57.8,58s55.1-21,42.1-61.8s-47.6-135.5-47.6-135.5c-1.7-5-0.2-10.6,3.8-14.1c6.9-6.4,26.3-21.4,26.3-21.4L481,160.9z"/>
		<path class="st9" d="M387.9,323l23.6-40.2c0,0,5.5-7.8,5.6-3.3s-3.3,8.1,1.9,7.3s10.5,4.9,26.8,33.9s24.6,40.1,35.5,29.7
			c0,0,9.7-5.8,2.5-28.5s-31.9-93.4-31.9-93.4s-12.4-34.7-8.8-39.1c0,0,1.2-4,6.7-7.6c0,0,8-4.8,6.2-0.9s-8.2,6-7.1,13.5
			s43.4,131.3,43.4,131.3s13.7,35.9-1.6,49.3s-38.7,16.5-51.4,2.8S408.5,335,401,327.5s-12.3,1.5-15.3,2.1S385.8,326.6,387.9,323z"
			/>
		<path class="st2" d="M473.2,158c-0.4-0.7,1.5-2.4,4.1-3.8l0,0c2.6-1.4,5-2,5.4-1.4l8,14.7c0.4,0.7-1.5,2.4-4.1,3.8l0,0
			c-2.6,1.4-5,2-5.4,1.3L473.2,158z"/>
		<path class="st1" d="M395.1,475.8l36.1-107c0.8-2.4,3.4-3.7,5.8-2.9l60.1,20.3c2.4,0.8,3.7,3.4,2.9,5.8l-36.1,107
			c-0.8,2.4-3.4,3.7-5.8,2.9L398,481.6C395.5,480.8,394.3,478.2,395.1,475.8z"/>
		
			<rect x="389.7" y="400.8" transform="matrix(0.3198 -0.9475 0.9475 0.3198 -106.6862 719.23)" class="st2" width="115.8" height="66.2"/>
		<circle class="st1" cx="455.9" cy="409.1" r="21.8"/>
		<circle class="st3" cx="455.9" cy="409.1" r="17.5"/>
		<circle class="st1" cx="455.9" cy="409.1" r="6.6"/>
		<circle class="st1" cx="439.5" cy="457.9" r="21.8"/>
		<circle class="st3" cx="439.5" cy="457.9" r="17.5"/>
		<circle class="st1" cx="441.8" cy="457.6" r="6.6"/>
		<path class="st1" d="M330.7,399.3l57.9-18.3c2.3-0.7,4.8,0.6,5.5,2.9L426.7,487c0.7,2.3-0.6,4.8-2.9,5.5L366,510.8
			c-2.3,0.7-4.8-0.6-5.5-2.9l-32.6-103.2C327.1,402.5,328.3,400,330.7,399.3z"/>
		
			<rect x="345.5" y="390.4" transform="matrix(0.9535 -0.3015 0.3015 0.9535 -116.8925 134.5154)" class="st2" width="63.5" height="110.9"/>
		<circle class="st1" cx="369.7" cy="422" r="20.9"/>
		<circle class="st3" cx="369.7" cy="422" r="16.8"/>
		<circle class="st1" cx="369.7" cy="421.9" r="6.3"/>
		<circle class="st1" cx="384.6" cy="468.9" r="20.9"/>
		<circle class="st3" cx="384.6" cy="468.9" r="16.8"/>
		<circle class="st1" cx="384.6" cy="469" r="6.3"/>
		<path class="st7" d="M108.6,425.8l209.4-13.1c3.4-0.2,6.3,2.4,6.5,5.7l4.1,65c0.2,3.4-2.4,6.3-5.7,6.5L113.5,503
			c-3.4,0.2-6.3-2.4-6.5-5.7l-4.1-65C102.7,428.9,105.3,426,108.6,425.8z"/>
		
			<rect x="131.5" y="449.1" transform="matrix(0.9981 -6.226794e-02 6.226794e-02 0.9981 -28.967 14.4067)" class="st7" width="170.4" height="45.6"/>
		
			<rect x="133.6" y="455.7" transform="matrix(0.9981 -6.226794e-02 6.226794e-02 0.9981 -29.409 9.635)" class="st10" width="12.6" height="42"/>
		
			<rect x="147.5" y="454.8" transform="matrix(0.9981 -6.226794e-02 6.226794e-02 0.9981 -29.3279 10.5025)" class="st10" width="12.6" height="42"/>
		
			<rect x="161.5" y="453.9" transform="matrix(0.9981 -6.226794e-02 6.226794e-02 0.9981 -29.2468 11.37)" class="st10" width="12.6" height="42"/>
		
			<rect x="175.4" y="453.1" transform="matrix(0.9981 -6.226794e-02 6.226794e-02 0.9981 -29.1651 12.2375)" class="st10" width="12.6" height="42"/>
		
			<rect x="189.4" y="452.2" transform="matrix(0.9981 -6.226794e-02 6.226794e-02 0.9981 -29.084 13.105)" class="st10" width="12.6" height="42"/>
		
			<rect x="203.4" y="451.3" transform="matrix(0.9981 -6.226794e-02 6.226794e-02 0.9981 -29.0029 13.9725)" class="st10" width="12.6" height="42"/>
		
			<rect x="217.3" y="450.5" transform="matrix(0.9981 -6.226794e-02 6.226794e-02 0.9981 -28.9211 14.84)" class="st10" width="12.6" height="42"/>
		
			<rect x="231.3" y="449.6" transform="matrix(0.9981 -6.226794e-02 6.226794e-02 0.9981 -28.84 15.7075)" class="st10" width="12.6" height="42"/>
		
			<rect x="245.2" y="448.7" transform="matrix(0.9981 -6.226794e-02 6.226794e-02 0.9981 -28.7589 16.575)" class="st10" width="12.6" height="42"/>
		
			<rect x="259.2" y="447.8" transform="matrix(0.9981 -6.226794e-02 6.226794e-02 0.9981 -28.6772 17.4431)" class="st10" width="12.6" height="42"/>
		
			<rect x="273.2" y="447" transform="matrix(0.9981 -6.226794e-02 6.226794e-02 0.9981 -28.5961 18.3099)" class="st10" width="12.6" height="42"/>
		
			<rect x="287.1" y="446.2" transform="matrix(0.9981 -6.226794e-02 6.226794e-02 0.9981 -28.5199 19.1779)" class="st10" width="12.6" height="42"/>
		
			<rect x="142.2" y="455.3" transform="matrix(0.9981 -6.226794e-02 6.226794e-02 0.9981 -28.9119 10.022)" class="st7" width="8.2" height="27.2"/>
		
			<rect x="156.2" y="454.4" transform="matrix(0.9981 -6.226794e-02 6.226794e-02 0.9981 -28.8305 10.8864)" class="st7" width="8.2" height="27.2"/>
		
			<rect x="239.9" y="449.2" transform="matrix(0.9981 -6.226794e-02 6.226794e-02 0.9981 -28.3424 16.0932)" class="st7" width="8.2" height="27.2"/>
		
			<rect x="253.8" y="448.3" transform="matrix(0.9981 -6.226794e-02 6.226794e-02 0.9981 -28.2616 16.9576)" class="st7" width="8.2" height="27.2"/>
		
			<rect x="281.9" y="446.5" transform="matrix(0.9981 -6.226794e-02 6.226794e-02 0.9981 -28.0979 18.7018)" class="st7" width="8.2" height="27.2"/>
		
			<rect x="184.1" y="452.7" transform="matrix(0.9981 -6.226794e-02 6.226794e-02 0.9981 -28.6682 12.622)" class="st7" width="8.2" height="27.2"/>
		
			<rect x="198" y="451.8" transform="matrix(0.9981 -6.226794e-02 6.226794e-02 0.9981 -28.5868 13.4864)" class="st7" width="8.2" height="27.2"/>
		
			<rect x="212" y="450.9" transform="matrix(0.9981 -6.226794e-02 6.226794e-02 0.9981 -28.5053 14.3576)" class="st7" width="8.2" height="27.2"/>
		
			<rect x="108.1" y="431" transform="matrix(0.9981 -6.226794e-02 6.226794e-02 0.9981 -26.6642 8.0573)" class="st1" width="15.6" height="1.6"/>
		
			<rect x="108.3" y="433.6" transform="matrix(0.9981 -6.226794e-02 6.226794e-02 0.9981 -26.823 8.0715)" class="st1" width="15.6" height="1.6"/>
		
			<rect x="108.5" y="436.1" transform="matrix(0.9981 -6.226794e-02 6.226794e-02 0.9981 -26.9818 8.0864)" class="st1" width="15.6" height="1.6"/>
		
			<rect x="108.6" y="438.7" transform="matrix(0.9981 -6.226794e-02 6.226794e-02 0.9981 -27.1406 8.1012)" class="st1" width="15.6" height="1.6"/>
		
			<rect x="108.8" y="441.2" transform="matrix(0.9981 -6.226794e-02 6.226794e-02 0.9981 -27.2994 8.1161)" class="st1" width="15.6" height="1.6"/>
		
			<rect x="108.9" y="443.8" transform="matrix(0.9981 -6.226794e-02 6.226794e-02 0.9981 -27.4582 8.1309)" class="st1" width="15.6" height="1.6"/>
		
			<rect x="109.1" y="446.3" transform="matrix(0.9981 -6.226794e-02 6.226794e-02 0.9981 -27.617 8.1464)" class="st1" width="15.6" height="1.6"/>
		
			<rect x="109.3" y="448.9" transform="matrix(0.9981 -6.226794e-02 6.226794e-02 0.9981 -27.7757 8.1612)" class="st1" width="15.6" height="1.6"/>
		
			<rect x="109.4" y="451.5" transform="matrix(0.9981 -6.226794e-02 6.226794e-02 0.9981 -27.9345 8.1761)" class="st1" width="15.6" height="1.6"/>
		
			<rect x="303.8" y="418.8" transform="matrix(0.9981 -6.226794e-02 6.226794e-02 0.9981 -25.5247 20.2177)" class="st1" width="15.6" height="1.6"/>
		
			<rect x="304" y="421.4" transform="matrix(0.9981 -6.226794e-02 6.226794e-02 0.9981 -25.6835 20.2332)" class="st1" width="15.6" height="1.6"/>
		
			<rect x="304.1" y="423.9" transform="matrix(0.9981 -6.226794e-02 6.226794e-02 0.9981 -25.8423 20.248)" class="st1" width="15.6" height="1.6"/>
		
			<rect x="304.3" y="426.5" transform="matrix(0.9981 -6.226794e-02 6.226794e-02 0.9981 -26.0005 20.2628)" class="st1" width="15.6" height="1.6"/>
		
			<rect x="304.5" y="429" transform="matrix(0.9981 -6.226794e-02 6.226794e-02 0.9981 -26.1593 20.2777)" class="st1" width="15.6" height="1.6"/>
		
			<rect x="304.6" y="431.6" transform="matrix(0.9981 -6.226794e-02 6.226794e-02 0.9981 -26.3181 20.2925)" class="st1" width="15.6" height="1.6"/>
		
			<rect x="304.8" y="434.1" transform="matrix(0.9981 -6.226794e-02 6.226794e-02 0.9981 -26.4768 20.3073)" class="st1" width="15.6" height="1.6"/>
		
			<rect x="304.9" y="436.7" transform="matrix(0.9981 -6.226794e-02 6.226794e-02 0.9981 -26.6356 20.3222)" class="st1" width="15.6" height="1.6"/>
		
			<rect x="305.1" y="439.2" transform="matrix(0.9981 -6.226794e-02 6.226794e-02 0.9981 -26.7944 20.3377)" class="st1" width="15.6" height="1.6"/>
		
			<rect x="137.3" y="430.9" transform="matrix(0.9981 -6.226794e-02 6.226794e-02 0.9981 -27.1595 9.4262)" class="st1" width="0.7" height="19.1"/>
		
			<rect x="136.3" y="437.6" transform="matrix(0.9981 -6.226794e-02 6.226794e-02 0.9981 -27.1329 9.4241)" class="st1" width="2.7" height="5"/>
		
			<rect x="142" y="430.6" transform="matrix(0.9981 -6.226794e-02 6.226794e-02 0.9981 -27.1313 9.7203)" class="st1" width="0.7" height="19.1"/>
		
			<rect x="141.1" y="439.2" transform="matrix(0.9981 -6.226794e-02 6.226794e-02 0.9981 -27.2284 9.7284)" class="st1" width="2.7" height="5"/>
		
			<rect x="146.8" y="430.3" transform="matrix(0.9981 -6.226794e-02 6.226794e-02 0.9981 -27.1039 10.0138)" class="st1" width="0.7" height="19.1"/>
		
			<rect x="145.6" y="434.2" transform="matrix(0.9981 -6.226794e-02 6.226794e-02 0.9981 -26.9069 9.9951)" class="st1" width="2.7" height="5"/>
		
			<rect x="151.5" y="430" transform="matrix(0.9981 -6.226794e-02 6.226794e-02 0.9981 -27.0771 10.3073)" class="st1" width="0.7" height="19.1"/>
		
			<rect x="150.5" y="436.7" transform="matrix(0.9981 -6.226794e-02 6.226794e-02 0.9981 -27.0505 10.3045)" class="st1" width="2.7" height="5"/>
		<path class="st1" d="M242.2,424.3l3.2-0.2c0.5,0,1,0.4,1,0.9l0.2,3.2c0,0.5-0.4,1-0.9,1l-3.2,0.2c-0.5,0-1-0.4-1-0.9l-0.2-3.2
			C241.2,424.8,241.7,424.4,242.2,424.3z"/>
		<path class="st1" d="M251.4,423.7l3.2-0.2c0.5,0,1,0.4,1,0.9l0.2,3.2c0,0.5-0.4,1-0.9,1l-3.2,0.2c-0.5,0-1-0.4-1-0.9l-0.2-3.2
			C250.4,424.2,250.8,423.8,251.4,423.7z"/>
		<path class="st1" d="M260.5,423.2l3.2-0.2c0.5,0,1,0.4,1,0.9l0.2,3.2c0,0.5-0.4,1-0.9,1l-3.2,0.2c-0.5,0-1-0.4-1-0.9l-0.2-3.2
			C259.6,423.7,260,423.2,260.5,423.2z"/>
		<path class="st1" d="M269.7,422.6l3.2-0.2c0.5,0,1,0.4,1,0.9l0.2,3.2c0,0.5-0.4,1-0.9,1l-3.2,0.2c-0.5,0-1-0.4-1-0.9l-0.2-3.2
			C268.8,423.1,269.2,422.6,269.7,422.6z"/>
		<path class="st1" d="M278.9,422l3.2-0.2c0.5,0,1,0.4,1,0.9l0.2,3.2c0,0.5-0.4,1-0.9,1l-3.2,0.2c-0.5,0-1-0.4-1-0.9l-0.2-3.2
			C277.9,422.5,278.3,422.1,278.9,422z"/>
		<path class="st1" d="M288,421.5l3.2-0.2c0.5,0,1,0.4,1,0.9l0.2,3.2c0,0.5-0.4,1-0.9,1l-3.2,0.2c-0.5,0-1-0.4-1-0.9l-0.2-3.2
			C287.1,422,287.5,421.5,288,421.5z"/>
		
			<rect x="195.7" y="425.7" transform="matrix(0.9981 -6.226794e-02 6.226794e-02 0.9981 -26.5365 14.1788)" class="st1" width="37" height="14.3"/>
		<path class="st11" d="M78.5,342.3l-38.6-22.9c-0.6-0.5-0.7-1.3-0.3-1.9l6.7-11.3c5.1-8.6,11.8-16.1,19.8-22.1
			c2.1-1.5,3.3-2.3,3.4-2.3c0.4-0.2,0.8-0.3,1.2,0l26.1,15.5c0.4,0.2,0.6,0.7,0.5,1.1c0,0.1,0,1.5-0.4,4.1c-1.4,9.9-4.8,19.4-9.9,28
			l-6.7,11.3C80,342.3,79.2,342.6,78.5,342.3z"/>
		<path class="st12" d="M74.1,350l-38.9-23.1c-2.3-1.4-2.8-4.8-1.2-7.6s4.9-4,7.2-2.6l38.9,23.1c2.3,1.4,2.8,4.8,1.2,7.6
			S76.4,351.4,74.1,350z"/>
		<path class="st5" d="M66.1,284.1c-2.8,2-5.4,4.3-7.8,6.7l36.5,21.7c1-3.3,1.7-6.7,2.1-10c0.1-0.5,0.1-1,0.2-1.5l-29.8-17.7
			C67,283.5,66.5,283.8,66.1,284.1z"/>
		<path class="st3" d="M95.7,299.1l-26.1-15.5c-0.2-0.1-0.4-0.3-0.5-0.5c-6.2-9.7-7.8-22.9-4.9-39.3c1.3-7.4,3.4-14.7,6.2-21.8
			c0.1-0.3,0.4-0.4,0.6-0.5c0.3,0,0.7,0,0.9,0.2l76.9,45.7c0.3,0.2,0.5,0.4,0.6,0.7c0.1,0.3,0.1,0.6-0.1,0.8
			c-4.8,5.8-10.3,11.1-16.1,15.8c-13.1,10.4-25.5,15.3-36.9,14.5C96.1,299.3,95.9,299.2,95.7,299.1z"/>
		<path class="st7" d="M147.7,269.5l-76.9-45.7c-4.6-2.5-6.3-8.3-3.8-12.8s8.3-6.3,12.8-3.8c0.2,0.1,0.4,0.2,0.6,0.4l76.9,45.7
			c4.6,2.5,6.4,8.2,3.9,12.8c-2.5,4.6-8.2,6.4-12.8,3.9C148.2,269.8,147.9,269.7,147.7,269.5L147.7,269.5z"/>
		<path class="st12" d="M106.1,245.5l-1.8-1.1l-22.5,25.8L93.5,238l-1.8-1l-22.4,25.7l11.6-32.2l-1.8-1.1l-13.7,15.7
			c-0.2,0.9-0.3,1.8-0.4,2.7l13.7-15.7l-11.6,32.2l0.2,0.1l1.6,1l22.4-25.8l-11.6,32.1l1.3,0.8c0.1,0.1,0.2,0.1,0.4,0.1h0.2
			l22.3-25.6l-13,29.3c0.7-0.5,1.4-1,2.2-1.6L106.1,245.5z"/>
		<path class="st12" d="M138.6,264.8l-1.8-1.1l-22.4,25.8l11.7-32.2l-1.8-1L101.7,282l11.6-32.2l-1.8-1.1L92,274.5
			c-0.2,0.9-0.3,1.8-0.4,2.7l19.7-25.7l-11.7,32.2c0,0,0.1,0.1,0.1,0.1l1.6,1l22.4-25.8l-11.6,32.2l1.3,0.8c0.1,0.1,0.2,0.1,0.4,0.1
			h0.2l22.3-25.6l-7,19.3c0.7-0.5,1.4-1.1,2.1-1.6L138.6,264.8z"/>
		
			<ellipse transform="matrix(0.9691 -0.2467 0.2467 0.9691 -62.9473 25.1912)" class="st11" cx="69.1" cy="263.9" rx="2.8" ry="2.8"/>
		
			<ellipse transform="matrix(0.9691 -0.2467 0.2467 0.9691 -64.3831 28.4763)" class="st11" cx="81.5" cy="271.2" rx="2.8" ry="2.8"/>
		<circle class="st11" cx="91" cy="276.9" r="2.8"/>
		
			<ellipse transform="matrix(0.9691 -0.2467 0.2467 0.9691 -66.6704 33.7177)" class="st11" cx="101.2" cy="283" rx="2.8" ry="2.8"/>
		
			<ellipse transform="matrix(0.9691 -0.2467 0.2467 0.9691 -68.073 36.9307)" class="st11" cx="113.4" cy="290.2" rx="2.8" ry="2.8"/>
		<path class="st7" d="M402.6,161.7c-8.3-3-21.1-6.3-35.5-8.9c-15.7-2.8-29.8-4.2-38.6-4l-8.8-1.5l-0.6,3.9
			c-0.7,3.8,19.8,10.5,45.6,15.1s47.4,5.3,48,1.6l0.5-4.4L402.6,161.7z"/>
		<path class="st11" d="M413.3,163.6c-0.7,3.7-22.2,3-48-1.6s-46.3-11.4-45.6-15.1s22.2-3,48,1.6S414,159.8,413.3,163.6z"/>
		<path class="st3" d="M325.7,119.6l-4.2,26.9c-0.6,3.6,19,10.1,43.9,14.6s45.6,5.1,46.2,1.5l5.1-26.9L325.7,119.6z"/>
		<path class="st7" d="M407.6,129.8c-8.3-3-21.1-6.3-35.5-8.8c-15.7-2.8-29.8-4.2-38.6-4l-8.8-1.5l-0.6,3.9
			c-0.7,3.7,19.8,10.5,45.6,15.1s47.4,5.3,48,1.6l0.5-4.4L407.6,129.8z"/>
		<path class="st13" d="M418.3,131.6c-0.7,3.7-22.2,3-48-1.6s-46.3-11.4-45.7-15.1s22.2-3,48,1.6S419,127.9,418.3,131.6z"/>
		<path class="st14" d="M372.7,116.5c-25.9-4.6-47.4-5.3-48-1.6s19.7,10.5,45.6,15.1c25.9,4.6,47.4,5.3,48,1.6
			S398.6,121.1,372.7,116.5z M366.4,127.4c-18.8-3.4-33.7-8.3-33.2-11s16.1-2.2,35,1.2s33.7,8.3,33.2,11
			C400.9,131.3,385.2,130.8,366.4,127.4z"/>
		<path class="st2" d="M396.9,127.5c-0.3,1.9-11.2,1.5-24.3-0.8s-23.4-5.8-23-7.7s11.2-1.5,24.3,0.8S397.2,125.6,396.9,127.5z"/>
		<path class="st11" d="M344,71.8c0.5,1.4,1.1,2.8,1.6,4.2c1.3,3.4,2.6,6.7,3.9,10.1c1.6,4.1,3.2,8.3,4.8,12.5
			c1.5,3.8,3,7.6,4.4,11.4c0.8,2.5,1.7,4.9,2.9,7.2c0.3,0.6,0.6,1.1,0.9,1.6c0.7,0.8,1.5,1.7,1.2,2.8c-0.2,0.9-1,1.4-1.8,1.3
			c-0.2,0-0.4-0.1-0.6-0.3c-0.7-0.6-0.6-1.6-0.6-2.5c0.1-0.9-0.1-1.7-0.4-2.5c-1-2.5-18.7-42.6-18.7-42.6s-2.2-3.5-1.1-4.7
			S343.1,69.6,344,71.8z"/>
		<path class="st11" d="M397,70.3l-1.7,4.1c-1.4,3.3-2.8,6.6-4.2,9.9c-1.7,4.1-3.5,8.2-5.2,12.3c-1.6,3.8-3.1,7.6-4.8,11.3
			c-1.2,2.3-2.2,4.7-2.9,7.2c-0.2,0.6-0.3,1.2-0.4,1.8c-0.1,1-0.1,2.3-1.1,2.8s-2.3,0.3-2.5-1c-0.1-1,0.7-1.6,1.3-2.2
			c0.6-0.6,1.1-1.3,1.4-2.1c1-2.5,16.2-43.6,16.2-43.6s0.9-4,2.5-4.1S398,68.1,397,70.3z"/>
		<path class="st5" d="M380.6,166.7L380.6,166.7c-0.2,0-0.4-0.2-0.4-0.4l-6.4-31.3l-16.2,27.9c-0.1,0.2-0.3,0.3-0.5,0.3
			c-0.2,0-0.4-0.2-0.4-0.4l-7.6-33.4l-19,26.3c-0.1,0.2-0.4,0.3-0.6,0.2c-0.2-0.1-0.4-0.2-0.4-0.5l-3.6-35.8c0-0.3,0.2-0.5,0.5-0.6
			c0,0,0,0,0,0c0.3,0,0.5,0.2,0.6,0.5l3.4,34.4l18.8-26.1c0.1-0.2,0.3-0.3,0.5-0.2c0.2,0,0.4,0.2,0.4,0.4l7.6,33.2l16.3-28
			c0.1-0.3,0.5-0.3,0.7-0.2c0.1,0.1,0.2,0.2,0.3,0.4l6.4,31.4l16.5-29.1c0.1-0.2,0.3-0.3,0.5-0.3c0.2,0,0.4,0.2,0.4,0.4l6.5,30
			l10.6-30.9c0.1-0.3,0.4-0.4,0.7-0.3c0.3,0.1,0.4,0.4,0.3,0.7c0,0,0,0,0,0l-11.2,32.6c-0.1,0.2-0.3,0.4-0.5,0.4
			c-0.2,0-0.4-0.2-0.5-0.4l-6.6-30.5l-16.5,29.1C381.1,166.7,380.9,166.8,380.6,166.7z"/>
		<path class="st2" d="M327.2,119.7c-0.2,0.7-0.9,1-1.5,0.8c-0.7-0.2-1-0.9-0.8-1.5c0.2-0.6,0.8-1,1.4-0.9
			C327,118.2,327.4,118.9,327.2,119.7z"/>
		<path class="st15" d="M350.5,128.2c-0.2,0.7-0.9,1-1.5,0.8c-0.7-0.2-1-0.9-0.8-1.5c0.2-0.6,0.8-1,1.4-0.9
			C350.2,126.8,350.6,127.5,350.5,128.2z"/>
		<path class="st2" d="M375.4,133.1c-0.2,0.7-0.9,1-1.5,0.8c-0.7-0.2-1-0.9-0.8-1.5c0.2-0.6,0.8-1,1.4-0.9
			C375.1,131.7,375.5,132.4,375.4,133.1z"/>
		<path class="st2" d="M399.1,136.1c0,0.7-0.7,1.3-1.4,1.3c-0.8,0-1.5-0.6-1.5-1.4s0.6-1.5,1.4-1.5c0.8,0,1.5,0.6,1.5,1.4
			C399.1,135.9,399.1,136,399.1,136.1z"/>
		<path class="st2" d="M417.2,135.2c-0.2,0.7-0.9,1-1.6,0.8c-0.7-0.2-1-0.9-0.8-1.6c0.2-0.6,0.8-1,1.4-0.9
			C416.9,133.8,417.4,134.5,417.2,135.2z"/>
		<path class="st2" d="M330.8,155.5c0,0.7-0.7,1.3-1.4,1.3c0,0,0,0,0,0c-0.8-0.2-1.2-1.1-1-1.8c0.2-0.6,0.7-1,1.4-1
			C330.5,154,331,154.8,330.8,155.5z"/>
		<path class="st2" d="M358.4,162.8c0,0.7-0.5,1.2-1.2,1.3c-0.7,0-1.2-0.5-1.3-1.2c0-0.1,0-0.3,0.1-0.4c0-0.7,0.5-1.2,1.2-1.3
			c0.7,0,1.2,0.5,1.3,1.2C358.4,162.5,358.4,162.7,358.4,162.8z"/>
		<path class="st2" d="M381.9,166.4c-0.2,0.7-0.9,1-1.6,0.8c-0.7-0.2-1-0.9-0.8-1.6c0.2-0.6,0.8-0.9,1.4-0.8
			C381.7,164.9,382.1,165.7,381.9,166.4C381.9,166.4,381.9,166.4,381.9,166.4z"/>
		<path class="st2" d="M406,167.9c-0.2,0.7-0.9,1-1.6,0.8c-0.7-0.2-1-0.9-0.8-1.6c0.2-0.6,0.8-0.9,1.4-0.8
			C405.7,166.5,406.2,167.2,406,167.9z"/>
		<polygon class="st16" points="170.9,27.1 22.9,125.2 20.6,120.8 168.7,23.2 		"/>
		<polygon class="st16" points="192.7,57.8 53.2,167.6 50.5,163.4 190.2,54 		"/>
		<polygon class="st2" points="142.8,113.7 99.9,56.3 78.3,69.6 124,129.3 		"/>
		<polygon class="st5" points="165.9,94.6 125.4,40.5 104.2,53.6 147.2,110 		"/>
		<polygon class="st3" points="201.2,65.4 167.7,14.4 151.5,24.4 188.7,75.7 		"/>
		<polygon class="st4" points="184.3,79.4 147.1,27.1 129.8,37.8 170.3,90.9 		"/>
		<polygon class="st3" points="96.5,151.9 51.9,85.9 33.2,97.4 79.6,166 		"/>
		<polygon class="st2" points="9.8,111.8 56.2,185.3 75.1,169.7 28.3,100.4 		"/>
		<polygon class="st4" points="119.5,132.9 74,72.3 56.9,82.8 102.1,147.3 		"/>
		<path class="st17" d="M184.3,61.1c-0.6-0.7-0.4-1.8,0.3-2.4c0.7-0.6,1.8-0.4,2.4,0.3c0.6,0.7,0.4,1.8-0.3,2.4
			C185.9,62,184.9,61.8,184.3,61.1C184.3,61.1,184.3,61.1,184.3,61.1z"/>
		<path class="st17" d="M166.2,75.4c-0.6-0.7-0.4-1.8,0.3-2.4s1.8-0.4,2.4,0.3c0.6,0.7,0.4,1.8-0.3,2.4
			C167.8,76.3,166.8,76.2,166.2,75.4z"/>
		<path class="st17" d="M145.4,91.9c-0.6-0.7-0.5-1.8,0.3-2.4c0.7-0.6,1.8-0.5,2.4,0.3c0.6,0.7,0.5,1.8-0.3,2.4c0,0,0,0,0,0
			C147,92.8,146,92.6,145.4,91.9z"/>
		<path class="st17" d="M122,110.5c-0.6-0.7-0.5-1.8,0.3-2.4c0.7-0.6,1.8-0.5,2.4,0.3c0.6,0.7,0.5,1.8-0.3,2.4c0,0,0,0,0,0
			C123.6,111.3,122.6,111.2,122,110.5z"/>
		<path class="st17" d="M100.5,127.4c-0.6-0.7-0.5-1.8,0.3-2.4c0.7-0.6,1.8-0.5,2.4,0.3s0.5,1.8-0.3,2.4c0,0,0,0,0,0
			C102.2,128.3,101.1,128.2,100.5,127.4z"/>
		<path class="st17" d="M76.5,146.4c-0.6-0.7-0.5-1.8,0.3-2.4c0.7-0.6,1.8-0.5,2.4,0.3s0.5,1.8-0.3,2.4c0,0,0,0,0,0
			C78.2,147.3,77.1,147.2,76.5,146.4z"/>
		<path class="st17" d="M55.1,163.4c-0.6-0.7-0.4-1.8,0.3-2.4c0.7-0.6,1.8-0.4,2.4,0.3c0.6,0.7,0.4,1.8-0.3,2.3
			C56.8,164.3,55.7,164.1,55.1,163.4C55.1,163.4,55.1,163.4,55.1,163.4z"/>
		<path class="st17" d="M162.7,28.9c-0.5-0.8-0.3-1.8,0.5-2.3c0,0,0,0,0,0c0.8-0.5,1.8-0.3,2.3,0.5c0.5,0.8,0.3,1.8-0.5,2.3
			S163.2,29.6,162.7,28.9z"/>
		<path class="st17" d="M143.5,41.6c-0.5-0.8-0.3-1.8,0.5-2.3c0.8-0.5,1.8-0.3,2.3,0.5c0.5,0.8,0.3,1.8-0.5,2.3
			C145.1,42.6,144,42.4,143.5,41.6z"/>
		<path class="st17" d="M121.4,56.3c-0.5-0.8-0.3-1.8,0.5-2.3c0.8-0.5,1.8-0.3,2.3,0.5c0.5,0.8,0.3,1.8-0.5,2.3
			C123,57.3,121.9,57.1,121.4,56.3C121.4,56.4,121.4,56.4,121.4,56.3z"/>
		<path class="st17" d="M96.5,72.9c-0.5-0.8-0.3-1.8,0.5-2.3s1.8-0.3,2.3,0.5c0.5,0.8,0.3,1.8-0.5,2.3C98.1,73.9,97,73.7,96.5,72.9z
			"/>
		<path class="st17" d="M73.8,88.1c-0.5-0.8-0.3-1.8,0.5-2.3c0.8-0.5,1.8-0.3,2.3,0.5c0.5,0.8,0.3,1.8-0.5,2.3
			C75.3,89.1,74.3,88.9,73.8,88.1C73.8,88.1,73.8,88.1,73.8,88.1z"/>
		<path class="st17" d="M48.3,105c-0.5-0.8-0.3-1.8,0.5-2.3c0.8-0.5,1.8-0.3,2.3,0.5c0.5,0.8,0.3,1.8-0.5,2.3
			C49.8,106,48.8,105.8,48.3,105z"/>
		<path class="st17" d="M25.5,120.2c-0.5-0.8-0.3-1.8,0.5-2.3c0.8-0.5,1.8-0.3,2.3,0.5c0.5,0.8,0.3,1.8-0.5,2.3
			C27.1,121.2,26.1,121,25.5,120.2C25.5,120.2,25.5,120.2,25.5,120.2z"/>
		<path class="st18" d="M78,155.4H60.6c-2.3,0-4.2,1.9-4.2,4.2c0,0,0,0,0,0v29.2c0,2.3,1.9,4.2,4.2,4.2H78c2.3,0,4.2-1.9,4.2-4.2
			v-29.2C82.2,157.3,80.3,155.4,78,155.4C78,155.4,78,155.4,78,155.4z M66.2,184.3c0.2,1.4-0.8,2.6-2.2,2.8
			c-1.4,0.2-2.6-0.8-2.8-2.2c0-0.2,0-0.4,0-0.6v-20.9c0.1-1.4,1.3-2.5,2.7-2.4c1.3,0.1,2.3,1.1,2.4,2.4L66.2,184.3z M77.2,184.3
			c0.2,1.4-0.8,2.6-2.2,2.8c-1.4,0.2-2.6-0.8-2.8-2.2c0-0.2,0-0.4,0-0.6v-20.9c-0.2-1.4,0.8-2.6,2.2-2.8c1.4-0.2,2.6,0.8,2.8,2.2
			c0,0.2,0,0.4,0,0.6V184.3z"/>
		<path class="st2" d="M107.1,361.9c10.3-20.7,1.8-45.8-18.9-56.1s-45.8-1.8-56.1,18.9c-5.7,11.4-5.8,24.8-0.4,36.3
			c2.3,5,1.4,10.9-2.4,14.9C8.8,397.7,9.8,432,31.6,452.6c21.8,20.6,56.1,19.6,76.7-2.2c19.4-20.6,19.8-52.6,0.8-73.6
			C105.5,372.7,104.7,366.8,107.1,361.9z"/>
		<circle class="st1" cx="68.9" cy="366.8" r="19"/>
		<circle class="st7" cx="68.9" cy="366.8" r="15.1"/>
		
			<rect x="-4.9" y="257.6" transform="matrix(1.570794e-03 -1 1 1.570794e-03 -197.956 335.5899)" class="st7" width="147.9" height="18.7"/>
		<path class="st19" d="M52.4,160.6c-1.1,0-2,0.8-2,1.9c0,0,0,0,0,0.1v2.4c0,1.1,0.9,1.9,1.9,1.9c1.1,0,1.9-0.9,1.9-1.9v-2.4
			C54.3,161.5,53.5,160.6,52.4,160.6z"/>
		<path class="st19" d="M52.4,170.5c-1.1,0-1.9,0.9-1.9,1.9l0,0v2.4c0.1,1.1,1,1.9,2.1,1.8c1-0.1,1.7-0.8,1.8-1.8v-2.4
			C54.3,171.4,53.5,170.6,52.4,170.5z"/>
		<path class="st19" d="M52.4,180.5c-1.1,0-1.9,0.8-1.9,1.9c0,0,0,0,0,0v2.4c0,1.1,0.9,1.9,1.9,1.9c1.1,0,1.9-0.9,1.9-1.9v-2.4
			C54.3,181.3,53.5,180.5,52.4,180.5C52.4,180.5,52.4,180.5,52.4,180.5z"/>
		<path class="st19" d="M86.1,160.7c-1.1,0-2,0.8-2,1.9c0,0,0,0,0,0.1v2.4c0,1.1,0.9,2,2,2s2-0.9,2-2l0,0v-2.4
			C88,161.6,87.2,160.7,86.1,160.7C86.1,160.7,86.1,160.7,86.1,160.7z"/>
		<path class="st19" d="M86.1,170.6c-1.1,0-1.9,0.9-1.9,1.9c0,0,0,0,0,0v2.4c0.1,1.1,1,1.9,2.1,1.8c1-0.1,1.7-0.8,1.8-1.8v-2.4
			C88,171.5,87.1,170.6,86.1,170.6C86.1,170.6,86.1,170.6,86.1,170.6z"/>
		<path class="st19" d="M86.1,180.5c-1.1,0-2,0.8-2,1.9c0,0,0,0,0,0.1v2.4c0,1.1,0.9,1.9,1.9,1.9c1.1,0,1.9-0.9,1.9-1.9c0,0,0,0,0,0
			v-2.4C87.9,181.4,87.1,180.5,86.1,180.5z"/>
		
			<rect x="64.4" y="399.6" transform="matrix(1.570794e-03 -1 1 1.570794e-03 -347.9453 484.864)" class="st7" width="8.8" height="34.1"/>
		<path class="st20" d="M225.6,63.1c-0.8-1.2-0.7-2.6-0.8-3.2c0-0.2-0.2-0.3-0.4-0.3c-0.1,0-0.2,0.1-0.3,0.3
			c-0.7,2.2-2.1,6.3-3.1,9.3l-7.6,22c-2-1.8-4.7-2.7-7.4-2.4c-4.6,0.2-8.1,2.9-7.9,5.9s4,5.2,8.5,5c3.6-0.2,6.5-1.9,7.6-4.1l0,0
			v-0.1c0.1-0.2,0.2-0.5,0.3-0.7l8.1-23.6c2,2.7,3.7,5.5,5.2,8.5c2.1,4.2-0.8,11.7-2.1,14.2c0,0,0,0.1,0,0.1s0.1,0,0.1,0l0,0
			C238.3,78,228,66.2,225.6,63.1z"/>
		<path class="st20" d="M302.3,93.8c-0.8-0.4-1.1-1.2-1.4-1.5c-0.1-0.1-0.2-0.1-0.3,0c-0.1,0.1-0.1,0.1-0.1,0.2c0.2,1.4,0.7,4,1,5.9
			l2.3,14.1c-1.6-0.4-3.3-0.1-4.7,0.8c-2.4,1.5-3.5,3.9-2.5,5.5s3.7,1.7,6.1,0.2c1.9-1.2,3-2.9,2.9-4.4l0,0l0,0c0-0.2,0-0.3-0.1-0.5
			L303,99c1.9,0.9,3.6,1.9,5.3,3.1c2.3,1.6,3,6.5,3,8.3c0,0,0,0.1,0,0.1c0,0,0.1,0,0.1-0.1C313.5,98.1,304.4,94.8,302.3,93.8z"/>
		<path class="st20" d="M301.9,362.6c-0.7-0.4-0.9-1.1-1.1-1.4c-0.1-0.1-0.2-0.1-0.3,0c0,0-0.1,0.1-0.1,0.2c0.1,1.2,0.4,3.6,0.5,5.3
			l1.2,12.7c-1.4-0.4-2.9-0.3-4.2,0.5c-2.2,1.1-3.4,3.3-2.6,4.7s3.2,1.7,5.4,0.6c1.5-0.7,2.6-2.1,2.9-3.7l0,0l0,0c0-0.1,0-0.3,0-0.4
			l-1.2-13.6c1.6,0.9,3.1,1.9,4.5,3.1c2,1.6,2.2,6,2.1,7.6c0,0,0.1,0.1,0.1,0C311.6,367.1,303.8,363.6,301.9,362.6z"/>
		<path class="st20" d="M62.8,12c-0.7-0.4-0.9-1.1-1.1-1.4c-0.1-0.1-0.2-0.1-0.3,0c-0.1,0-0.1,0.1-0.1,0.2c0.1,1.2,0.4,3.7,0.5,5.3
			l1.2,12.7c-1.4-0.5-2.9-0.3-4.2,0.5c-2.2,1.2-3.4,3.3-2.6,4.7s3.2,1.7,5.4,0.6c1.5-0.7,2.6-2.1,2.9-3.7l0,0l0,0c0-0.1,0-0.3,0-0.4
			l-1.3-13.7c1.6,0.9,3.1,1.9,4.5,3.1c2,1.6,2.2,6,2.1,7.6 M69.9,27.3C72.5,16.6,64.7,13,62.8,12L69.9,27.3z"/>
		<path class="st20" d="M457.2,10.1c-0.7-0.4-0.9-1.1-1.1-1.4c-0.1-0.1-0.2-0.1-0.3,0c-0.1,0-0.1,0.1-0.1,0.2
			c0.1,1.2,0.4,3.6,0.5,5.3l1.2,12.7c-1.4-0.5-2.9-0.3-4.2,0.5c-2.2,1.2-3.4,3.3-2.6,4.7c0.8,1.5,3.2,1.7,5.4,0.6
			c1.5-0.7,2.6-2.1,2.9-3.7l0,0l0,0c0-0.1,0-0.3,0-0.4l-1.2-13.6c1.6,0.9,3.1,1.9,4.4,3c2,1.6,2.2,6,2.1,7.6 M464.2,25.5
			c2.6-10.8-5.2-14.3-7.1-15.3L464.2,25.5z"/>
		<path class="st20" d="M116.8,185.4c-0.1-0.2-0.1-0.4-0.2-0.6l-8.7-24.7c-0.2-0.5-0.7-0.7-1.1-0.5l0,0c-0.5,0.2-0.7,0.7-0.5,1.1
			l7.9,22.4c-2.1-0.1-4.2,0.6-5.7,2.1c-2.7,2.4-3.6,5.7-2,7.5s5,1.3,7.7-1.1C116.2,189.8,117.2,187.3,116.8,185.4L116.8,185.4
			L116.8,185.4z"/>
		<path class="st20" d="M159.1,441.6c0-0.1,0-0.2-0.1-0.2l-3-10.1c-0.1-0.2-0.2-0.3-0.4-0.2c0,0,0,0,0,0l0,0
			c-0.2,0.1-0.3,0.2-0.2,0.4c0,0,0,0,0,0l2.7,9.2c-0.8-0.1-1.7,0.2-2.3,0.7c-1.1,0.9-1.6,2.2-1,3s2,0.6,3.1-0.3
			C158.7,443.5,159.1,442.6,159.1,441.6L159.1,441.6L159.1,441.6z"/>
		<path class="st20" d="M21.8,266.2c-0.9-0.1-1.7-0.4-2.4-0.9c-0.1-0.1-0.3,0-0.4,0.2c0,0.1,0,0.2,0,0.3c1.1,1.4,3.1,4.1,4.5,6
			l10.6,14.1c0,0.1,0,0.1,0,0.2c0,0,0,0,0,0c-1.9,0.5-3.6,1.8-4.5,3.6c-1.8,3-1.6,6.4,0.3,7.6s5.1-0.2,6.9-3.2
			c1.4-2.4,1.6-5,0.7-6.5l0,0l0,0c-0.1-0.2-0.2-0.3-0.4-0.5l-9.4-12.5c0,0,0-0.1,0-0.1c0,0,0,0,0.1,0c2.5-0.1,5,0,7.4,0.4
			c2.4,0.3,4.5,1.7,5.6,3.8c0,0.1,0.1,0.1,0.2,0.1s0.1-0.1,0.1-0.2l0,0C36.2,264.6,24.8,266.1,21.8,266.2z M25.5,271.5l-1.2-1.6
			c0,0-0.1-0.1,0-0.1c0,0,0,0,0,0c1-0.3,7.9-2.4,12,3C36.8,273.4,33.6,271.3,25.5,271.5C25.5,271.6,25.5,271.6,25.5,271.5z"/>
		<path class="st20" d="M411.4,201.7c-0.6-0.2-1-0.8-1.2-0.9c-0.1-0.1-0.2,0-0.2,0c0,0,0,0.1,0,0.2c0.4,1,1,3,1.5,4.3l3.3,10.2
			c0,0,0,0.1,0,0.1c0,0,0,0,0,0c-1.2-0.1-2.4,0.4-3.3,1.2c-1.6,1.4-2.2,3.4-1.3,4.4s3,0.8,4.6-0.6c1.2-0.8,1.8-2.2,1.7-3.6l0,0l0,0
			c0-0.1-0.1-0.2-0.1-0.4l-2.9-9c0,0,0-0.1,0-0.1c0,0,0,0,0,0c1.5,0.4,2.9,1,4.2,1.7c1.3,0.6,2.2,1.8,2.5,3.3c0,0.1,0,0.1,0.1,0.1
			s0.1,0,0.1-0.1C420,203.6,413.1,202.2,411.4,201.7z M412.4,205.5l-0.4-1.2c0,0,0-0.1,0.1-0.1c0.7,0,5,0.2,6.4,4.1
			C418.6,208.8,417.2,206.9,412.4,205.5C412.5,205.5,412.4,205.5,412.4,205.5z"/>
		<path class="st20" d="M384.1,268.1c-0.4-0.6-0.6-1.2-0.6-1.9c0-0.1-0.2-0.2-0.3-0.1c-0.1,0-0.1,0.1-0.1,0.1c-0.4,1.4-1,4-1.5,5.8
			l-3.7,13.7c0,0-0.1,0-0.1,0c0,0,0,0,0,0c-1.3-1-2.9-1.3-4.5-1.1c-2.8,0.4-4.9,2.1-4.6,4s2.7,3.1,5.5,2.7c2.2-0.3,4-1.4,4.5-2.8
			l0,0l0,0c0.1-0.2,0.1-0.3,0.1-0.5l3.3-12.1c0,0,0.1-0.1,0.1,0c0,0,0,0,0,0c1.3,1.5,2.4,3.2,3.5,4.9c1,1.7,1.1,3.7,0.3,5.4
			c0,0.1,0,0.1,0.1,0.2c0.1,0,0.1,0,0.1,0C392.1,276.4,385.6,269.9,384.1,268.1z M382.5,273.1l0.4-1.6c0,0,0.1-0.1,0.1-0.1
			c0,0,0,0,0,0c0.7,0.5,5.4,3.9,4,9.1C386.9,281.2,386.7,278.1,382.5,273.1C382.5,273.2,382.4,273.1,382.5,273.1
			C382.4,273,382.4,273,382.5,273.1L382.5,273.1z"/>
		<path class="st20" d="M139,354.2c-0.8-0.7-0.8-1.8-1-2.2c-0.1-0.1-0.2-0.2-0.3-0.1c-0.1,0-0.1,0.1-0.1,0.2c-0.2,1.6-1,6.4-1.4,8.6
			l-2.7,16.4c0,0.1-0.1,0.1-0.2,0.1c0,0,0,0,0,0c-1.6-0.9-3.5-1.2-5.3-0.7c-3.2,0.7-5.4,3.1-4.9,5.2s3.5,3.3,6.7,2.5
			c2.5-0.6,4.4-2.1,4.9-3.8l0,0l0,0c0-0.2,0.1-0.4,0.1-0.6l1.6-9.5c0-0.1,0.1-0.1,0.2-0.1c0,0,0.1,0,0.1,0c1.7,1.6,3.2,3.4,4.5,5.2
			c1.2,1.8,1.5,4.2,0.8,6.2c0,0.1,0,0.2,0.1,0.3c0.1,0,0.2,0,0.3-0.1C148.1,369.6,145.7,360.3,139,354.2z M136.7,366.7l0.3-1.9
			c0-0.1,0.1-0.1,0.2-0.1c0,0,0.1,0,0.1,0c1.1,0.9,6.5,5.3,5.8,9.6c-0.1,0.8-0.8-2.2-6.3-7.5C136.7,366.8,136.7,366.7,136.7,366.7
			L136.7,366.7z M137.7,360.9l0.4-2.1c0-0.1,0.1-0.1,0.2-0.1c0,0,0.1,0,0.1,0c1.1,0.9,6.5,5.3,5.8,9.6c-0.1,0.8-0.9-2-6.4-7.2
			C137.7,361,137.6,361,137.7,360.9L137.7,360.9z"/>
		<path class="st20" d="M39.2,471.4c-1-0.2-1.6-1.1-2-1.4c-0.1-0.1-0.3-0.1-0.4,0c-0.1,0.1-0.1,0.2,0,0.3c0.6,1.5,2.5,6,3.3,8.1
			l6.2,15.4c0,0.1,0,0.2-0.1,0.2c0,0,0,0-0.1,0c-1.9,0.1-3.6,0.8-4.9,2.2c-2.4,2.3-3.1,5.4-1.5,7s4.7,1,7-1.3
			c1.9-1.8,2.7-4.1,2.2-5.8l0,0l0,0c0-0.2-0.1-0.4-0.2-0.5l-3.6-9c0-0.1,0-0.2,0.1-0.2c0,0,0.1,0,0.1,0c2.3,0.5,4.5,1.2,6.6,2.1
			c2,0.9,3.4,2.8,3.9,4.9c0.1,0.1,0.2,0.2,0.3,0.1c0.1,0,0.1-0.1,0.1-0.2C55.1,479.9,48.2,473.1,39.2,471.4z M43.7,483.2l-0.7-1.8
			c0-0.1,0-0.2,0.1-0.2c0,0,0.1,0,0.1,0c1.4,0.2,8.3,1.2,10,5.2c0.3,0.7-1.8-1.4-9.3-3.1C43.8,483.4,43.7,483.3,43.7,483.2z
			 M41.5,477.9l-0.8-2c0-0.1,0-0.2,0.1-0.2c0,0,0.1,0,0.1,0c1.4,0.2,8.3,1.2,10,5.2c0.3,0.7-1.8-1.2-9.2-2.9
			C41.6,477.9,41.6,477.9,41.5,477.9z"/>
		<path class="st20" d="M369.5,364.7c0-0.1,0-0.3,0.1-0.4l2.6-19.3l-1.2-0.2l-2.4,17.5c-1.3-0.8-2.9-1-4.3-0.5
			c-2.5,0.6-4.2,2.5-3.8,4.2s2.8,2.5,5.3,1.8C367.8,367.3,369.2,366.1,369.5,364.7L369.5,364.7L369.5,364.7z"/>
		<path class="st20" d="M381.5,372.6c0-0.1,0.1-0.3,0.1-0.4l2.6-19.3l-1.2-0.2l-2.4,17.5c-1.3-0.8-2.9-1-4.3-0.5
			c-2.5,0.6-4.2,2.5-3.8,4.2s2.8,2.5,5.3,1.8C379.7,375.3,381.1,374,381.5,372.6L381.5,372.6L381.5,372.6z"/>
		<path class="st20" d="M383.9,352.2c-1.6-0.8-9.1-4.5-11.8-7.8c-0.2-0.3-0.7-0.4-1-0.1c-0.1,0.1-0.2,0.3-0.3,0.5l-0.5,4.4
			c4.3,3.5,12.8,8.2,13.1,8.4l0.7-4.9C384.2,352.5,384.1,352.3,383.9,352.2z"/>
		<path class="st20" d="M479.3,193.5c0-0.1,0.1-0.2,0.1-0.3l5.1-12l-0.8-0.3l-4.6,10.9c-0.7-0.7-1.7-1.1-2.7-1.1
			c-1.7,0-3.1,0.9-3.1,2s1.4,2.1,3.1,2.1C477.5,194.9,478.7,194.4,479.3,193.5L479.3,193.5L479.3,193.5z"/>
		<path class="st20" d="M485.6,200.7c0-0.1,0.1-0.2,0.1-0.3l5.1-12l-0.8-0.3l-4.6,10.9c-0.7-0.7-1.7-1.1-2.7-1.1
			c-1.7,0-3.1,0.9-3.1,2s1.4,2.1,3.1,2.1C483.8,202.2,485,201.6,485.6,200.7L485.6,200.7L485.6,200.7z"/>
		<path class="st20" d="M490.8,188c-0.9-0.8-5.1-4.5-6.2-7.1c-0.1-0.2-0.4-0.3-0.6-0.2c-0.1,0-0.2,0.1-0.2,0.2l-1.1,2.8
			c2.2,2.7,4.5,5.3,7,7.7l1.3-3C491,188.3,491,188.1,490.8,188z"/>
		<path class="st20" d="M222.2,397.6c0-0.1,0-0.2-0.1-0.4l-4-16.1l-1.1,0.3l3.6,14.6c-1.3-0.2-2.6,0.2-3.6,1
			c-1.8,1.3-2.5,3.3-1.7,4.5s3,1.1,4.8-0.2C221.5,400.5,222.2,399.2,222.2,397.6L222.2,397.6L222.2,397.6z"/>
		<path class="st20" d="M234.2,400.1c0-0.1,0-0.3-0.1-0.4l-4-16.1l-1.1,0.3l3.6,14.6c-1.3-0.2-2.6,0.2-3.6,1
			c-1.8,1.3-2.5,3.3-1.7,4.5s3,1.1,4.8-0.2C233.4,403.1,234.2,401.7,234.2,400.1L234.2,400.1L234.2,400.1z"/>
		<path class="st20" d="M229.6,383.1c-1.6-0.1-8.7-0.7-11.8-2.5c-0.3-0.2-0.6-0.1-0.8,0.2c-0.1,0.1-0.1,0.3-0.1,0.4l1.6,6.1
			c0,0.2,0.2,0.3,0.3,0.3c1.7,0.4,3.4,0.8,5.2,1.2c2.4,0.5,4.7,0.9,7,1.2c0.1,0,0.3,0,0.4-0.1c0.1-0.1,0.1-0.2,0.1-0.4l-1.6-6.2
			C230,383.3,229.8,383.1,229.6,383.1z M230,387.6c-1.9-0.2-3.9-0.5-6-0.9c-1.6-0.3-3.2-0.6-4.6-0.9l-0.5-1.9
			c1.6,0.5,3.3,0.9,5.2,1.2c1.8,0.4,3.7,0.6,5.5,0.8L230,387.6z"/>
		<path class="st20" d="M473.1,98.5l-2,8.3c0,0.2,0,0.4,0.1,0.5c0.1,0.1,0.3,0.2,0.5,0.2c3-0.5,6.1-1,9.3-1.7c2.4-0.5,4.8-1.1,7-1.7
			c0.2,0,0.4-0.2,0.4-0.4l2-8.2c0.1-0.4-0.2-0.9-0.6-1c-0.2,0-0.4,0-0.6,0.1c-4.2,2.5-13.7,3.4-15.8,3.5
			C473.4,98.1,473.2,98.3,473.1,98.5z M473.8,101.9c2.3-0.2,4.8-0.6,7.4-1.1s4.8-1.1,6.9-1.8c-0.2,0.9-0.4,1.7-0.6,2.6
			c-2,0.5-4.1,0.9-6.2,1.3c-2.8,0.5-5.5,0.9-8,1.3L473.8,101.9z"/>
		<path class="st20" d="M469.5,120.8c0.1-0.2,0.1-0.3,0.1-0.5l5.1-21.7l-1.4-0.3l-4.6,19.7c-1.4-1-3.2-1.4-4.9-1
			c-2.9,0.5-5,2.4-4.7,4.3s2.9,3.1,5.8,2.7C467.2,123.6,469,122.3,469.5,120.8L469.5,120.8L469.5,120.8z"/>
		<path class="st20" d="M485.3,118.1c0.1-0.2,0.1-0.3,0.1-0.5l5.1-21.6l-1.4-0.3l-4.6,19.7c-1.4-1-3.2-1.4-4.9-1.1
			c-2.9,0.5-5,2.4-4.7,4.3s2.9,3.1,5.8,2.7C483,121,484.8,119.7,485.3,118.1L485.3,118.1L485.3,118.1z"/>
		<path class="st20" d="M260.2,16.6l-1.9,8.4c0,0.2,0,0.4,0.1,0.5c0.1,0.1,0.3,0.2,0.5,0.2c3-0.5,6.1-1,9.3-1.7
			c2.4-0.5,4.7-1.1,7-1.7c0.2,0,0.4-0.2,0.4-0.4l2-8.2c0.1-0.4-0.1-0.9-0.6-1c-0.2-0.1-0.4,0-0.6,0.1c-4.2,2.5-13.7,3.4-15.8,3.5
			C260.5,16.3,260.3,16.4,260.2,16.6z M260.9,20c2.3-0.2,4.8-0.6,7.4-1.1s4.8-1.1,6.9-1.8c-0.2,0.9-0.4,1.7-0.6,2.6
			c-2,0.5-4.1,0.9-6.2,1.3c-2.8,0.5-5.5,0.9-8,1.3L260.9,20z"/>
		<path class="st20" d="M256.6,38.9c0.1-0.2,0.1-0.3,0.1-0.5l5.1-21.7l-1.4-0.3l-4.6,19.7c-1.4-1-3.2-1.4-4.9-1.1
			c-2.9,0.5-5,2.4-4.7,4.3s2.9,3.1,5.9,2.6C254.3,41.6,256.1,40.3,256.6,38.9L256.6,38.9L256.6,38.9z"/>
		<path class="st20" d="M272.4,36.2c0.1-0.2,0.1-0.3,0.1-0.5l5.1-21.7l-1.4-0.3l-4.6,19.7c-1.4-1-3.2-1.4-4.9-1.1
			c-2.9,0.5-5,2.4-4.7,4.3s2.9,3.1,5.8,2.7C270,39,271.8,37.7,272.4,36.2L272.4,36.2L272.4,36.2z"/>
		<path class="st20" d="M25.8,186l-1.9,8.3c0,0.2,0,0.4,0.1,0.5c0.1,0.1,0.3,0.2,0.5,0.2c3-0.5,6.1-1,9.3-1.7c2.4-0.5,4.7-1.1,7-1.6
			c0.2,0,0.4-0.2,0.4-0.4l2-8.2c0.1-0.4-0.1-0.9-0.6-1c-0.2-0.1-0.4,0-0.6,0.1c-4.2,2.5-13.7,3.4-15.8,3.5
			C26.1,185.6,25.9,185.8,25.8,186z M26.5,189.4c2.3-0.2,4.8-0.6,7.4-1.1s4.8-1.1,6.9-1.8c-0.2,0.9-0.4,1.7-0.6,2.6
			c-2,0.5-4.1,0.9-6.2,1.3c-2.8,0.5-5.5,0.9-8,1.3L26.5,189.4z"/>
		<path class="st20" d="M22.2,208.3c0.1-0.2,0.1-0.3,0.1-0.5l5.1-21.7l-1.4-0.3l-4.6,19.7c-1.4-1-3.2-1.4-4.9-1.1
			c-2.9,0.5-5,2.4-4.7,4.3s2.9,3.1,5.8,2.6C19.9,211,21.7,209.8,22.2,208.3L22.2,208.3L22.2,208.3z"/>
		<path class="st20" d="M38,205.6c0.1-0.2,0.1-0.3,0.1-0.5l5.1-21.7l-1.4-0.3l-4.6,19.7c-1.4-1-3.2-1.4-4.9-1.1
			c-2.9,0.5-5,2.4-4.7,4.3s2.9,3.1,5.8,2.6C35.7,208.4,37.5,207.1,38,205.6L38,205.6L38,205.6z"/>
	</g>
</g>
</svg>
